<?xml version="1.0" encoding="utf-8"?>
<!-- Generator: Adobe Illustrator 21.0.0, SVG Export Plug-In . SVG Version: 6.00 Build 0)  -->
<svg version="1.1" id="图层_1" xmlns="http://www.w3.org/2000/svg" xmlns:xlink="http://www.w3.org/1999/xlink" x="0px" y="0px"
	 viewBox="0 0 657.9 634.2" style="enable-background:new 0 0 657.9 634.2;" xml:space="preserve">
<style type="text/css">
	.st0{fill:none;stroke:#FF102A;}
	.st1{fill:#FFFFFF;}
	.st2{fill:#FFFFFF;stroke:#FFFFFF;stroke-width:0.25;}
	.st3{fill:none;stroke:#FFFFFF;}
	.st4{fill:none;stroke:#FFFFFF;stroke-linecap:round;}
	.st5{fill:none;stroke:#D0D0D0;}
	.st6{fill:none;stroke:#D0D0D0;stroke-linecap:square;}
	.st7{fill:#FFFFFF;stroke:#444444;}
	.st8{fill:#D0D0D0;}
</style>
<path class="st0" d="M527.9,555.1h-175c-5.5,0-10,4.5-10,10v49c0,5.5,4.5,10,10,10h175c5.5,0,10-4.5,10-10v-49
	C537.9,559.6,533.5,555.1,527.9,555.1z"/>
<path class="st1" d="M407.1,608.3h1.8V604h4.7v4.3h1.8v-10.2h-1.8v4.3h-4.7v-4.3h-1.8V608.3z M423,600.9h1.8c0-1.7-1.5-2.9-3.7-2.9
	c-2.1,0-3.7,1.2-3.7,3c0,1.5,1,2.3,2.7,2.7l1.2,0.3c1.1,0.3,1.8,0.6,1.8,1.4c0,0.9-0.8,1.5-2,1.5c-1.2,0-2-0.5-2.1-1.6h-1.8
	c0.1,2,1.6,3.2,4,3.2c2.4,0,3.9-1.2,3.9-3c0-1.8-1.5-2.6-3-2.9l-1-0.2c-0.8-0.2-1.7-0.6-1.7-1.4c0-0.8,0.7-1.3,1.8-1.3
	C422.2,599.5,422.9,600.1,423,600.9z M426.6,598.1v10.2h1.8v-7h0.1l2.8,7h1.3l2.8-7h0.1v7h1.8v-10.2H435l-3,7.4h-0.1l-3-7.4H426.6z
	 M443.3,597.6h-1.6l-3.3,12.2h1.6L443.3,597.6z M444.6,608.3h1.8v-3l1.1-1.3l3,4.4h2.2l-4-5.6l3.9-4.6h-2.3l-4,4.7h-0.1v-4.7h-1.8
	V608.3z M454,598.1v10.2h1.8v-7h0.1l2.8,7h1.3l2.8-7h0.1v7h1.8v-10.2h-2.3l-3,7.4h-0.1l-3-7.4H454z M472.3,600.9h1.8
	c0-1.7-1.5-2.9-3.7-2.9c-2.1,0-3.7,1.2-3.7,3c0,1.5,1,2.3,2.7,2.7l1.2,0.3c1.1,0.3,1.8,0.6,1.8,1.4c0,0.9-0.8,1.5-2,1.5
	c-1.2,0-2-0.5-2.1-1.6h-1.8c0.1,2,1.6,3.2,4,3.2c2.4,0,3.9-1.2,3.9-3c0-1.8-1.5-2.6-3-2.9l-1-0.2c-0.8-0.2-1.7-0.6-1.7-1.4
	c0-0.8,0.7-1.3,1.8-1.3C471.4,599.5,472.2,600.1,472.3,600.9z"/>
<path class="st2" d="M440.1,576.2L440.1,576.2c1,0,2.1,0,3.1,0c0.2,0,0.2,0,0.2-0.2c0-1,0-2,0-3c0-0.5-0.1-1-0.3-1.5
	c-0.8-1.7-2.7-2.4-4.3-1.7c-1.4,0.6-2,1.7-2.1,3.2c0,1,0,2.1,0,3.1c0,0.2,0,0.2,0.2,0.2C438.1,576.2,439.1,576.2,440.1,576.2z
	 M440.1,585.8c2,0,4,0,5.9,0c0.3,0,0.4-0.1,0.4-0.4c0-2.6,0-5.3,0-7.9c0-0.3-0.1-0.4-0.4-0.4c-4,0-7.9,0-11.9,0
	c-0.4,0-0.4,0.1-0.4,0.4c0,2.6,0,5.2,0,7.9c0,0.3,0.1,0.4,0.4,0.4C436.2,585.8,438.2,585.8,440.1,585.8z M440.1,586.6c-2,0-4,0-6,0
	c-0.7,0-1.2-0.5-1.2-1.2c0-2.7,0-5.3,0-8c0-0.6,0.3-1,0.8-1.1c0.1,0,0.3-0.1,0.4-0.1c0.5,0,1.1,0,1.6,0c0.2,0,0.2-0.1,0.2-0.2
	c0-1.1,0-2.2,0-3.4c0-1.3,0.6-2.3,1.6-3.1c0.8-0.7,1.8-1,2.8-0.9c1.6,0,3.2,1.2,3.7,2.7c0.2,0.5,0.3,1.1,0.3,1.6c0,1,0,2,0,3
	c0,0.2,0,0.3,0.3,0.3c0.5,0,1,0,1.6,0c0.8,0,1.2,0.6,1.2,1.2c0,2.6,0,5.3,0,7.9c0,0.4-0.1,0.8-0.5,1c-0.2,0.2-0.5,0.2-0.8,0.2
	C444.1,586.6,442.1,586.6,440.1,586.6L440.1,586.6z"/>
<path class="st2" d="M439.4,578.6c0.7-0.2,1.3-0.1,1.9,0.3c0.3,0.2,0.5,0.4,0.6,0.7c0.1,0.3,0.2,0.6,0.1,0.9c0,0.3-0.2,0.6-0.4,0.9
	c-0.2,0.9-0.2,1.5-0.2,2.1c0,0.4-0.1,0.6-0.2,0.7c-0.1,0.1-0.3,0.2-0.6,0.2c-1.2,0-1.5-0.1-1.6-0.2c-0.1-0.1-0.2-0.3-0.2-0.5
	c0-0.3,0-0.6,0-0.9c0-0.3,0-0.7,0-1c-0.5-0.7-0.6-1.4-0.5-1.9C438.4,579.3,438.8,578.9,439.4,578.6z M439.6,579.4
	c-0.3,0.2-0.5,0.4-0.6,0.7c-0.1,0.3,0,0.6,0.2,0.8c0.2,0.3,0.3,0.5,0.3,0.9c0,0.3,0,0.6,0.2,0.9c0.1,0.3,0.4,0.5,0.9,0.1
	c0-0.3,0-0.5,0-0.8c0-0.4,0.1-0.8,0.4-1.1c0.2-0.2,0.2-0.4,0.2-0.6c0-0.2-0.1-0.4-0.3-0.6c-0.2-0.2-0.4-0.3-0.6-0.3
	C440.1,579.2,439.8,579.3,439.6,579.4z"/>
<path class="st0" d="M305.4,555.1h-67c-5.5,0-10,4.5-10,10v49c0,5.5,4.5,10,10,10h67c5.5,0,10-4.5,10-10v-49
	C315.4,559.6,311,555.1,305.4,555.1z"/>
<path class="st1" d="M238.9,608.3h1.8V604h4.7v4.3h1.8v-10.2h-1.8v4.3h-4.7v-4.3h-1.8V608.3z M254.8,600.9h1.8
	c0-1.7-1.5-2.9-3.7-2.9c-2.1,0-3.7,1.2-3.7,3c0,1.5,1,2.3,2.7,2.7l1.2,0.3c1.1,0.3,1.8,0.6,1.8,1.4c0,0.9-0.8,1.5-2,1.5
	c-1.2,0-2-0.5-2.1-1.6h-1.8c0.1,2,1.6,3.2,4,3.2c2.4,0,3.9-1.2,3.9-3c0-1.8-1.5-2.6-3-2.9l-1-0.2c-0.8-0.2-1.7-0.6-1.7-1.4
	c0-0.8,0.7-1.3,1.8-1.3C254,599.5,254.7,600.1,254.8,600.9z M258.4,598.1v10.2h1.8v-7h0.1l2.8,7h1.3l2.8-7h0.1v7h1.8v-10.2h-2.3
	l-3,7.4h-0.1l-3-7.4H258.4z M275.2,597.6h-1.6l-3.3,12.2h1.6L275.2,597.6z M276.4,608.3h1.8v-3l1.1-1.3l3,4.4h2.2l-4-5.6l3.9-4.6
	h-2.3l-4,4.7h-0.1v-4.7h-1.8V608.3z M285.9,598.1v10.2h1.8v-7h0.1l2.8,7h1.3l2.8-7h0.1v7h1.8v-10.2h-2.3l-3,7.4h-0.1l-3-7.4H285.9z
	 M304.1,600.9h1.8c0-1.7-1.5-2.9-3.7-2.9c-2.1,0-3.7,1.2-3.7,3c0,1.5,1,2.3,2.7,2.7l1.2,0.3c1.1,0.3,1.8,0.6,1.8,1.4
	c0,0.9-0.8,1.5-2,1.5c-1.2,0-2-0.5-2.1-1.6h-1.8c0.1,2,1.6,3.2,4,3.2c2.4,0,3.9-1.2,3.9-3c0-1.8-1.5-2.6-3-2.9l-1-0.2
	c-0.8-0.2-1.7-0.6-1.7-1.4c0-0.8,0.7-1.3,1.8-1.3C303.3,599.5,304,600.1,304.1,600.9z"/>
<path class="st2" d="M272.1,576.2L272.1,576.2c1,0,2.1,0,3.1,0c0.2,0,0.2,0,0.2-0.2c0-1,0-2,0-3c0-0.5-0.1-1-0.3-1.5
	c-0.8-1.7-2.7-2.4-4.3-1.7c-1.4,0.6-2,1.7-2.1,3.2c0,1,0,2.1,0,3.1c0,0.2,0,0.2,0.2,0.2C270.1,576.2,271.1,576.2,272.1,576.2z
	 M272.1,585.8c2,0,4,0,5.9,0c0.3,0,0.4-0.1,0.4-0.4c0-2.6,0-5.3,0-7.9c0-0.3-0.1-0.4-0.4-0.4c-4,0-7.9,0-11.9,0
	c-0.4,0-0.4,0.1-0.4,0.4c0,2.6,0,5.2,0,7.9c0,0.3,0.1,0.4,0.4,0.4C268.2,585.8,270.2,585.8,272.1,585.8z M272.1,586.6c-2,0-4,0-6,0
	c-0.7,0-1.2-0.5-1.2-1.2c0-2.7,0-5.3,0-8c0-0.6,0.3-1,0.8-1.1c0.1,0,0.3-0.1,0.4-0.1c0.5,0,1.1,0,1.6,0c0.2,0,0.2-0.1,0.2-0.2
	c0-1.1,0-2.2,0-3.4c0-1.3,0.6-2.3,1.6-3.1c0.8-0.7,1.8-1,2.8-0.9c1.6,0,3.2,1.2,3.7,2.7c0.2,0.5,0.3,1.1,0.3,1.6c0,1,0,2,0,3
	c0,0.2,0,0.3,0.3,0.3c0.5,0,1,0,1.6,0c0.8,0,1.2,0.6,1.2,1.2c0,2.6,0,5.3,0,7.9c0,0.4-0.1,0.8-0.5,1c-0.2,0.2-0.5,0.2-0.8,0.2
	C276.1,586.6,274.1,586.6,272.1,586.6L272.1,586.6z"/>
<path class="st2" d="M271.4,578.6c0.7-0.2,1.3-0.1,1.9,0.3c0.3,0.2,0.5,0.4,0.6,0.7c0.1,0.3,0.2,0.6,0.1,0.9c0,0.3-0.2,0.6-0.4,0.9
	c-0.2,0.9-0.2,1.5-0.2,2.1c0,0.4-0.1,0.6-0.2,0.7c-0.1,0.1-0.3,0.2-0.6,0.2c-1.2,0-1.5-0.1-1.6-0.2c-0.1-0.1-0.2-0.3-0.2-0.5
	c0-0.3,0-0.6,0-0.9c0-0.3,0-0.7,0-1c-0.5-0.7-0.6-1.4-0.5-1.9C270.4,579.3,270.8,578.9,271.4,578.6z M271.6,579.4
	c-0.3,0.2-0.5,0.4-0.6,0.7c-0.1,0.3,0,0.6,0.2,0.8c0.2,0.3,0.3,0.5,0.3,0.9c0,0.3,0,0.6,0.2,0.9c0.1,0.3,0.4,0.5,0.9,0.1
	c0-0.3,0-0.5,0-0.8c0-0.4,0.1-0.8,0.4-1.1c0.2-0.2,0.2-0.4,0.2-0.6c0-0.2-0.1-0.4-0.3-0.6c-0.2-0.2-0.4-0.3-0.6-0.3
	C272.1,579.2,271.8,579.3,271.6,579.4z"/>
<path class="st0" d="M197.4,555.2h-67c-5.5,0-10,4.5-10,10v49c0,5.5,4.5,10,10,10h67c5.5,0,10-4.5,10-10v-49
	C207.4,559.7,203,555.2,197.4,555.2z"/>
<path class="st1" d="M130.9,608.3h1.8V604h4.7v4.3h1.8v-10.2h-1.8v4.3h-4.7v-4.3h-1.8V608.3z M146.8,600.9h1.8
	c0-1.7-1.5-2.9-3.7-2.9c-2.1,0-3.7,1.2-3.7,3c0,1.5,1,2.3,2.7,2.7l1.2,0.3c1.1,0.3,1.8,0.6,1.8,1.4c0,0.9-0.8,1.5-2,1.5
	c-1.2,0-2-0.5-2.1-1.6h-1.8c0.1,2,1.6,3.2,4,3.2c2.4,0,3.9-1.2,3.9-3c0-1.8-1.5-2.6-3-2.9l-1-0.2c-0.8-0.2-1.7-0.6-1.7-1.4
	c0-0.8,0.7-1.3,1.8-1.3C146,599.5,146.7,600.1,146.8,600.9z M150.4,598.1v10.2h1.8v-7h0.1l2.8,7h1.3l2.8-7h0.1v7h1.8v-10.2h-2.3
	l-3,7.4h-0.1l-3-7.4H150.4z M167.2,597.6h-1.6l-3.3,12.2h1.6L167.2,597.6z M168.4,608.3h1.8v-3l1.1-1.3l3,4.4h2.2l-4-5.6l3.9-4.6
	h-2.3l-4,4.7h-0.1v-4.7h-1.8V608.3z M177.9,598.1v10.2h1.8v-7h0.1l2.8,7h1.3l2.8-7h0.1v7h1.8v-10.2h-2.3l-3,7.4h-0.1l-3-7.4H177.9z
	 M196.1,600.9h1.8c0-1.7-1.5-2.9-3.7-2.9c-2.1,0-3.7,1.2-3.7,3c0,1.5,1,2.3,2.7,2.7l1.2,0.3c1.1,0.3,1.8,0.6,1.8,1.4
	c0,0.9-0.8,1.5-2,1.5c-1.2,0-2-0.5-2.1-1.6h-1.8c0.1,2,1.6,3.2,4,3.2c2.4,0,3.9-1.2,3.9-3c0-1.8-1.5-2.6-3-2.9l-1-0.2
	c-0.8-0.2-1.7-0.6-1.7-1.4c0-0.8,0.7-1.3,1.8-1.3C195.3,599.5,196,600.1,196.1,600.9z"/>
<path class="st2" d="M163.6,576.3L163.6,576.3c1,0,2.1,0,3.1,0c0.2,0,0.2,0,0.2-0.2c0-1,0-2,0-3c0-0.5-0.1-1-0.3-1.5
	c-0.8-1.7-2.7-2.4-4.3-1.7c-1.4,0.6-2,1.7-2.1,3.2c0,1,0,2.1,0,3.1c0,0.2,0,0.2,0.2,0.2C161.6,576.3,162.6,576.3,163.6,576.3z
	 M163.6,585.9c2,0,4,0,5.9,0c0.3,0,0.4-0.1,0.4-0.4c0-2.6,0-5.3,0-7.9c0-0.3-0.1-0.4-0.4-0.4c-4,0-7.9,0-11.9,0
	c-0.4,0-0.4,0.1-0.4,0.4c0,2.6,0,5.2,0,7.9c0,0.3,0.1,0.4,0.4,0.4C159.7,585.9,161.7,585.9,163.6,585.9z M163.6,586.7c-2,0-4,0-6,0
	c-0.7,0-1.2-0.5-1.2-1.2c0-2.7,0-5.3,0-8c0-0.6,0.3-1,0.8-1.1c0.1,0,0.3-0.1,0.4-0.1c0.5,0,1.1,0,1.6,0c0.2,0,0.2-0.1,0.2-0.2
	c0-1.1,0-2.2,0-3.4c0-1.3,0.6-2.3,1.6-3.1c0.8-0.7,1.8-1,2.8-0.9c1.6,0,3.2,1.2,3.7,2.7c0.2,0.5,0.3,1.1,0.3,1.6c0,1,0,2,0,3
	c0,0.2,0,0.3,0.3,0.3c0.5,0,1,0,1.5,0c0.8,0,1.2,0.6,1.2,1.2c0,2.6,0,5.3,0,7.9c0,0.4-0.1,0.8-0.5,1c-0.2,0.2-0.5,0.2-0.8,0.2
	C167.6,586.7,165.6,586.7,163.6,586.7L163.6,586.7z"/>
<path class="st2" d="M162.9,578.7c0.7-0.2,1.3-0.1,1.9,0.3c0.3,0.2,0.5,0.4,0.6,0.7c0.1,0.3,0.2,0.6,0.1,0.9c0,0.3-0.2,0.6-0.4,0.9
	c-0.2,0.9-0.2,1.5-0.2,2.1c0,0.4-0.1,0.6-0.2,0.7c-0.1,0.1-0.3,0.2-0.6,0.2c-1.2,0-1.5-0.1-1.6-0.2c-0.1-0.1-0.2-0.3-0.2-0.5
	c0-0.3,0-0.6,0-0.9c0-0.3,0-0.7,0-1c-0.5-0.7-0.6-1.4-0.5-1.9C161.9,579.4,162.3,579,162.9,578.7z M163.1,579.5
	c-0.3,0.2-0.5,0.4-0.6,0.7c-0.1,0.3,0,0.6,0.2,0.8c0.2,0.3,0.3,0.5,0.3,0.9c0,0.3,0,0.6,0.2,0.9c0.1,0.3,0.4,0.5,0.9,0.1
	c0-0.3,0-0.5,0-0.8c0-0.4,0.1-0.8,0.4-1.1c0.2-0.2,0.2-0.4,0.2-0.6c0-0.2-0.1-0.4-0.3-0.6c-0.2-0.2-0.4-0.3-0.6-0.3
	C163.6,579.3,163.3,579.4,163.1,579.5z"/>
<path class="st0" d="M527.9,448.6h-175c-5.5,0-10,4.5-10,10v49c0,5.5,4.5,10,10,10h175c5.5,0,10-4.5,10-10v-49
	C537.9,453.1,533.5,448.6,527.9,448.6z"/>
<path class="st1" d="M403.8,488.5h-2l3.6,10.2h2.3l3.6-10.2h-2l-2.6,8h-0.1L403.8,488.5z M412.5,498.7h1.8v-3.4h1.9
	c2.4,0,3.6-1.4,3.6-3.4c0-1.9-1.2-3.4-3.6-3.4h-3.8V498.7z M414.4,493.7V490h1.7c1.4,0,2,0.7,2,1.8c0,1.1-0.6,1.9-2,1.9H414.4z
	 M429.9,488.5h-1.8v6.9H428l-4.8-6.9h-1.7v10.2h1.8v-6.9h0.1l4.8,6.9h1.6V488.5z M435.4,498.7h1.8v-3.7h1.9l2,3.7h2.1l-2.2-4
	c1.2-0.5,1.8-1.5,1.8-2.9c0-1.9-1.3-3.3-3.6-3.3h-3.8V498.7z M437.2,493.4V490h1.7c1.4,0,2,0.6,2,1.7c0,1.1-0.6,1.7-2,1.7H437.2z
	 M447.6,498.8c2.2,0,3.7-1.6,3.7-3.9c0-2.4-1.4-3.9-3.7-3.9c-2.2,0-3.7,1.6-3.7,3.9C444,497.2,445.4,498.8,447.6,498.8z
	 M447.6,497.4c-1.2,0-1.8-1.1-1.8-2.5c0-1.4,0.6-2.5,1.8-2.5c1.2,0,1.8,1.1,1.8,2.5C449.5,496.3,448.9,497.4,447.6,497.4z
	 M457.7,495.5c0,1.2-0.8,1.7-1.6,1.7c-0.9,0-1.4-0.6-1.4-1.6V491h-1.8v4.9c0,1.8,1,2.9,2.5,2.9c1.1,0,1.9-0.6,2.3-1.5h0.1v1.4h1.7
	V491h-1.8V495.5z M465.1,491h-1.5v-1.8h-1.8v1.8h-1.1v1.4h1.1v4.2c0,1.4,1,2.1,2.4,2.1c0.5,0,0.9-0.1,1.1-0.2l-0.3-1.4
	c-0.1,0-0.3,0.1-0.5,0.1c-0.5,0-0.8-0.2-0.8-0.9v-3.9h1.5V491z M469.9,498.8c1.8,0,3-0.9,3.3-2.2l-1.7-0.2c-0.2,0.6-0.8,1-1.6,1
	c-1.2,0-1.9-0.8-1.9-2.1h5.3v-0.6c0-2.7-1.6-3.9-3.5-3.9c-2.2,0-3.6,1.6-3.6,4C466.2,497.3,467.6,498.8,469.9,498.8z M468,494.1
	c0.1-1,0.8-1.8,1.9-1.8c1,0,1.7,0.8,1.7,1.8H468z M474.9,498.7h1.8v-4.5c0-1,0.7-1.7,1.7-1.7c0.3,0,0.7,0.1,0.8,0.1V491
	c-0.2,0-0.4-0.1-0.6-0.1c-0.9,0-1.6,0.5-1.9,1.4h-0.1V491h-1.7V498.7z"/>
<path class="st3" d="M462.7,463.1h-46v13h46V463.1z"/>
<path class="st1" d="M437.2,468.6h-17v2h17V468.6z"/>
<path class="st1" d="M445.2,468.6h-5v2h5V468.6z"/>
<path class="st1" d="M452.2,468.6h-5v2h5V468.6z"/>
<path class="st1" d="M459.2,468.6h-5v2h5V468.6z"/>
<path class="st0" d="M305.4,448.6h-67c-5.5,0-10,4.5-10,10v49c0,5.5,4.5,10,10,10h67c5.5,0,10-4.5,10-10v-49
	C315.4,453.1,311,448.6,305.4,448.6z"/>
<path class="st1" d="M243.7,488.5h-2l3.6,10.2h2.3l3.6-10.2h-2l-2.6,8h-0.1L243.7,488.5z M253.7,498.8c1.2,0,1.9-0.6,2.2-1.2h0.1v1
	h1.7v-5.1c0-2-1.6-2.6-3.1-2.6c-1.6,0-2.8,0.7-3.2,2.1l1.7,0.2c0.2-0.5,0.7-1,1.6-1c0.8,0,1.3,0.4,1.3,1.2v0c0,0.5-0.5,0.5-1.9,0.7
	c-1.5,0.2-2.9,0.6-2.9,2.3C251.2,498,252.3,498.8,253.7,498.8z M254.2,497.5c-0.8,0-1.3-0.3-1.3-1c0-0.7,0.6-1,1.4-1.1
	c0.5-0.1,1.4-0.2,1.7-0.4v0.9C256,496.8,255.3,497.5,254.2,497.5z M261.4,488.5h-1.8v10.2h1.8V488.5z M263.2,498.7h1.8V491h-1.8
	V498.7z M264.1,490c0.6,0,1-0.4,1-1c0-0.5-0.5-1-1-1c-0.6,0-1,0.4-1,1C263.1,489.5,263.6,490,264.1,490z M269.7,498.8
	c1.3,0,1.9-0.8,2.2-1.3h0.1v1.2h1.8v-10.2H272v3.8h-0.1c-0.3-0.6-0.8-1.4-2.2-1.4c-1.8,0-3.2,1.4-3.2,3.9
	C266.6,497.4,267.9,498.8,269.7,498.8z M270.2,497.3c-1.2,0-1.8-1-1.8-2.5c0-1.4,0.6-2.4,1.8-2.4c1.2,0,1.8,1,1.8,2.4
	C272,496.3,271.4,497.3,270.2,497.3z M277.9,498.8c1.2,0,1.9-0.6,2.2-1.2h0.1v1h1.7v-5.1c0-2-1.6-2.6-3.1-2.6
	c-1.6,0-2.8,0.7-3.2,2.1l1.7,0.2c0.2-0.5,0.7-1,1.6-1c0.8,0,1.3,0.4,1.3,1.2v0c0,0.5-0.5,0.5-1.9,0.7c-1.5,0.2-2.9,0.6-2.9,2.3
	C275.3,498,276.4,498.8,277.9,498.8z M278.4,497.5c-0.8,0-1.3-0.3-1.3-1c0-0.7,0.6-1,1.4-1.1c0.5-0.1,1.4-0.2,1.7-0.4v0.9
	C280.1,496.8,279.4,497.5,278.4,497.5z M287.5,491H286v-1.8h-1.8v1.8h-1.1v1.4h1.1v4.2c0,1.4,1,2.1,2.4,2.1c0.5,0,0.9-0.1,1.1-0.2
	l-0.3-1.4c-0.1,0-0.3,0.1-0.5,0.1c-0.5,0-0.8-0.2-0.8-0.9v-3.9h1.5V491z M292.3,498.8c2.2,0,3.7-1.6,3.7-3.9c0-2.4-1.4-3.9-3.7-3.9
	c-2.2,0-3.7,1.6-3.7,3.9C288.6,497.2,290.1,498.8,292.3,498.8z M292.3,497.4c-1.2,0-1.8-1.1-1.8-2.5c0-1.4,0.6-2.5,1.8-2.5
	c1.2,0,1.8,1.1,1.8,2.5C294.1,496.3,293.5,497.4,292.3,497.4z M297.5,498.7h1.8v-4.5c0-1,0.7-1.7,1.7-1.7c0.3,0,0.7,0.1,0.8,0.1V491
	c-0.2,0-0.4-0.1-0.6-0.1c-0.9,0-1.6,0.5-1.9,1.4h-0.1V491h-1.7V498.7z"/>
<path class="st1" d="M265.6,464.4L265.6,464.4c0,2.2,0,4.3,0,6.4c0,0.3,0,0.6,0.1,1c0.2,0.7,0.5,1.4,0.9,2c0.8,1.1,1.7,2.1,2.9,2.8
	c0.5,0.4,1.1,0.7,1.7,0.9c0.4,0.1,0.9,0.1,1.3,0c0.6-0.2,1.1-0.4,1.6-0.8c0.9-0.6,1.7-1.3,2.4-2.1c0.5-0.6,1-1.3,1.3-2.1
	c0.2-0.6,0.4-1.1,0.4-1.7c0-2.1,0-4.2,0-6.2c0,0,0-0.1,0-0.1c0,0-0.1,0-0.1,0c-0.4-0.1-0.8-0.1-1.2-0.2c-0.7-0.1-1.5-0.4-2.2-0.6
	c-1-0.4-1.9-0.9-2.8-1.5c0,0-0.1,0-0.1,0c-0.4,0.2-0.8,0.5-1.2,0.7c-0.8,0.4-1.5,0.8-2.3,1c-0.7,0.2-1.5,0.4-2.2,0.5
	C265.9,464.3,265.8,464.4,265.6,464.4z M279.4,467.3v3.4c0,0.7-0.1,1.3-0.3,1.9c-0.2,0.6-0.6,1.3-0.9,1.8c-1,1.4-2.2,2.5-3.6,3.4
	c-0.5,0.3-1.1,0.6-1.7,0.7c-0.7,0.2-1.4,0.2-2-0.1c-1-0.3-1.9-0.9-2.7-1.6c-0.8-0.6-1.5-1.4-2.1-2.2c-0.5-0.7-1-1.5-1.2-2.4
	c-0.2-0.5-0.2-1-0.2-1.6c0-2.4,0-4.8,0-7.2c0-0.3,0.1-0.4,0.4-0.4c1.3,0,2.5-0.3,3.8-0.7c1.1-0.4,2.1-1,3.1-1.7
	c0.2-0.1,0.3-0.1,0.5,0c0.9,0.7,1.9,1.2,2.9,1.6c0.9,0.4,1.8,0.6,2.8,0.7c0.4,0,0.8,0.1,1.2,0.1c0.2,0,0.4,0.1,0.4,0.4
	C279.4,464.8,279.4,466.1,279.4,467.3L279.4,467.3z"/>
<path class="st1" d="M270.7,470.7C270.8,470.7,270.8,470.7,270.7,470.7c1.4-1.2,2.6-2.3,3.9-3.4c0.2-0.2,0.5-0.3,0.8-0.2
	c0.4,0.1,0.6,0.6,0.3,0.9c0,0-0.1,0.1-0.1,0.1c-1.5,1.3-2.9,2.5-4.4,3.8c-0.2,0.2-0.5,0.3-0.8,0.2c-0.1,0-0.2-0.1-0.3-0.2
	c-0.7-0.6-1.3-1.2-2-1.7c-0.3-0.2-0.3-0.6,0-0.9c0.3-0.2,0.7-0.2,1,0c0.5,0.4,1,0.8,1.5,1.3C270.7,470.7,270.7,470.7,270.7,470.7z"
	/>
<path class="st0" d="M197.4,448.6h-67c-5.5,0-10,4.5-10,10v49c0,5.5,4.5,10,10,10h67c5.5,0,10-4.5,10-10v-49
	C207.4,453.1,203,448.6,197.4,448.6z"/>
<path class="st1" d="M135.7,488.5h-2l3.6,10.2h2.3l3.6-10.2h-2l-2.6,8h-0.1L135.7,488.5z M145.7,498.8c1.2,0,1.9-0.6,2.2-1.2h0.1v1
	h1.7v-5.1c0-2-1.6-2.6-3.1-2.6c-1.6,0-2.8,0.7-3.2,2.1l1.7,0.2c0.2-0.5,0.7-1,1.6-1c0.8,0,1.3,0.4,1.3,1.2v0c0,0.5-0.5,0.5-1.9,0.7
	c-1.5,0.2-2.9,0.6-2.9,2.3C143.2,498,144.3,498.8,145.7,498.8z M146.2,497.5c-0.8,0-1.3-0.3-1.3-1c0-0.7,0.6-1,1.4-1.1
	c0.5-0.1,1.4-0.2,1.7-0.4v0.9C148,496.8,147.3,497.5,146.2,497.5z M153.4,488.5h-1.8v10.2h1.8V488.5z M155.2,498.7h1.8V491h-1.8
	V498.7z M156.1,490c0.6,0,1-0.4,1-1c0-0.5-0.5-1-1-1c-0.6,0-1,0.4-1,1C155.1,489.5,155.6,490,156.1,490z M161.7,498.8
	c1.3,0,1.9-0.8,2.2-1.3h0.1v1.2h1.8v-10.2H164v3.8h-0.1c-0.3-0.6-0.8-1.4-2.2-1.4c-1.8,0-3.2,1.4-3.2,3.9
	C158.6,497.4,159.9,498.8,161.7,498.8z M162.2,497.3c-1.2,0-1.8-1-1.8-2.5c0-1.4,0.6-2.4,1.8-2.4c1.2,0,1.8,1,1.8,2.4
	C164,496.3,163.4,497.3,162.2,497.3z M169.9,498.8c1.2,0,1.9-0.6,2.2-1.2h0.1v1h1.7v-5.1c0-2-1.6-2.6-3.1-2.6
	c-1.6,0-2.8,0.7-3.2,2.1l1.7,0.2c0.2-0.5,0.7-1,1.6-1c0.8,0,1.3,0.4,1.3,1.2v0c0,0.5-0.5,0.5-1.9,0.7c-1.5,0.2-2.9,0.6-2.9,2.3
	C167.3,498,168.4,498.8,169.9,498.8z M170.4,497.5c-0.8,0-1.3-0.3-1.3-1c0-0.7,0.6-1,1.4-1.1c0.5-0.1,1.4-0.2,1.7-0.4v0.9
	C172.1,496.8,171.4,497.5,170.4,497.5z M179.5,491H178v-1.8h-1.8v1.8h-1.1v1.4h1.1v4.2c0,1.4,1,2.1,2.4,2.1c0.5,0,0.9-0.1,1.1-0.2
	l-0.3-1.4c-0.1,0-0.3,0.1-0.5,0.1c-0.5,0-0.8-0.2-0.8-0.9v-3.9h1.5V491z M184.3,498.8c2.2,0,3.7-1.6,3.7-3.9c0-2.4-1.4-3.9-3.7-3.9
	c-2.2,0-3.7,1.6-3.7,3.9C180.6,497.2,182.1,498.8,184.3,498.8z M184.3,497.4c-1.2,0-1.8-1.1-1.8-2.5c0-1.4,0.6-2.5,1.8-2.5
	c1.2,0,1.8,1.1,1.8,2.5C186.1,496.3,185.5,497.4,184.3,497.4z M189.5,498.7h1.8v-4.5c0-1,0.7-1.7,1.7-1.7c0.3,0,0.7,0.1,0.8,0.1V491
	c-0.2,0-0.4-0.1-0.6-0.1c-0.9,0-1.6,0.5-1.9,1.4h-0.1V491h-1.7V498.7z"/>
<path class="st1" d="M157.6,464.4L157.6,464.4c0,2.2,0,4.3,0,6.4c0,0.3,0,0.6,0.1,1c0.2,0.7,0.5,1.4,0.9,2c0.8,1.1,1.7,2.1,2.9,2.8
	c0.5,0.4,1.1,0.7,1.7,0.9c0.4,0.1,0.9,0.1,1.3,0c0.6-0.2,1.1-0.4,1.6-0.8c0.9-0.6,1.7-1.3,2.4-2.1c0.5-0.6,1-1.3,1.3-2.1
	c0.2-0.6,0.4-1.1,0.4-1.7c0-2.1,0-4.2,0-6.2c0,0,0-0.1,0-0.1c0,0-0.1,0-0.1,0c-0.4-0.1-0.8-0.1-1.2-0.2c-0.7-0.1-1.5-0.4-2.2-0.6
	c-1-0.4-1.9-0.9-2.8-1.5c0,0-0.1,0-0.1,0c-0.4,0.2-0.8,0.5-1.2,0.7c-0.8,0.4-1.5,0.8-2.3,1c-0.7,0.2-1.5,0.4-2.2,0.5
	C157.9,464.3,157.8,464.4,157.6,464.4z M171.4,467.3v3.4c0,0.7-0.1,1.3-0.3,1.9c-0.2,0.6-0.6,1.3-0.9,1.8c-1,1.4-2.2,2.5-3.6,3.4
	c-0.5,0.3-1.1,0.6-1.7,0.7c-0.7,0.2-1.4,0.2-2-0.1c-1-0.3-1.9-0.9-2.7-1.6c-0.8-0.6-1.5-1.4-2.1-2.2c-0.5-0.7-1-1.5-1.2-2.4
	c-0.2-0.5-0.2-1-0.2-1.6c0-2.4,0-4.8,0-7.2c0-0.3,0.1-0.4,0.4-0.4c1.3,0,2.5-0.3,3.8-0.7c1.1-0.4,2.1-1,3.1-1.7
	c0.2-0.1,0.3-0.1,0.5,0c0.9,0.7,1.9,1.2,2.9,1.6c0.9,0.4,1.8,0.6,2.8,0.7c0.4,0,0.8,0.1,1.2,0.1c0.2,0,0.4,0.1,0.4,0.4
	C171.4,464.8,171.4,466.1,171.4,467.3L171.4,467.3z"/>
<path class="st1" d="M162.7,470.7C162.8,470.7,162.8,470.7,162.7,470.7c1.4-1.2,2.6-2.3,3.9-3.4c0.2-0.2,0.5-0.3,0.8-0.2
	c0.4,0.1,0.6,0.6,0.3,0.9c0,0-0.1,0.1-0.1,0.1c-1.5,1.3-2.9,2.5-4.4,3.8c-0.2,0.2-0.5,0.3-0.8,0.2c-0.1,0-0.2-0.1-0.3-0.2
	c-0.7-0.6-1.3-1.2-2-1.7c-0.3-0.2-0.3-0.6,0-0.9c0.3-0.2,0.7-0.2,1,0c0.5,0.4,1,0.8,1.5,1.3C162.7,470.7,162.7,470.7,162.7,470.7z"
	/>
<path class="st0" d="M527.9,300.1h-175c-5.5,0-10,4.5-10,10v91c0,5.5,4.5,10,10,10h175c5.5,0,10-4.5,10-10v-91
	C537.9,304.6,533.5,300.1,527.9,300.1z"/>
<path class="st1" d="M367.8,378.2c3.1,0,4.9-1.9,4.9-5.1c0-3.2-1.8-5.1-4.9-5.1h-3.5v10.2H367.8z M366.2,376.6v-7h1.6
	c2.1,0,3.1,1.2,3.1,3.5c0,2.3-1.1,3.5-3.2,3.5H366.2z M374.5,378.2h1.8v-7.6h-1.8V378.2z M375.4,369.5c0.6,0,1-0.4,1-1
	c0-0.5-0.5-1-1-1c-0.6,0-1,0.4-1,1C374.3,369.1,374.8,369.5,375.4,369.5z M384.1,372.6c-0.2-1.3-1.3-2.1-3.1-2.1
	c-1.8,0-3.1,0.9-3.1,2.3c0,1.1,0.7,1.8,2.1,2.2l1.3,0.3c0.7,0.2,1,0.4,1,0.9c0,0.5-0.6,0.9-1.4,0.9c-0.8,0-1.4-0.4-1.5-1l-1.8,0.2
	c0.2,1.4,1.4,2.2,3.3,2.2c1.9,0,3.3-1,3.3-2.4c0-1.1-0.7-1.8-2.1-2.1l-1.3-0.3c-0.8-0.2-1.1-0.4-1.1-0.9c0-0.5,0.6-0.9,1.3-0.9
	c0.8,0,1.3,0.5,1.4,1L384.1,372.6z M388,378.4c1.2,0,1.9-0.6,2.2-1.2h0.1v1h1.7v-5.1c0-2-1.6-2.6-3.1-2.6c-1.6,0-2.8,0.7-3.2,2.1
	l1.7,0.2c0.2-0.5,0.7-1,1.6-1c0.8,0,1.3,0.4,1.3,1.2v0c0,0.5-0.5,0.5-1.9,0.7c-1.5,0.2-2.9,0.6-2.9,2.3
	C385.4,377.6,386.5,378.4,388,378.4z M388.5,377c-0.8,0-1.3-0.3-1.3-1c0-0.7,0.6-1,1.4-1.1c0.5-0.1,1.4-0.2,1.7-0.4v0.9
	C390.2,376.3,389.5,377,388.5,377z M399.9,372.6c-0.2-1.3-1.3-2.1-3.1-2.1c-1.8,0-3.1,0.9-3.1,2.3c0,1.1,0.7,1.8,2.1,2.2l1.3,0.3
	c0.7,0.2,1,0.4,1,0.9c0,0.5-0.6,0.9-1.4,0.9c-0.8,0-1.4-0.4-1.5-1l-1.8,0.2c0.2,1.4,1.4,2.2,3.3,2.2c1.9,0,3.3-1,3.3-2.4
	c0-1.1-0.7-1.8-2.1-2.1l-1.3-0.3c-0.8-0.2-1.1-0.4-1.1-0.9c0-0.5,0.6-0.9,1.3-0.9c0.8,0,1.3,0.5,1.4,1L399.9,372.6z M405.3,370.6
	h-1.5v-1.8H402v1.8h-1.1v1.4h1.1v4.2c0,1.4,1,2.1,2.4,2.1c0.5,0,0.9-0.1,1.1-0.2l-0.3-1.4c-0.1,0-0.3,0.1-0.5,0.1
	c-0.5,0-0.8-0.2-0.8-0.9V372h1.5V370.6z M410.1,378.4c1.8,0,3-0.9,3.3-2.2l-1.7-0.2c-0.2,0.6-0.8,1-1.6,1c-1.2,0-1.9-0.8-1.9-2.1
	h5.3v-0.6c0-2.7-1.6-3.9-3.5-3.9c-2.2,0-3.6,1.6-3.6,4C406.4,376.8,407.8,378.4,410.1,378.4z M408.2,373.7c0.1-1,0.8-1.8,1.9-1.8
	c1,0,1.7,0.8,1.7,1.8H408.2z M415,378.2h1.8v-4.5c0-1,0.7-1.7,1.7-1.7c0.3,0,0.7,0.1,0.8,0.1v-1.7c-0.2,0-0.4-0.1-0.6-0.1
	c-0.9,0-1.6,0.5-1.9,1.4h-0.1v-1.3H415V378.2z M424.1,378.2h1.8v-3.7h1.9l2,3.7h2.1l-2.2-4c1.2-0.5,1.8-1.5,1.8-2.9
	c0-1.9-1.3-3.3-3.6-3.3h-3.8V378.2z M426,373v-3.4h1.7c1.4,0,2,0.6,2,1.7c0,1.1-0.6,1.7-2,1.7H426z M436.4,378.4
	c1.8,0,3-0.9,3.3-2.2l-1.7-0.2c-0.2,0.6-0.8,1-1.6,1c-1.2,0-1.9-0.8-1.9-2.1h5.3v-0.6c0-2.7-1.6-3.9-3.5-3.9c-2.2,0-3.6,1.6-3.6,4
	C432.7,376.8,434.1,378.4,436.4,378.4z M434.5,373.7c0.1-1,0.8-1.8,1.8-1.8c1,0,1.7,0.8,1.7,1.8H434.5z M444.7,378.4
	c1.9,0,3.1-1.1,3.3-2.8h-1.7c-0.2,0.8-0.7,1.3-1.5,1.3c-1.1,0-1.8-0.9-1.8-2.5c0-1.5,0.7-2.5,1.8-2.5c0.9,0,1.4,0.6,1.5,1.3h1.7
	c-0.1-1.7-1.4-2.7-3.3-2.7c-2.2,0-3.6,1.6-3.6,3.9C441,376.7,442.4,378.4,444.7,378.4z M452.8,378.4c2.2,0,3.7-1.6,3.7-3.9
	c0-2.4-1.4-3.9-3.7-3.9s-3.7,1.6-3.7,3.9C449.1,376.8,450.5,378.4,452.8,378.4z M452.8,376.9c-1.2,0-1.8-1.1-1.8-2.5
	c0-1.4,0.6-2.5,1.8-2.5c1.2,0,1.8,1.1,1.8,2.5C454.6,375.8,454,376.9,452.8,376.9z M464.5,370.6h-1.9l-1.8,5.7h-0.1l-1.8-5.7h-1.9
	l2.7,7.6h2L464.5,370.6z M468.9,378.4c1.8,0,3-0.9,3.3-2.2l-1.7-0.2c-0.2,0.6-0.8,1-1.6,1c-1.2,0-1.9-0.8-1.9-2.1h5.3v-0.6
	c0-2.7-1.6-3.9-3.5-3.9c-2.2,0-3.6,1.6-3.6,4C465.2,376.8,466.6,378.4,468.9,378.4z M467,373.7c0.1-1,0.8-1.8,1.8-1.8
	c1,0,1.7,0.8,1.7,1.8H467z M473.8,378.2h1.8v-4.5c0-1,0.7-1.7,1.7-1.7c0.3,0,0.7,0.1,0.8,0.1v-1.7c-0.2,0-0.4-0.1-0.6-0.1
	c-0.9,0-1.6,0.5-1.9,1.4h-0.1v-1.3h-1.7V378.2z M480.7,381.1c1.4,0,2.2-0.7,2.6-1.9l3.1-8.6l-1.9,0l-1.8,5.8h-0.1l-1.8-5.8H479
	l2.8,7.8l-0.2,0.4c-0.3,0.9-0.9,0.9-1.6,0.7l-0.4,1.4C479.8,381,480.2,381.1,480.7,381.1z M496.8,370.8h1.8c0-1.7-1.5-2.9-3.7-2.9
	c-2.1,0-3.7,1.2-3.7,3c0,1.5,1,2.3,2.7,2.7l1.2,0.3c1.1,0.3,1.8,0.6,1.8,1.4c0,0.9-0.8,1.5-2,1.5c-1.2,0-2-0.5-2.1-1.6h-1.8
	c0.1,2,1.6,3.2,4,3.2c2.4,0,3.9-1.2,3.9-3c0-1.8-1.5-2.6-3-2.9l-1-0.2c-0.8-0.2-1.7-0.6-1.7-1.4c0-0.8,0.7-1.3,1.8-1.3
	C495.9,369.5,496.7,370,496.8,370.8z M500.2,378.2h1.8v-7.6h-1.8V378.2z M501.1,369.5c0.6,0,1-0.4,1-1c0-0.5-0.5-1-1-1
	c-0.6,0-1,0.4-1,1C500.1,369.1,500.6,369.5,501.1,369.5z M507.7,370.6h-1.5v-1.8h-1.8v1.8h-1.1v1.4h1.1v4.2c0,1.4,1,2.1,2.4,2.1
	c0.5,0,0.9-0.1,1.1-0.2l-0.3-1.4c-0.1,0-0.3,0.1-0.5,0.1c-0.5,0-0.8-0.2-0.8-0.9V372h1.5V370.6z M512.5,378.4c1.8,0,3-0.9,3.3-2.2
	l-1.7-0.2c-0.2,0.6-0.8,1-1.6,1c-1.2,0-1.9-0.8-1.9-2.1h5.3v-0.6c0-2.7-1.6-3.9-3.5-3.9c-2.2,0-3.6,1.6-3.6,4
	C508.8,376.8,510.2,378.4,512.5,378.4z M510.6,373.7c0.1-1,0.8-1.8,1.8-1.8c1,0,1.7,0.8,1.7,1.8H510.6z"/>
<path class="st4" d="M442.4,324.6c-0.7,5.1-1.3,9.7-2,14.5c2.5-0.5,4.8-1,7.4-1.5c-4.2,5.7-8.2,11.1-12.5,17c0.7-4.9,1.4-9.3,2-13.8
	c-2.6,0.5-5.1,0.9-7.9,1.5C433.7,336.4,437.9,330.7,442.4,324.6z"/>
<path class="st0" d="M305.4,300.1h-175c-5.5,0-10,4.5-10,10v91c0,5.5,4.5,10,10,10h175c5.5,0,10-4.5,10-10v-91
	C315.4,304.6,311,300.1,305.4,300.1z"/>
<path class="st1" d="M179.8,368.6h1.8v-3.7h1.9l2,3.7h2.1l-2.2-4c1.2-0.5,1.8-1.5,1.8-2.9c0-1.9-1.3-3.3-3.6-3.3h-3.8V368.6z
	 M181.6,363.4V360h1.7c1.4,0,2,0.6,2,1.7c0,1.1-0.6,1.7-2,1.7H181.6z M192.1,368.8c1.8,0,3-0.9,3.3-2.2l-1.7-0.2
	c-0.2,0.6-0.8,1-1.6,1c-1.2,0-1.9-0.8-1.9-2.1h5.3v-0.6c0-2.7-1.6-3.9-3.5-3.9c-2.2,0-3.6,1.6-3.6,4
	C188.4,367.2,189.8,368.8,192.1,368.8z M190.2,364.1c0.1-1,0.8-1.8,1.8-1.8c1,0,1.7,0.8,1.7,1.8H190.2z M199.8,368.8
	c1.3,0,1.9-0.8,2.2-1.3h0.1v1.2h1.8v-10.2h-1.8v3.8H202c-0.3-0.6-0.8-1.4-2.2-1.4c-1.8,0-3.2,1.4-3.2,3.9
	C196.7,367.3,198,368.8,199.8,368.8z M200.3,367.3c-1.2,0-1.8-1-1.8-2.5c0-1.4,0.6-2.4,1.8-2.4c1.2,0,1.8,1,1.8,2.4
	C202.1,366.3,201.5,367.3,200.3,367.3z M210.7,365.4c0,1.2-0.8,1.7-1.6,1.7c-0.9,0-1.4-0.6-1.4-1.6V361h-1.8v4.9
	c0,1.8,1,2.9,2.5,2.9c1.1,0,1.9-0.6,2.3-1.5h0.1v1.4h1.7V361h-1.8V365.4z M216.1,364.1c0-1.1,0.7-1.7,1.6-1.7c0.9,0,1.5,0.6,1.5,1.6
	v4.6h1.8v-4.9c0-1.8-1-2.9-2.6-2.9c-1.1,0-1.9,0.5-2.3,1.4H216V361h-1.7v7.6h1.8V364.1z M225.7,368.8c1.3,0,1.9-0.8,2.2-1.3h0.1v1.2
	h1.8v-10.2H228v3.8h-0.1c-0.3-0.6-0.8-1.4-2.2-1.4c-1.8,0-3.2,1.4-3.2,3.9C222.5,367.3,223.9,368.8,225.7,368.8z M226.2,367.3
	c-1.2,0-1.8-1-1.8-2.5c0-1.4,0.6-2.4,1.8-2.4c1.2,0,1.8,1,1.8,2.4C228,366.3,227.3,367.3,226.2,367.3z M233.9,368.8
	c1.2,0,1.9-0.6,2.2-1.2h0.1v1h1.7v-5.1c0-2-1.6-2.6-3.1-2.6c-1.6,0-2.8,0.7-3.2,2.1l1.7,0.2c0.2-0.5,0.7-1,1.6-1
	c0.8,0,1.3,0.4,1.3,1.2v0c0,0.5-0.5,0.5-1.9,0.7c-1.5,0.2-2.9,0.6-2.9,2.3C231.3,368,232.4,368.8,233.9,368.8z M234.3,367.5
	c-0.8,0-1.3-0.3-1.3-1c0-0.7,0.6-1,1.4-1.1c0.5-0.1,1.4-0.2,1.7-0.4v0.9C236.1,366.7,235.4,367.5,234.3,367.5z M241.5,364.1
	c0-1.1,0.7-1.7,1.6-1.7c0.9,0,1.5,0.6,1.5,1.6v4.6h1.8v-4.9c0-1.8-1-2.9-2.6-2.9c-1.1,0-1.9,0.5-2.3,1.4h-0.1V361h-1.7v7.6h1.8
	V364.1z M252.1,361h-1.5v-1.8h-1.8v1.8h-1.1v1.4h1.1v4.2c0,1.4,1,2.1,2.4,2.1c0.5,0,0.9-0.1,1.1-0.2l-0.3-1.4
	c-0.1,0-0.3,0.1-0.5,0.1c-0.5,0-0.8-0.2-0.8-0.9v-3.9h1.5V361z M172.9,378.2h1.8c0-1.7-1.5-2.9-3.7-2.9c-2.1,0-3.7,1.2-3.7,3
	c0,1.5,1,2.3,2.7,2.7l1.2,0.3c1.1,0.3,1.8,0.6,1.8,1.4c0,0.9-0.8,1.5-2,1.5c-1.2,0-2-0.5-2.1-1.6H167c0.1,2,1.6,3.2,4,3.2
	c2.4,0,3.9-1.2,3.9-3c0-1.8-1.5-2.6-3-2.9l-1-0.2c-0.8-0.2-1.7-0.6-1.7-1.4c0-0.8,0.7-1.3,1.8-1.3
	C172.1,376.9,172.8,377.4,172.9,378.2z M178,385.6h1.9l1.4-5.2h0.1l1.4,5.2h1.9l2.2-7.6H185l-1.3,5.3h-0.1l-1.4-5.3h-1.8l-1.4,5.4
	H179l-1.3-5.4h-1.8L178,385.6z M188.1,385.6h1.8V378h-1.8V385.6z M189,376.9c0.6,0,1-0.4,1-1c0-0.5-0.5-1-1-1c-0.6,0-1,0.4-1,1
	C188,376.5,188.4,376.9,189,376.9z M195.6,378h-1.5v-1.8h-1.8v1.8h-1.1v1.4h1.1v4.2c0,1.4,1,2.1,2.4,2.1c0.5,0,0.9-0.1,1.1-0.2
	l-0.3-1.4c-0.1,0-0.3,0.1-0.5,0.1c-0.5,0-0.8-0.2-0.8-0.9v-3.9h1.5V378z M200.3,385.8c1.9,0,3.1-1.1,3.3-2.8h-1.7
	c-0.2,0.8-0.7,1.3-1.5,1.3c-1.1,0-1.8-0.9-1.8-2.5c0-1.5,0.7-2.5,1.8-2.5c0.9,0,1.4,0.6,1.5,1.3h1.7c-0.1-1.7-1.4-2.7-3.3-2.7
	c-2.2,0-3.6,1.6-3.6,3.9C196.7,384.1,198.1,385.8,200.3,385.8z M206.9,381.1c0-1.1,0.7-1.7,1.7-1.7c0.9,0,1.5,0.6,1.5,1.6v4.6h1.8
	v-4.9c0-1.8-1-2.9-2.6-2.9c-1.2,0-1.9,0.5-2.3,1.4h-0.1v-3.8h-1.8v10.2h1.8V381.1z M217.2,385.6h1.8v-3.7h1.9l2,3.7h2.1l-2.2-4
	c1.2-0.5,1.8-1.5,1.8-2.9c0-1.9-1.3-3.3-3.6-3.3h-3.8V385.6z M219.1,380.4V377h1.7c1.4,0,2,0.6,2,1.7c0,1.1-0.6,1.7-2,1.7H219.1z
	 M229.5,385.8c2.2,0,3.7-1.6,3.7-3.9c0-2.4-1.4-3.9-3.7-3.9s-3.7,1.6-3.7,3.9C225.8,384.2,227.2,385.8,229.5,385.8z M229.5,384.3
	c-1.2,0-1.8-1.1-1.8-2.5s0.6-2.5,1.8-2.5c1.2,0,1.8,1.1,1.8,2.5S230.7,384.3,229.5,384.3z M239.5,382.4c0,1.2-0.8,1.7-1.6,1.7
	c-0.9,0-1.4-0.6-1.4-1.6V378h-1.8v4.9c0,1.8,1,2.9,2.5,2.9c1.1,0,1.9-0.6,2.3-1.5h0.1v1.4h1.7V378h-1.8V382.4z M247,378h-1.5v-1.8
	h-1.8v1.8h-1.1v1.4h1.1v4.2c0,1.4,1,2.1,2.4,2.1c0.5,0,0.9-0.1,1.1-0.2l-0.3-1.4c-0.1,0-0.3,0.1-0.5,0.1c-0.5,0-0.8-0.2-0.8-0.9
	v-3.9h1.5V378z M248.5,385.6h1.8V378h-1.8V385.6z M249.4,376.9c0.6,0,1-0.4,1-1c0-0.5-0.5-1-1-1c-0.6,0-1,0.4-1,1
	C248.4,376.5,248.8,376.9,249.4,376.9z M253.9,381.1c0-1.1,0.7-1.7,1.6-1.7c0.9,0,1.5,0.6,1.5,1.6v4.6h1.8v-4.9c0-1.8-1-2.9-2.6-2.9
	c-1.1,0-1.9,0.5-2.3,1.4h-0.1V378h-1.7v7.6h1.8V381.1z M264,388.6c2.1,0,3.6-0.9,3.6-2.9V378h-1.8v1.3h-0.1
	c-0.3-0.6-0.8-1.4-2.2-1.4c-1.8,0-3.2,1.4-3.2,3.9c0,2.5,1.4,3.7,3.1,3.7c1.3,0,1.9-0.7,2.2-1.3h0.1v1.4c0,1.1-0.7,1.6-1.8,1.6
	c-1.1,0-1.6-0.5-1.8-1l-1.6,0.4C261,387.8,262,388.6,264,388.6z M264,384.1c-1.2,0-1.8-0.9-1.8-2.3c0-1.4,0.6-2.4,1.8-2.4
	c1.2,0,1.8,1,1.8,2.4C265.8,383.2,265.2,384.1,264,384.1z"/>
<path class="st3" d="M214.6,338.9h10.8v3.7l7.4-3.7l-7.4-3.7v3.7H214.6z"/>
<path class="st3" d="M214.6,322.9h10.8v3.7l7.4-3.7l-7.4-3.7v3.7H214.6z"/>
<path class="st3" d="M222.6,330.9h-10.8v3.7l-7.4-3.7l7.4-3.7v3.7H222.6z"/>
<path class="st0" d="M638.4,9.1h-175c-5.5,0-10,4.5-10,10v209c0,5.5,4.5,10,10,10h175c5.5,0,10-4.5,10-10v-209
	C648.4,13.6,644,9.1,638.4,9.1z"/>
<path class="st5" d="M620.4,155.1H474.9c-4.4,0-8,3.6-8,8v13c0,4.4,3.6,8,8,8h145.4c4.4,0,8-3.6,8-8v-13
	C628.4,158.7,624.8,155.1,620.4,155.1z"/>
<path class="st1" d="M511,173.6h1.1v-3.2h1.9c2,0,2.9-1.2,2.9-2.8s-0.9-2.8-3-2.8H511V173.6z M512.1,169.5v-3.7h1.9
	c1.4,0,2,0.8,2,1.8s-0.5,1.8-1.9,1.8H512.1z M522.6,170.9c0,1.2-0.9,1.8-1.7,1.8c-0.8,0-1.4-0.6-1.4-1.6v-4.1h-1v4.2
	c0,1.7,0.9,2.5,2.1,2.5c1,0,1.6-0.5,1.9-1.2h0.1v1.1h1v-6.5h-1V170.9z M525.6,173.6h1v-1h0.1c0.2,0.4,0.6,1.1,1.9,1.1
	c1.6,0,2.8-1.3,2.8-3.4c0-2.1-1.1-3.4-2.8-3.4c-1.3,0-1.7,0.8-1.9,1.1h-0.1v-3.2h-1V173.6z M526.6,170.3c0-1.5,0.6-2.5,1.9-2.5
	c1.3,0,1.9,1.1,1.9,2.5c0,1.4-0.6,2.5-1.9,2.5C527.2,172.9,526.6,171.8,526.6,170.3z M533.9,164.9h-1v8.7h1V164.9z M535.8,173.6h1
	v-6.5h-1V173.6z M536.3,166c0.4,0,0.7-0.3,0.7-0.7s-0.3-0.7-0.7-0.7c-0.4,0-0.7,0.3-0.7,0.7S535.9,166,536.3,166z M541.3,173.8
	c1.4,0,2.4-0.9,2.6-2h-1c-0.2,0.7-0.8,1.1-1.6,1.1c-1.2,0-2-1-2-2.5c0-1.5,0.8-2.5,2-2.5c0.9,0,1.4,0.5,1.6,1.1h1
	c-0.2-1.2-1.2-2-2.6-2c-1.8,0-2.9,1.4-2.9,3.4C538.3,172.3,539.4,173.8,541.3,173.8z M553.6,167.1h1c0-1.3-1.3-2.3-2.9-2.3
	c-1.7,0-3,1-3,2.4c0,1.2,0.9,1.9,2.2,2.3l1.1,0.3c0.9,0.3,1.7,0.6,1.7,1.4c0,1-0.9,1.6-2.1,1.6c-1,0-2-0.5-2-1.4h-1.1
	c0.1,1.4,1.3,2.4,3.1,2.4c2,0,3.2-1.1,3.2-2.5c0-1.6-1.6-2.2-2.5-2.4l-0.9-0.2c-0.6-0.2-1.7-0.5-1.7-1.4c0-0.8,0.8-1.4,1.9-1.4
	C552.7,165.7,553.5,166.2,553.6,167.1z M559.1,173.8c1.3,0,2.3-0.7,2.6-1.7l-1-0.3c-0.3,0.7-0.8,1-1.6,1c-1.2,0-2-0.8-2-2.2h4.8
	v-0.4c0-2.4-1.4-3.3-2.8-3.3c-1.8,0-2.9,1.4-2.9,3.4C556,172.4,557.2,173.8,559.1,173.8z M557,169.8c0.1-1,0.8-1.9,1.9-1.9
	c1.1,0,1.8,0.8,1.8,1.9H557z M564.3,169.7c0-1.1,0.7-1.8,1.7-1.8c0.9,0,1.5,0.6,1.5,1.6v4.1h1v-4.2c0-1.7-0.9-2.5-2.2-2.5
	c-1,0-1.6,0.4-1.9,1.1h-0.1v-1h-1v6.5h1V169.7z M573.2,167.1h-1.4v-1.6h-1v1.6h-1v0.9h1v4.1c0,1.1,0.9,1.7,1.8,1.7
	c0.4,0,0.6-0.1,0.8-0.1l-0.2-0.9c-0.1,0-0.2,0.1-0.4,0.1c-0.4,0-0.9-0.1-0.9-1v-3.8h1.4V167.1z M574.7,173.6h1v-4.1
	c0-0.9,0.7-1.5,1.7-1.5c0.3,0,0.5,0.1,0.6,0.1v-1c-0.1,0-0.4,0-0.5,0c-0.8,0-1.5,0.4-1.7,1.1h-0.1v-1h-1V173.6z M580,176.1
	c0.9,0,1.5-0.5,1.9-1.5l2.8-7.5l-1.1,0l-1.8,5.2h-0.1l-1.8-5.2h-1.1l2.4,6.6l-0.2,0.5c-0.4,1-0.8,1.1-1.6,0.9l-0.3,0.9
	C579.4,176,579.7,176.1,580,176.1z"/>
<path class="st5" d="M620.4,117.1H474.9c-4.4,0-8,3.6-8,8v13c0,4.4,3.6,8,8,8h145.4c4.4,0,8-3.6,8-8v-13
	C628.4,120.7,624.8,117.1,620.4,117.1z"/>
<path class="st1" d="M511,135.6h1.1v-3.2h1.9c2,0,2.9-1.2,2.9-2.8s-0.9-2.8-3-2.8H511V135.6z M512.1,131.5v-3.7h1.9
	c1.4,0,2,0.8,2,1.8s-0.5,1.8-1.9,1.8H512.1z M522.6,132.9c0,1.2-0.9,1.8-1.7,1.8c-0.8,0-1.4-0.6-1.4-1.6v-4.1h-1v4.2
	c0,1.7,0.9,2.5,2.1,2.5c1,0,1.6-0.5,1.9-1.2h0.1v1.1h1v-6.5h-1V132.9z M525.6,135.6h1v-1h0.1c0.2,0.4,0.6,1.1,1.9,1.1
	c1.6,0,2.8-1.3,2.8-3.4c0-2.1-1.1-3.4-2.8-3.4c-1.3,0-1.7,0.8-1.9,1.1h-0.1v-3.2h-1V135.6z M526.6,132.3c0-1.5,0.6-2.5,1.9-2.5
	c1.3,0,1.9,1.1,1.9,2.5c0,1.4-0.6,2.5-1.9,2.5C527.2,134.9,526.6,133.8,526.6,132.3z M533.9,126.9h-1v8.7h1V126.9z M535.8,135.6h1
	v-6.5h-1V135.6z M536.3,128c0.4,0,0.7-0.3,0.7-0.7s-0.3-0.7-0.7-0.7c-0.4,0-0.7,0.3-0.7,0.7S535.9,128,536.3,128z M541.3,135.8
	c1.4,0,2.4-0.9,2.6-2h-1c-0.2,0.7-0.8,1.1-1.6,1.1c-1.2,0-2-1-2-2.5c0-1.5,0.8-2.5,2-2.5c0.9,0,1.4,0.5,1.6,1.1h1
	c-0.2-1.2-1.2-2-2.6-2c-1.8,0-2.9,1.4-2.9,3.4C538.3,134.3,539.4,135.8,541.3,135.8z M553.6,129.1h1c0-1.3-1.3-2.3-2.9-2.3
	c-1.7,0-3,1-3,2.4c0,1.2,0.9,1.9,2.2,2.3l1.1,0.3c0.9,0.3,1.7,0.6,1.7,1.4c0,1-0.9,1.6-2.1,1.6c-1,0-2-0.5-2-1.4h-1.1
	c0.1,1.4,1.3,2.4,3.1,2.4c2,0,3.2-1.1,3.2-2.5c0-1.6-1.6-2.2-2.5-2.4l-0.9-0.2c-0.6-0.2-1.7-0.5-1.7-1.4c0-0.8,0.8-1.4,1.9-1.4
	C552.7,127.7,553.5,128.2,553.6,129.1z M559.1,135.8c1.3,0,2.3-0.7,2.6-1.7l-1-0.3c-0.3,0.7-0.8,1-1.6,1c-1.2,0-2-0.8-2-2.2h4.8
	v-0.4c0-2.4-1.4-3.3-2.8-3.3c-1.8,0-2.9,1.4-2.9,3.4C556,134.4,557.2,135.8,559.1,135.8z M557,131.8c0.1-1,0.8-1.9,1.9-1.9
	c1.1,0,1.8,0.8,1.8,1.9H557z M564.3,131.7c0-1.1,0.7-1.8,1.7-1.8c0.9,0,1.5,0.6,1.5,1.6v4.1h1v-4.2c0-1.7-0.9-2.5-2.2-2.5
	c-1,0-1.6,0.4-1.9,1.1h-0.1v-1h-1v6.5h1V131.7z M573.2,129.1h-1.4v-1.6h-1v1.6h-1v0.9h1v4.1c0,1.1,0.9,1.7,1.8,1.7
	c0.4,0,0.6-0.1,0.8-0.1l-0.2-0.9c-0.1,0-0.2,0.1-0.4,0.1c-0.4,0-0.9-0.1-0.9-1v-3.8h1.4V129.1z M574.7,135.6h1v-4.1
	c0-0.9,0.7-1.5,1.7-1.5c0.3,0,0.5,0.1,0.6,0.1v-1c-0.1,0-0.4,0-0.5,0c-0.8,0-1.5,0.4-1.7,1.1h-0.1v-1h-1V135.6z M580,138.1
	c0.9,0,1.5-0.5,1.9-1.5l2.8-7.5l-1.1,0l-1.8,5.2h-0.1l-1.8-5.2h-1.1l2.4,6.6l-0.2,0.5c-0.4,1-0.8,1.1-1.6,0.9l-0.3,0.9
	C579.4,138,579.7,138.1,580,138.1z"/>
<path class="st1" d="M520.7,90.9c-0.3-2.3-2.1-3.6-4.3-3.6c-2.7,0-4.7,1.9-4.7,5.2c0,3.3,2,5.2,4.7,5.2c2.4,0,4-1.6,4.3-3.5l-1.9,0
	c-0.2,1.2-1.2,1.9-2.4,1.9c-1.7,0-2.8-1.2-2.8-3.6c0-2.3,1.2-3.6,2.8-3.6c1.2,0,2.2,0.7,2.4,1.9H520.7z M524.2,87.4h-1.8v10.2h1.8
	V87.4z M529.3,97.8c2.2,0,3.7-1.6,3.7-3.9c0-2.4-1.4-3.9-3.7-3.9c-2.2,0-3.7,1.6-3.7,3.9C525.7,96.2,527.1,97.8,529.3,97.8z
	 M529.3,96.3c-1.2,0-1.8-1.1-1.8-2.5c0-1.4,0.6-2.5,1.8-2.5c1.2,0,1.8,1.1,1.8,2.5C531.2,95.2,530.6,96.3,529.3,96.3z M539.4,94.4
	c0,1.2-0.8,1.7-1.6,1.7c-0.9,0-1.4-0.6-1.4-1.6V90h-1.8v4.9c0,1.8,1,2.9,2.5,2.9c1.1,0,1.9-0.6,2.3-1.5h0.1v1.4h1.7V90h-1.8V94.4z
	 M545.9,97.8c1.3,0,1.9-0.8,2.2-1.3h0.1v1.2h1.8V87.4h-1.8v3.8h-0.1c-0.3-0.6-0.8-1.4-2.2-1.4c-1.8,0-3.2,1.4-3.2,3.9
	C542.7,96.3,544.1,97.8,545.9,97.8z M546.4,96.3c-1.2,0-1.8-1-1.8-2.5c0-1.4,0.6-2.4,1.8-2.4c1.2,0,1.8,1,1.8,2.4
	C548.2,95.3,547.5,96.3,546.4,96.3z M557.9,92c-0.2-1.3-1.3-2.1-3.1-2.1c-1.8,0-3.1,0.9-3.1,2.3c0,1.1,0.7,1.8,2.1,2.2l1.3,0.3
	c0.7,0.2,1,0.4,1,0.9c0,0.5-0.6,0.9-1.4,0.9c-0.8,0-1.4-0.4-1.5-1l-1.8,0.2c0.2,1.4,1.4,2.2,3.3,2.2c1.9,0,3.3-1,3.3-2.4
	c0-1.1-0.7-1.8-2.1-2.1l-1.3-0.3c-0.8-0.2-1.1-0.4-1.1-0.9c0-0.5,0.6-0.9,1.3-0.9c0.8,0,1.3,0.5,1.4,1L557.9,92z M571.8,90.9
	c-0.3-2.3-2.1-3.6-4.3-3.6c-2.7,0-4.7,1.9-4.7,5.2c0,3.3,2,5.2,4.7,5.2c2.4,0,4-1.6,4.3-3.5l-1.9,0c-0.2,1.2-1.2,1.9-2.4,1.9
	c-1.7,0-2.8-1.2-2.8-3.6c0-2.3,1.2-3.6,2.8-3.6c1.2,0,2.2,0.7,2.4,1.9H571.8z M574.6,97.7c0.6,0,1.1-0.5,1.1-1.1
	c0-0.6-0.5-1.1-1.1-1.1c-0.6,0-1.1,0.5-1.1,1.1C573.5,97.2,573.9,97.7,574.6,97.7z M578.2,97.7c0.6,0,1.1-0.5,1.1-1.1
	c0-0.6-0.5-1.1-1.1-1.1c-0.6,0-1.1,0.5-1.1,1.1C577.1,97.2,577.6,97.7,578.2,97.7z M581.8,97.7c0.6,0,1.1-0.5,1.1-1.1
	c0-0.6-0.5-1.1-1.1-1.1c-0.6,0-1.1,0.5-1.1,1.1C580.7,97.2,581.2,97.7,581.8,97.7z M584.8,97.6h1.8v-4.3h4.2v-1.5h-4.2V89h4.7v-1.5
	h-6.5V97.6z"/>
<path class="st1" d="M566.3,55.3c-0.1,0-0.3,0-0.4,0c-1.2-4.5-5.3-7.8-10.2-7.8c-3.6,0-6.7,1.8-8.7,4.5c-1.2-0.4-2.5-0.7-3.8-0.7
	c-6.4,0-11.5,5.2-11.5,11.6c-3.2,0-5.8,2.6-5.8,5.8c0,3.2,2.6,5.8,5.8,5.8h34.6h0c5.3,0,9.6-4.3,9.6-9.6
	C575.9,59.7,571.6,55.3,566.3,55.3z"/>
<path class="st0" d="M416.4,9.1h-175c-5.5,0-10,4.5-10,10v209c0,5.5,4.5,10,10,10h175c5.5,0,10-4.5,10-10v-209
	C426.4,13.6,422,9.1,416.4,9.1z"/>
<path class="st5" d="M400.9,155.1h-146c-4.4,0-8,3.6-8,8v26c0,4.4,3.6,8,8,8h146c4.4,0,8-3.6,8-8v-26
	C408.9,158.7,405.4,155.1,400.9,155.1z"/>
<path class="st1" d="M280.2,173.6c2.7,0,4.2-1.7,4.2-4.4c0-2.7-1.5-4.3-4-4.3h-2.8v8.7H280.2z M278.6,172.7v-6.9h1.7
	c2,0,3.1,1.3,3.1,3.4c0,2.1-1,3.4-3.2,3.4H278.6z M286,173.6h1v-6.5h-1V173.6z M286.6,166c0.4,0,0.7-0.3,0.7-0.7s-0.3-0.7-0.7-0.7
	c-0.4,0-0.7,0.3-0.7,0.7S286.2,166,286.6,166z M293.5,168.5c-0.3-0.9-1-1.6-2.3-1.6c-1.4,0-2.4,0.8-2.4,1.9c0,0.9,0.5,1.5,1.7,1.8
	l1.1,0.3c0.7,0.2,1,0.5,1,0.9c0,0.6-0.6,1-1.5,1c-0.8,0-1.3-0.4-1.5-1.1l-1,0.2c0.2,1.1,1.2,1.7,2.5,1.7c1.5,0,2.6-0.8,2.6-2
	c0-0.9-0.6-1.5-1.7-1.8l-1-0.2c-0.8-0.2-1.1-0.5-1.1-1c0-0.6,0.6-1,1.4-1c0.9,0,1.2,0.5,1.4,0.9L293.5,168.5z M297.1,173.8
	c1.1,0,1.7-0.6,1.9-1h0.1v0.9h1v-4.3c0-2.1-1.6-2.3-2.4-2.3c-1,0-2.1,0.3-2.6,1.5l1,0.3c0.2-0.5,0.7-1,1.7-1c0.9,0,1.4,0.5,1.4,1.3
	v0c0,0.5-0.5,0.4-1.7,0.6c-1.2,0.2-2.5,0.4-2.5,1.9C294.9,173,295.8,173.8,297.1,173.8z M297.2,172.9c-0.8,0-1.4-0.4-1.4-1.1
	c0-0.8,0.7-1,1.5-1.1c0.4-0.1,1.6-0.2,1.7-0.4v0.9C299.1,172.1,298.4,172.9,297.2,172.9z M306.6,168.5c-0.3-0.9-1-1.6-2.3-1.6
	c-1.4,0-2.4,0.8-2.4,1.9c0,0.9,0.5,1.5,1.7,1.8l1.1,0.3c0.7,0.2,1,0.5,1,0.9c0,0.6-0.6,1-1.5,1c-0.8,0-1.3-0.4-1.5-1.1l-1,0.2
	c0.2,1.1,1.2,1.7,2.5,1.7c1.5,0,2.6-0.8,2.6-2c0-0.9-0.6-1.5-1.7-1.8l-1-0.2c-0.8-0.2-1.1-0.5-1.1-1c0-0.6,0.6-1,1.4-1
	c0.9,0,1.2,0.5,1.4,0.9L306.6,168.5z M311,167.1h-1.4v-1.6h-1v1.6h-1v0.9h1v4.1c0,1.1,0.9,1.7,1.8,1.7c0.4,0,0.6-0.1,0.8-0.1
	l-0.2-0.9c-0.1,0-0.2,0.1-0.4,0.1c-0.4,0-0.9-0.1-0.9-1v-3.8h1.4V167.1z M315.2,173.8c1.3,0,2.3-0.7,2.6-1.7l-1-0.3
	c-0.3,0.7-0.8,1-1.6,1c-1.2,0-2-0.8-2-2.2h4.8v-0.4c0-2.4-1.4-3.3-2.8-3.3c-1.8,0-2.9,1.4-2.9,3.4
	C312.2,172.4,313.3,173.8,315.2,173.8z M313.2,169.8c0.1-1,0.8-1.9,1.9-1.9c1.1,0,1.8,0.8,1.8,1.9H313.2z M319.5,173.6h1v-4.1
	c0-0.9,0.7-1.5,1.7-1.5c0.3,0,0.5,0.1,0.6,0.1v-1c-0.1,0-0.4,0-0.5,0c-0.8,0-1.5,0.4-1.7,1.1h-0.1v-1h-1V173.6z M327.4,173.6h1.1
	v-3.4h1.9c0.1,0,0.1,0,0.2,0l1.8,3.4h1.2l-2-3.6c1.1-0.4,1.6-1.3,1.6-2.4c0-1.5-0.9-2.7-3-2.7h-2.9V173.6z M328.5,169.3v-3.4h1.9
	c1.4,0,2,0.7,2,1.7c0,1-0.5,1.7-1.9,1.7H328.5z M337.7,173.8c1.3,0,2.3-0.7,2.6-1.7l-1-0.3c-0.3,0.7-0.8,1-1.6,1c-1.2,0-2-0.8-2-2.2
	h4.8v-0.4c0-2.4-1.4-3.3-2.8-3.3c-1.8,0-2.9,1.4-2.9,3.4C334.6,172.4,335.8,173.8,337.7,173.8z M335.6,169.8c0.1-1,0.8-1.9,1.9-1.9
	c1.1,0,1.8,0.8,1.8,1.9H335.6z M344.6,173.8c1.4,0,2.4-0.9,2.6-2h-1c-0.2,0.7-0.8,1.1-1.6,1.1c-1.2,0-2-1-2-2.5c0-1.5,0.8-2.5,2-2.5
	c0.9,0,1.4,0.5,1.6,1.1h1c-0.2-1.2-1.2-2-2.6-2c-1.8,0-2.9,1.4-2.9,3.4C341.6,172.3,342.7,173.8,344.6,173.8z M351.3,173.8
	c1.8,0,3-1.3,3-3.4c0-2-1.2-3.4-3-3.4s-3,1.3-3,3.4C348.3,172.4,349.5,173.8,351.3,173.8z M351.3,172.9c-1.3,0-2-1.2-2-2.5
	c0-1.3,0.6-2.5,2-2.5c1.3,0,2,1.2,2,2.5C353.2,171.7,352.6,172.9,351.3,172.9z M360.9,167.1h-1.1l-1.8,5.2h-0.1l-1.8-5.2H355
	l2.4,6.5h1L360.9,167.1z M364.7,173.8c1.3,0,2.3-0.7,2.6-1.7l-1-0.3c-0.3,0.7-0.8,1-1.6,1c-1.2,0-2-0.8-2-2.2h4.8v-0.4
	c0-2.4-1.4-3.3-2.8-3.3c-1.8,0-2.9,1.4-2.9,3.4C361.7,172.4,362.8,173.8,364.7,173.8z M362.7,169.8c0.1-1,0.8-1.9,1.9-1.9
	c1.1,0,1.8,0.8,1.8,1.9H362.7z M369,173.6h1v-4.1c0-0.9,0.7-1.5,1.7-1.5c0.3,0,0.5,0.1,0.6,0.1v-1c-0.1,0-0.4,0-0.5,0
	c-0.8,0-1.5,0.4-1.7,1.1h-0.1v-1h-1V173.6z M374.3,176.1c0.9,0,1.5-0.5,1.9-1.5l2.8-7.5l-1.1,0l-1.8,5.2H376l-1.8-5.2h-1.1l2.4,6.6
	l-0.2,0.5c-0.4,1-0.8,1.1-1.6,0.9l-0.3,0.9C373.6,176,373.9,176.1,374.3,176.1z M301.2,179.9h-1.1l3.2,8.7h1.1l3.2-8.7h-1.1
	l-2.6,7.3h-0.1L301.2,179.9z M310.1,188.8c1.1,0,1.7-0.6,1.9-1h0.1v0.9h1v-4.3c0-2.1-1.6-2.3-2.4-2.3c-1,0-2.1,0.3-2.6,1.5l1,0.3
	c0.2-0.5,0.7-1,1.7-1c0.9,0,1.4,0.5,1.4,1.3v0c0,0.5-0.5,0.4-1.7,0.6c-1.2,0.2-2.5,0.4-2.5,1.9C307.9,188,308.9,188.8,310.1,188.8z
	 M310.3,187.9c-0.8,0-1.4-0.4-1.4-1.1c0-0.8,0.7-1,1.5-1.1c0.4-0.1,1.6-0.2,1.7-0.4v0.9C312.1,187.1,311.5,187.9,310.3,187.9z
	 M316,179.9h-1v8.7h1V179.9z M317.8,188.6h1v-6.5h-1V188.6z M318.3,181c0.4,0,0.7-0.3,0.7-0.7s-0.3-0.7-0.7-0.7
	c-0.4,0-0.7,0.3-0.7,0.7S317.9,181,318.3,181z M323.1,188.8c1.3,0,1.7-0.8,1.9-1.1h0.1v1h1v-8.7h-1v3.2H325
	c-0.2-0.3-0.6-1.1-1.9-1.1c-1.7,0-2.8,1.3-2.8,3.4C320.3,187.4,321.5,188.8,323.1,188.8z M323.2,187.9c-1.3,0-1.9-1.1-1.9-2.5
	c0-1.4,0.6-2.5,1.9-2.5c1.2,0,1.9,1,1.9,2.5C325.1,186.8,324.5,187.9,323.2,187.9z M330,188.8c1.1,0,1.7-0.6,1.9-1h0.1v0.9h1v-4.3
	c0-2.1-1.6-2.3-2.4-2.3c-1,0-2.1,0.3-2.6,1.5l1,0.3c0.2-0.5,0.7-1,1.7-1c0.9,0,1.4,0.5,1.4,1.3v0c0,0.5-0.5,0.4-1.7,0.6
	c-1.2,0.2-2.5,0.4-2.5,1.9C327.8,188,328.8,188.8,330,188.8z M330.2,187.9c-0.8,0-1.4-0.4-1.4-1.1c0-0.8,0.7-1,1.5-1.1
	c0.4-0.1,1.6-0.2,1.7-0.4v0.9C332,187.1,331.4,187.9,330.2,187.9z M337.7,182.1h-1.4v-1.6h-1v1.6h-1v0.9h1v4.1
	c0,1.1,0.9,1.7,1.8,1.7c0.4,0,0.6-0.1,0.8-0.1l-0.2-0.9c-0.1,0-0.2,0.1-0.4,0.1c-0.4,0-0.9-0.1-0.9-1v-3.8h1.4V182.1z M341.8,188.8
	c1.8,0,3-1.3,3-3.4c0-2-1.2-3.4-3-3.4c-1.8,0-3,1.3-3,3.4C338.8,187.4,340,188.8,341.8,188.8z M341.8,187.9c-1.3,0-2-1.2-2-2.5
	c0-1.3,0.6-2.5,2-2.5c1.3,0,2,1.2,2,2.5C343.8,186.7,343.1,187.9,341.8,187.9z M346.3,188.6h1v-4.1c0-0.9,0.7-1.5,1.7-1.5
	c0.3,0,0.5,0.1,0.6,0.1v-1c-0.1,0-0.4,0-0.5,0c-0.8,0-1.5,0.4-1.7,1.1h-0.1v-1h-1V188.6z M355.4,183.5c-0.3-0.9-1-1.6-2.3-1.6
	c-1.4,0-2.4,0.8-2.4,1.9c0,0.9,0.5,1.5,1.7,1.8l1.1,0.3c0.7,0.2,1,0.5,1,0.9c0,0.6-0.6,1-1.5,1c-0.8,0-1.3-0.4-1.5-1.1l-1,0.2
	c0.2,1.1,1.1,1.7,2.5,1.7c1.5,0,2.6-0.8,2.6-2c0-0.9-0.6-1.5-1.7-1.8l-1-0.2c-0.8-0.2-1.1-0.5-1.1-1c0-0.6,0.6-1,1.4-1
	c0.9,0,1.2,0.5,1.4,0.9L355.4,183.5z"/>
<path class="st5" d="M400.4,117.1H254.9c-4.4,0-8,3.6-8,8v13c0,4.4,3.6,8,8,8h145.4c4.4,0,8-3.6,8-8v-13
	C408.4,120.7,404.8,117.1,400.4,117.1z"/>
<path class="st1" d="M291,135.6h1.1v-3.2h1.9c2,0,2.9-1.2,2.9-2.8s-0.9-2.8-3-2.8H291V135.6z M292.1,131.5v-3.7h1.9
	c1.4,0,2,0.8,2,1.8s-0.5,1.8-1.9,1.8H292.1z M302.6,132.9c0,1.2-0.9,1.8-1.7,1.8c-0.8,0-1.4-0.6-1.4-1.6v-4.1h-1v4.2
	c0,1.7,0.9,2.5,2.1,2.5c1,0,1.6-0.5,1.9-1.2h0.1v1.1h1v-6.5h-1V132.9z M305.6,135.6h1v-1h0.1c0.2,0.4,0.6,1.1,1.9,1.1
	c1.6,0,2.8-1.3,2.8-3.4c0-2.1-1.1-3.4-2.8-3.4c-1.3,0-1.7,0.8-1.9,1.1h-0.1v-3.2h-1V135.6z M306.6,132.3c0-1.5,0.6-2.5,1.9-2.5
	c1.3,0,1.9,1.1,1.9,2.5c0,1.4-0.6,2.5-1.9,2.5C307.2,134.9,306.6,133.8,306.6,132.3z M313.9,126.9h-1v8.7h1V126.9z M315.8,135.6h1
	v-6.5h-1V135.6z M316.3,128c0.4,0,0.7-0.3,0.7-0.7s-0.3-0.7-0.7-0.7s-0.7,0.3-0.7,0.7S315.9,128,316.3,128z M321.3,135.8
	c1.4,0,2.4-0.9,2.6-2h-1c-0.2,0.7-0.8,1.1-1.6,1.1c-1.2,0-2-1-2-2.5c0-1.5,0.8-2.5,2-2.5c0.9,0,1.4,0.5,1.6,1.1h1
	c-0.2-1.2-1.2-2-2.6-2c-1.8,0-2.9,1.4-2.9,3.4C318.3,134.3,319.4,135.8,321.3,135.8z M333.6,129.1h1c0-1.3-1.3-2.3-2.9-2.3
	c-1.7,0-3,1-3,2.4c0,1.2,0.9,1.9,2.2,2.3l1.1,0.3c0.9,0.3,1.7,0.6,1.7,1.4c0,1-0.9,1.6-2.1,1.6c-1,0-2-0.5-2-1.4h-1.1
	c0.1,1.4,1.3,2.4,3.1,2.4c2,0,3.2-1.1,3.2-2.5c0-1.6-1.6-2.2-2.5-2.4l-0.9-0.2c-0.6-0.2-1.7-0.5-1.7-1.4c0-0.8,0.8-1.4,1.9-1.4
	C332.7,127.7,333.5,128.2,333.6,129.1z M339.1,135.8c1.3,0,2.3-0.7,2.6-1.7l-1-0.3c-0.3,0.7-0.8,1-1.6,1c-1.2,0-2-0.8-2-2.2h4.8
	v-0.4c0-2.4-1.4-3.3-2.8-3.3c-1.8,0-2.9,1.4-2.9,3.4C336,134.4,337.2,135.8,339.1,135.8z M337,131.8c0.1-1,0.8-1.9,1.9-1.9
	c1.1,0,1.8,0.8,1.8,1.9H337z M344.3,131.7c0-1.1,0.7-1.8,1.7-1.8c0.9,0,1.5,0.6,1.5,1.6v4.1h1v-4.2c0-1.7-0.9-2.5-2.2-2.5
	c-1,0-1.6,0.4-1.9,1.1h-0.1v-1h-1v6.5h1V131.7z M353.2,129.1h-1.4v-1.6h-1v1.6h-1v0.9h1v4.1c0,1.1,0.9,1.7,1.8,1.7
	c0.4,0,0.6-0.1,0.8-0.1l-0.2-0.9c-0.1,0-0.2,0.1-0.4,0.1c-0.4,0-0.9-0.1-0.9-1v-3.8h1.4V129.1z M354.7,135.6h1v-4.1
	c0-0.9,0.7-1.5,1.7-1.5c0.3,0,0.5,0.1,0.6,0.1v-1c-0.1,0-0.4,0-0.5,0c-0.8,0-1.5,0.4-1.7,1.1h-0.1v-1h-1V135.6z M360,138.1
	c0.9,0,1.5-0.5,1.9-1.5l2.8-7.5l-1.1,0l-1.8,5.2h-0.1l-1.8-5.2h-1.1l2.4,6.6l-0.2,0.5c-0.4,1-0.8,1.1-1.6,0.9l-0.3,0.9
	C359.4,138,359.7,138.1,360,138.1z"/>
<path class="st1" d="M258.4,90.7h1.9c-0.3-2-2-3.4-4.3-3.4c-2.7,0-4.7,2-4.7,5.2c0,3.2,1.9,5.2,4.7,5.2c2.5,0,4.3-1.6,4.3-4.2v-1.2
	h-4.1v1.4h2.3c0,1.5-1,2.4-2.5,2.4c-1.7,0-2.9-1.3-2.9-3.6c0-2.3,1.2-3.6,2.8-3.6C257.3,88.9,258.1,89.6,258.4,90.7z M265.4,97.7
	c2.2,0,3.7-1.6,3.7-3.9c0-2.4-1.4-3.9-3.7-3.9s-3.7,1.6-3.7,3.9C261.8,96.2,263.2,97.7,265.4,97.7z M265.5,96.3
	c-1.2,0-1.8-1.1-1.8-2.5s0.6-2.5,1.8-2.5c1.2,0,1.8,1.1,1.8,2.5S266.7,96.3,265.5,96.3z M274,97.7c2.2,0,3.7-1.6,3.7-3.9
	c0-2.4-1.4-3.9-3.7-3.9c-2.2,0-3.7,1.6-3.7,3.9C270.3,96.2,271.7,97.7,274,97.7z M274,96.3c-1.2,0-1.8-1.1-1.8-2.5s0.6-2.5,1.8-2.5
	c1.2,0,1.8,1.1,1.8,2.5S275.2,96.3,274,96.3z M282.5,100.6c2.1,0,3.6-0.9,3.6-2.9V90h-1.8v1.3h-0.1c-0.3-0.6-0.8-1.4-2.2-1.4
	c-1.8,0-3.2,1.4-3.2,3.9c0,2.5,1.4,3.7,3.1,3.7c1.3,0,1.9-0.7,2.2-1.3h0.1v1.4c0,1.1-0.7,1.6-1.8,1.6c-1.1,0-1.6-0.5-1.8-1l-1.6,0.4
	C279.4,99.8,280.5,100.6,282.5,100.6z M282.5,96.1c-1.2,0-1.8-0.9-1.8-2.3c0-1.4,0.6-2.4,1.8-2.4c1.2,0,1.8,1,1.8,2.4
	C284.3,95.2,283.6,96.1,282.5,96.1z M289.7,87.4h-1.8v10.2h1.8V87.4z M294.9,97.7c1.8,0,3-0.9,3.3-2.2l-1.7-0.2
	c-0.2,0.6-0.8,1-1.6,1c-1.2,0-1.9-0.8-1.9-2.1h5.3v-0.6c0-2.7-1.6-3.9-3.5-3.9c-2.2,0-3.6,1.6-3.6,4
	C291.2,96.2,292.6,97.7,294.9,97.7z M293,93c0.1-1,0.8-1.8,1.9-1.8c1,0,1.7,0.8,1.7,1.8H293z M312.1,90.8c-0.3-2.3-2.1-3.6-4.3-3.6
	c-2.7,0-4.7,1.9-4.7,5.2c0,3.3,2,5.2,4.7,5.2c2.4,0,4-1.6,4.3-3.5l-1.9,0c-0.2,1.2-1.2,1.9-2.4,1.9c-1.6,0-2.8-1.2-2.8-3.6
	c0-2.3,1.2-3.6,2.8-3.6c1.2,0,2.2,0.7,2.4,1.9H312.1z M315.5,87.4h-1.8v10.2h1.8V87.4z M320.7,97.7c2.2,0,3.7-1.6,3.7-3.9
	c0-2.4-1.4-3.9-3.7-3.9s-3.7,1.6-3.7,3.9C317.1,96.2,318.5,97.7,320.7,97.7z M320.7,96.3c-1.2,0-1.8-1.1-1.8-2.5s0.6-2.5,1.8-2.5
	c1.2,0,1.8,1.1,1.8,2.5S321.9,96.3,320.7,96.3z M330.8,94.4c0,1.2-0.8,1.7-1.6,1.7c-0.9,0-1.4-0.6-1.4-1.6V90h-1.8v4.9
	c0,1.8,1,2.9,2.5,2.9c1.1,0,1.9-0.6,2.3-1.5h0.1v1.4h1.7V90h-1.8V94.4z M337.2,97.7c1.3,0,1.9-0.8,2.2-1.3h0.1v1.2h1.8V87.4h-1.8
	v3.8h-0.1c-0.3-0.6-0.8-1.4-2.2-1.4c-1.8,0-3.2,1.4-3.2,3.9C334.1,96.3,335.4,97.7,337.2,97.7z M337.8,96.2c-1.2,0-1.8-1-1.8-2.5
	c0-1.4,0.6-2.4,1.8-2.4c1.2,0,1.8,1,1.8,2.4C339.5,95.3,338.9,96.2,337.8,96.2z M346.8,97.6h1.8v-3.4h1.9c2.4,0,3.6-1.4,3.6-3.4
	c0-1.9-1.2-3.4-3.6-3.4h-3.8V97.6z M348.6,92.6v-3.7h1.7c1.4,0,2,0.7,2,1.8s-0.6,1.9-2,1.9H348.6z M357.5,87.4h-1.8v10.2h1.8V87.4z
	 M361.6,97.7c1.2,0,1.9-0.6,2.2-1.2h0.1v1h1.7v-5.1c0-2-1.6-2.6-3.1-2.6c-1.6,0-2.8,0.7-3.2,2.1l1.7,0.2c0.2-0.5,0.7-1,1.6-1
	c0.8,0,1.3,0.4,1.3,1.2v0c0,0.5-0.5,0.5-1.9,0.7c-1.5,0.2-2.9,0.6-2.9,2.3C359,96.9,360.1,97.7,361.6,97.7z M362,96.4
	c-0.8,0-1.3-0.3-1.3-1c0-0.7,0.6-1,1.4-1.1c0.5-0.1,1.4-0.2,1.7-0.4v0.9C363.8,95.7,363.1,96.4,362,96.4z M371.2,90h-1.5v-1.8h-1.8
	V90h-1.1v1.4h1.1v4.2c0,1.4,1,2.1,2.4,2.1c0.5,0,0.9-0.1,1.1-0.2l-0.3-1.4c-0.1,0-0.3,0.1-0.5,0.1c-0.5,0-0.8-0.2-0.8-0.9v-3.9h1.5
	V90z M376.6,90H375v-0.6c0-0.6,0.2-0.9,0.9-0.9c0.3,0,0.5,0.1,0.7,0.1l0.4-1.4c-0.2-0.1-0.7-0.2-1.4-0.2c-1.3,0-2.4,0.8-2.4,2.3V90
	h-1.1v1.4h1.1v6.2h1.8v-6.2h1.6V90z M381,97.7c2.2,0,3.7-1.6,3.7-3.9c0-2.4-1.4-3.9-3.7-3.9s-3.7,1.6-3.7,3.9
	C377.4,96.2,378.8,97.7,381,97.7z M381.1,96.3c-1.2,0-1.8-1.1-1.8-2.5s0.6-2.5,1.8-2.5c1.2,0,1.8,1.1,1.8,2.5S382.3,96.3,381.1,96.3
	z M386.2,97.6h1.8v-4.5c0-1,0.7-1.7,1.7-1.7c0.3,0,0.7,0.1,0.8,0.1v-1.7c-0.2,0-0.4,0-0.6,0c-0.9,0-1.6,0.5-1.9,1.4H388V90h-1.7
	V97.6z M391.8,97.6h1.8v-4.6c0-0.9,0.6-1.6,1.4-1.6c0.8,0,1.3,0.5,1.3,1.3v4.9h1.8v-4.8c0-0.9,0.5-1.5,1.4-1.5
	c0.7,0,1.3,0.4,1.3,1.4v4.8h1.8v-5.1c0-1.7-1-2.6-2.4-2.6c-1.1,0-2,0.5-2.3,1.4h-0.1c-0.3-0.9-1-1.4-2.1-1.4c-1,0-1.8,0.5-2.1,1.4
	h-0.1V90h-1.7V97.6z"/>
<path class="st1" d="M335.2,52.1l3.3-3.3l0.2-1.4c-6-5.5-15.6-4.9-21,1.3c-1.5,1.7-2.6,3.8-3.2,6l1.2-0.2l6.6-1.1l0.5-0.5
	c2.9-3.2,7.9-3.7,11.3-0.9L335.2,52.1z"/>
<path class="st1" d="M343.2,54.6c-0.8-2.8-2.3-5.3-4.5-7.2l-4.6,4.6c2,1.6,3.1,4,3,6.5v0.8c2.3,0,4.1,1.8,4.1,4.1
	c0,2.3-1.8,4.1-4.1,4.1h-8.3l-0.8,0.9v4.9l0.8,0.8h8.3c5.9,0,10.8-4.7,10.8-10.6C348,60,346.2,56.6,343.2,54.6z"/>
<path class="st1" d="M320.6,74.2h8.3v-6.6h-8.3c-0.6,0-1.2-0.1-1.7-0.4l-1.2,0.4l-3.3,3.3l-0.3,1.1C316,73.4,318.3,74.2,320.6,74.2z
	"/>
<path class="st1" d="M320.6,52.7c-5.9,0-10.7,4.9-10.7,10.8c0,3.3,1.6,6.4,4.2,8.4l4.8-4.8c-2.1-0.9-3-3.4-2.1-5.5
	c0.9-2.1,3.4-3,5.5-2.1c0.9,0.4,1.6,1.1,2.1,2.1l4.8-4.8C327.1,54.3,324,52.7,320.6,52.7z"/>
<path class="st0" d="M194.4,9.1h-175c-5.5,0-10,4.5-10,10v209c0,5.5,4.5,10,10,10h175c5.5,0,10-4.5,10-10v-209
	C204.4,13.6,200,9.1,194.4,9.1z"/>
<path class="st5" d="M179.4,117.1H33.9c-4.4,0-8,3.6-8,8v13c0,4.4,3.6,8,8,8h145.4c4.4,0,8-3.6,8-8v-13
	C187.4,120.7,183.8,117.1,179.4,117.1z"/>
<path class="st1" d="M67,135.6h1.1v-3.2H70c2,0,2.9-1.2,2.9-2.8s-0.9-2.8-3-2.8H67V135.6z M68.1,131.5v-3.7h1.9c1.4,0,2,0.8,2,1.8
	s-0.5,1.8-1.9,1.8H68.1z M74.5,135.6h1v-4.1c0-0.9,0.7-1.5,1.7-1.5c0.3,0,0.5,0.1,0.6,0.1v-1c-0.1,0-0.4,0-0.5,0
	c-0.8,0-1.5,0.4-1.7,1.1h-0.1v-1h-1V135.6z M78.9,135.6h1v-6.5h-1V135.6z M79.5,128c0.4,0,0.7-0.3,0.7-0.7s-0.3-0.7-0.7-0.7
	c-0.4,0-0.7,0.3-0.7,0.7S79.1,128,79.5,128z M87.1,129.1h-1.1l-1.8,5.2h-0.1l-1.8-5.2h-1.1l2.4,6.5h1L87.1,129.1z M90.2,135.8
	c1.1,0,1.7-0.6,1.9-1h0.1v0.9h1v-4.3c0-2.1-1.6-2.3-2.4-2.3c-1,0-2.1,0.3-2.6,1.5l1,0.3c0.2-0.5,0.7-1,1.7-1c0.9,0,1.4,0.5,1.4,1.3
	v0c0,0.5-0.5,0.4-1.7,0.6c-1.2,0.2-2.5,0.4-2.5,1.9C88,135,89,135.8,90.2,135.8z M90.4,134.9c-0.8,0-1.4-0.4-1.4-1.1
	c0-0.8,0.7-1,1.5-1.1c0.4-0.1,1.6-0.2,1.7-0.4v0.9C92.2,134.1,91.5,134.9,90.4,134.9z M97.9,129.1h-1.4v-1.6h-1v1.6h-1v0.9h1v4.1
	c0,1.1,0.9,1.7,1.8,1.7c0.4,0,0.6-0.1,0.8-0.1l-0.2-0.9c-0.1,0-0.2,0.1-0.4,0.1c-0.4,0-0.9-0.1-0.9-1v-3.8h1.4V129.1z M102.1,135.8
	c1.3,0,2.3-0.7,2.6-1.7l-1-0.3c-0.3,0.7-0.8,1-1.6,1c-1.2,0-2-0.8-2-2.2h4.8v-0.4c0-2.4-1.4-3.3-2.8-3.3c-1.8,0-2.9,1.4-2.9,3.4
	C99,134.4,100.2,135.8,102.1,135.8z M100,131.8c0.1-1,0.8-1.9,1.9-1.9c1.1,0,1.8,0.8,1.8,1.9H100z M114.6,129.1h1
	c0-1.3-1.3-2.3-2.9-2.3c-1.7,0-3,1-3,2.4c0,1.2,0.9,1.9,2.2,2.3l1.1,0.3c0.9,0.3,1.7,0.6,1.7,1.4c0,1-0.9,1.6-2.1,1.6
	c-1,0-2-0.5-2-1.4h-1.1c0.1,1.4,1.3,2.4,3.1,2.4c2,0,3.2-1.1,3.2-2.5c0-1.6-1.6-2.2-2.5-2.4l-0.9-0.2c-0.6-0.2-1.7-0.5-1.7-1.4
	c0-0.8,0.8-1.4,1.9-1.4C113.7,127.7,114.5,128.2,114.6,129.1z M120.1,135.8c1.3,0,2.3-0.7,2.6-1.7l-1-0.3c-0.3,0.7-0.8,1-1.6,1
	c-1.2,0-2-0.8-2-2.2h4.8v-0.4c0-2.4-1.4-3.3-2.8-3.3c-1.8,0-2.9,1.4-2.9,3.4C117,134.4,118.2,135.8,120.1,135.8z M118,131.8
	c0.1-1,0.8-1.9,1.9-1.9c1.1,0,1.8,0.8,1.8,1.9H118z M125.3,131.7c0-1.1,0.7-1.8,1.7-1.8c0.9,0,1.5,0.6,1.5,1.6v4.1h1v-4.2
	c0-1.7-0.9-2.5-2.2-2.5c-1,0-1.6,0.4-1.9,1.1h-0.1v-1h-1v6.5h1V131.7z M134.2,129.1h-1.4v-1.6h-1v1.6h-1v0.9h1v4.1
	c0,1.1,0.9,1.7,1.8,1.7c0.4,0,0.6-0.1,0.8-0.1l-0.2-0.9c-0.1,0-0.2,0.1-0.4,0.1c-0.4,0-0.9-0.1-0.9-1v-3.8h1.4V129.1z M135.7,135.6
	h1v-4.1c0-0.9,0.7-1.5,1.7-1.5c0.3,0,0.5,0.1,0.6,0.1v-1c-0.1,0-0.4,0-0.5,0c-0.8,0-1.5,0.4-1.7,1.1h-0.1v-1h-1V135.6z M141,138.1
	c0.9,0,1.5-0.5,1.9-1.5l2.8-7.5l-1.1,0l-1.8,5.2h-0.1l-1.8-5.2h-1.1l2.4,6.6l-0.2,0.5c-0.4,1-0.8,1.1-1.6,0.9l-0.3,0.9
	C140.4,138,140.7,138.1,141,138.1z"/>
<path class="st1" d="M33.1,97.6l0.8-2.5h3.8l0.8,2.5h2L37,87.4h-2.3l-3.6,10.2H33.1z M34.5,93.6l1.4-4.1h0.1l1.4,4.1H34.5z
	 M41.9,97.6h1.8v-4.6c0-0.9,0.6-1.6,1.4-1.6c0.8,0,1.3,0.5,1.3,1.3v4.9h1.8v-4.8c0-0.9,0.5-1.5,1.4-1.5c0.7,0,1.3,0.4,1.3,1.4v4.8
	h1.8v-5.1c0-1.7-1-2.6-2.4-2.6c-1.1,0-2,0.5-2.3,1.4h-0.1c-0.3-0.9-1-1.4-2.1-1.4c-1,0-1.8,0.5-2.1,1.4h-0.1V90h-1.7V97.6z
	 M56.6,97.7c1.2,0,1.9-0.6,2.2-1.2h0.1v1h1.7v-5.1c0-2-1.6-2.6-3.1-2.6c-1.6,0-2.8,0.7-3.2,2.1l1.7,0.2c0.2-0.5,0.7-1,1.6-1
	c0.8,0,1.3,0.4,1.3,1.2v0c0,0.5-0.5,0.5-1.9,0.7c-1.5,0.2-2.9,0.6-2.9,2.3C54.1,96.9,55.2,97.7,56.6,97.7z M57.1,96.4
	c-0.8,0-1.3-0.3-1.3-1c0-0.7,0.6-1,1.4-1.1c0.5-0.1,1.4-0.2,1.7-0.4v0.9C58.9,95.7,58.2,96.4,57.1,96.4z M62.4,97.6h6.3v-1.5h-3.9
	V96l3.7-4.9V90h-6v1.5h3.8v0.1l-3.9,4.9V97.6z M73.4,97.7c2.2,0,3.7-1.6,3.7-3.9c0-2.4-1.4-3.9-3.7-3.9c-2.2,0-3.7,1.6-3.7,3.9
	C69.8,96.2,71.2,97.7,73.4,97.7z M73.4,96.3c-1.2,0-1.8-1.1-1.8-2.5s0.6-2.5,1.8-2.5c1.2,0,1.8,1.1,1.8,2.5S74.7,96.3,73.4,96.3z
	 M80.4,93.1c0-1.1,0.7-1.7,1.6-1.7c0.9,0,1.5,0.6,1.5,1.6v4.6h1.8v-4.9c0-1.8-1-2.9-2.6-2.9c-1.1,0-1.9,0.5-2.3,1.4h-0.1V90h-1.7
	v7.6h1.8V93.1z M92.8,97.6h1.8l2-7.1h0.1l2,7.1h1.8l2.9-10.2h-2l-1.8,7.5h-0.1l-2-7.5h-1.8l-2,7.5h-0.1L92,87.4h-2L92.8,97.6z
	 M107.3,97.7c1.8,0,3-0.9,3.3-2.2l-1.7-0.2c-0.2,0.6-0.8,1-1.6,1c-1.2,0-1.9-0.8-1.9-2.1h5.3v-0.6c0-2.7-1.6-3.9-3.5-3.9
	c-2.2,0-3.6,1.6-3.6,4C103.6,96.2,105,97.7,107.3,97.7z M105.4,93c0.1-1,0.8-1.8,1.8-1.8c1,0,1.7,0.8,1.7,1.8H105.4z M112.3,97.6
	h1.8v-1.2h0.1c0.3,0.6,0.9,1.3,2.2,1.3c1.8,0,3.1-1.4,3.1-3.9c0-2.5-1.4-3.9-3.2-3.9c-1.3,0-1.9,0.8-2.2,1.4h-0.1v-3.8h-1.8V97.6z
	 M114.1,93.8c0-1.5,0.6-2.4,1.8-2.4c1.2,0,1.8,1,1.8,2.4c0,1.4-0.6,2.5-1.8,2.5C114.7,96.2,114.1,95.3,114.1,93.8z M130.1,90.2h1.8
	c0-1.7-1.5-2.9-3.7-2.9c-2.1,0-3.7,1.2-3.7,3c0,1.5,1,2.3,2.7,2.7l1.2,0.3c1.1,0.3,1.8,0.6,1.8,1.4c0,0.9-0.8,1.5-2,1.5
	c-1.2,0-2-0.5-2.1-1.6h-1.8c0.1,2,1.6,3.2,4,3.2c2.4,0,3.9-1.2,3.9-3c0-1.8-1.5-2.6-3-2.9l-1-0.2c-0.8-0.2-1.7-0.6-1.7-1.4
	c0-0.8,0.7-1.3,1.8-1.3C129.3,88.8,130.1,89.3,130.1,90.2z M137,97.7c1.8,0,3-0.9,3.3-2.2l-1.7-0.2c-0.2,0.6-0.8,1-1.6,1
	c-1.2,0-1.9-0.8-1.9-2.1h5.3v-0.6c0-2.7-1.6-3.9-3.5-3.9c-2.2,0-3.6,1.6-3.6,4C133.3,96.2,134.7,97.7,137,97.7z M135.1,93
	c0.1-1,0.8-1.8,1.9-1.8c1,0,1.7,0.8,1.7,1.8H135.1z M141.9,97.6h1.8v-4.5c0-1,0.7-1.7,1.7-1.7c0.3,0,0.7,0.1,0.8,0.1v-1.7
	c-0.2,0-0.4,0-0.6,0c-0.9,0-1.6,0.5-1.9,1.4h-0.1V90h-1.7V97.6z M154.5,90h-1.9l-1.8,5.7h-0.1L149,90h-1.9l2.7,7.6h2L154.5,90z
	 M155.8,97.6h1.8V90h-1.8V97.6z M156.7,88.9c0.6,0,1-0.4,1-1c0-0.5-0.5-1-1-1c-0.6,0-1,0.4-1,1C155.6,88.4,156.1,88.9,156.7,88.9z
	 M162.8,97.7c1.9,0,3.1-1.1,3.3-2.8h-1.7c-0.2,0.8-0.7,1.3-1.5,1.3c-1.1,0-1.8-0.9-1.8-2.5c0-1.5,0.7-2.5,1.8-2.5
	c0.9,0,1.4,0.6,1.5,1.3h1.7c-0.1-1.7-1.4-2.7-3.3-2.7c-2.2,0-3.6,1.6-3.6,3.9C159.1,96.1,160.5,97.7,162.8,97.7z M170.9,97.7
	c1.8,0,3-0.9,3.3-2.2l-1.7-0.2c-0.2,0.6-0.8,1-1.6,1c-1.2,0-1.9-0.8-1.9-2.1h5.3v-0.6c0-2.7-1.6-3.9-3.5-3.9c-2.2,0-3.6,1.6-3.6,4
	C167.2,96.2,168.6,97.7,170.9,97.7z M169,93c0.1-1,0.8-1.8,1.8-1.8c1,0,1.7,0.8,1.7,1.8H169z M181.8,92c-0.2-1.3-1.3-2.1-3.1-2.1
	c-1.8,0-3.1,0.9-3.1,2.3c0,1.1,0.7,1.8,2.1,2.2l1.3,0.3c0.7,0.2,1,0.4,1,0.9c0,0.5-0.6,0.9-1.4,0.9c-0.8,0-1.4-0.4-1.5-1l-1.8,0.2
	c0.2,1.4,1.4,2.2,3.3,2.2c1.9,0,3.3-1,3.3-2.4c0-1.1-0.7-1.8-2.1-2.1l-1.3-0.3c-0.8-0.2-1.1-0.4-1.1-0.9c0-0.5,0.6-0.9,1.3-0.9
	c0.8,0,1.3,0.5,1.4,1L181.8,92z"/>
<path class="st1" d="M96.5,55.8c0,0.6,0.1,1,0.2,1.4c0.1,0.3,0.3,0.7,0.5,1.1c0.1,0.1,0.1,0.2,0.1,0.4c0,0.2-0.1,0.3-0.3,0.5l-1,0.7
	c-0.1,0.1-0.3,0.1-0.4,0.1c-0.2,0-0.3-0.1-0.5-0.2c-0.2-0.2-0.4-0.5-0.6-0.7c-0.2-0.3-0.3-0.6-0.5-0.9c-1.2,1.4-2.7,2.1-4.6,2.1
	c-1.3,0-2.3-0.4-3.1-1.1c-0.8-0.7-1.2-1.7-1.2-3c0-1.3,0.5-2.4,1.4-3.2c0.9-0.8,2.2-1.2,3.8-1.2c0.5,0,1.1,0,1.6,0.1
	c0.6,0.1,1.2,0.2,1.8,0.3V51c0-1.2-0.2-2-0.7-2.5c-0.5-0.5-1.3-0.7-2.5-0.7c-0.5,0-1.1,0.1-1.7,0.2c-0.6,0.1-1.1,0.3-1.7,0.5
	c-0.2,0.1-0.4,0.2-0.5,0.2c-0.1,0-0.2,0-0.2,0c-0.2,0-0.3-0.2-0.3-0.5v-0.8c0-0.2,0-0.4,0.1-0.5c0.1-0.1,0.2-0.2,0.4-0.3
	c0.5-0.3,1.2-0.5,2-0.7c0.8-0.2,1.6-0.3,2.4-0.3c1.9,0,3.2,0.4,4.1,1.3c0.9,0.8,1.3,2.1,1.3,3.8L96.5,55.8L96.5,55.8z M90.1,58.1
	c0.5,0,1-0.1,1.6-0.3c0.6-0.2,1.1-0.5,1.5-1c0.2-0.3,0.4-0.6,0.5-1c0.1-0.4,0.2-0.8,0.2-1.4v-0.7c-0.5-0.1-0.9-0.2-1.4-0.3
	s-1-0.1-1.5-0.1c-1,0-1.8,0.2-2.3,0.6c-0.5,0.4-0.8,1-0.8,1.8c0,0.7,0.2,1.3,0.6,1.6C88.9,58,89.4,58.1,90.1,58.1z M102.6,59.8
	c-0.3,0-0.5,0-0.6-0.2c-0.1-0.1-0.2-0.3-0.3-0.6l-3.7-12c-0.1-0.3-0.1-0.5-0.1-0.6c0-0.2,0.1-0.4,0.4-0.4h1.5c0.3,0,0.5,0,0.6,0.2
	c0.1,0.1,0.2,0.3,0.3,0.6l2.6,10.3l2.4-10.3c0.1-0.3,0.2-0.5,0.3-0.6c0.1-0.1,0.3-0.2,0.6-0.2h1.2c0.3,0,0.5,0,0.6,0.2
	c0.1,0.1,0.2,0.3,0.3,0.6l2.5,10.4l2.7-10.4c0.1-0.3,0.2-0.5,0.3-0.6c0.1-0.1,0.3-0.2,0.6-0.2h1.4c0.2,0,0.4,0.1,0.4,0.4
	c0,0.1,0,0.2,0,0.2c0,0.1,0,0.2-0.1,0.4l-3.7,12c-0.1,0.3-0.2,0.5-0.3,0.6c-0.1,0.1-0.3,0.2-0.6,0.2h-1.3c-0.3,0-0.5,0-0.6-0.2
	c-0.1-0.1-0.2-0.3-0.3-0.6l-2.4-10l-2.4,10c-0.1,0.3-0.2,0.5-0.3,0.6c-0.1,0.1-0.3,0.2-0.6,0.2H102.6z M122.6,60.2
	c-0.8,0-1.6-0.1-2.4-0.3c-0.8-0.2-1.4-0.4-1.8-0.6c-0.2-0.1-0.4-0.3-0.5-0.4c-0.1-0.1-0.1-0.3-0.1-0.4v-0.8c0-0.3,0.1-0.5,0.4-0.5
	c0.1,0,0.2,0,0.3,0c0.1,0,0.2,0.1,0.4,0.2c0.5,0.2,1.1,0.4,1.7,0.5c0.6,0.1,1.2,0.2,1.9,0.2c1,0,1.7-0.2,2.3-0.5
	c0.5-0.3,0.8-0.8,0.8-1.5c0-0.4-0.1-0.8-0.4-1.1c-0.3-0.3-0.8-0.6-1.6-0.8l-2.3-0.7c-1.1-0.4-2-0.9-2.5-1.6
	c-0.5-0.7-0.8-1.4-0.8-2.3c0-0.7,0.1-1.2,0.4-1.7c0.3-0.5,0.7-0.9,1.1-1.3c0.5-0.4,1-0.6,1.6-0.8c0.6-0.2,1.3-0.3,2-0.3
	c0.3,0,0.7,0,1,0.1c0.4,0,0.7,0.1,1,0.2c0.3,0.1,0.6,0.2,0.9,0.2c0.3,0.1,0.5,0.2,0.7,0.3c0.2,0.1,0.4,0.2,0.5,0.4
	c0.1,0.1,0.1,0.3,0.1,0.5V48c0,0.3-0.1,0.5-0.4,0.5c-0.1,0-0.3-0.1-0.6-0.2c-0.9-0.4-1.9-0.6-3-0.6c-0.9,0-1.6,0.1-2.1,0.4
	c-0.5,0.3-0.7,0.7-0.7,1.4c0,0.4,0.2,0.8,0.5,1.1c0.3,0.3,0.9,0.6,1.7,0.9l2.2,0.7c1.1,0.4,1.9,0.9,2.4,1.5c0.5,0.6,0.7,1.4,0.7,2.2
	c0,0.7-0.1,1.3-0.4,1.8c-0.3,0.5-0.7,1-1.1,1.4c-0.5,0.4-1.1,0.7-1.7,0.9C124.1,60.1,123.4,60.2,122.6,60.2z"/>
<path class="st1" d="M125.6,67.8c-5.1,3.8-12.6,5.8-18.9,5.8c-9,0-17-3.3-23.1-8.8c-0.5-0.4,0-1,0.5-0.7c6.6,3.8,14.7,6.1,23.1,6.1
	c5.7,0,11.9-1.2,17.7-3.6C125.7,66.2,126.4,67.2,125.6,67.8z M127.7,65.4c-0.7-0.8-4.3-0.4-6-0.2c-0.5,0.1-0.6-0.4-0.1-0.7
	c2.9-2.1,7.7-1.5,8.3-0.8c0.6,0.7-0.2,5.5-2.9,7.8c-0.4,0.4-0.8,0.2-0.6-0.3C127,69.7,128.3,66.2,127.7,65.4z"/>
<path class="st6" d="M163.9,518.1v36.6"/>
<path class="st6" d="M247.4,517.8l-83.5,37"/>
<path class="st6" d="M271.9,518.1v36.6"/>
<path class="st6" d="M185.4,517.8l86.5,37"/>
<path class="st6" d="M439.7,515.5v39.2"/>
<path class="st7" d="M436.4,517.8c0,1.9,1.6,3.5,3.5,3.5s3.5-1.6,3.5-3.5s-1.6-3.5-3.5-3.5S436.4,515.8,436.4,517.8z"/>
<path class="st8" d="M167.9,522.1h-8l4-4L167.9,522.1z"/>
<path class="st8" d="M189.5,515.5l-3.8,7.1l-1.7-5.4L189.5,515.5z"/>
<path class="st8" d="M275.9,522.1h-8l4-4L275.9,522.1z"/>
<path class="st8" d="M247.1,522.6l-3.8-7.1l5.4,1.7L247.1,522.6z"/>
<path class="st7" d="M436.4,554.7c0,1.9,1.6,3.5,3.5,3.5s3.5-1.6,3.5-3.5s-1.6-3.5-3.5-3.5S436.4,552.8,436.4,554.7z"/>
<path class="st7" d="M268.4,554.7c0,1.9,1.6,3.5,3.5,3.5s3.5-1.6,3.5-3.5s-1.6-3.5-3.5-3.5S268.4,552.8,268.4,554.7z"/>
<path class="st7" d="M160.4,554.7c0,1.9,1.6,3.5,3.5,3.5s3.5-1.6,3.5-3.5s-1.6-3.5-3.5-3.5S160.4,552.8,160.4,554.7z"/>
<path class="st6" d="M163.9,411.5v36.6"/>
<path class="st8" d="M167.9,415.1h-8l4-4L167.9,415.1z"/>
<path class="st6" d="M271.9,411.5v36.6"/>
<path class="st8" d="M275.9,415.1h-8l4-4L275.9,415.1z"/>
<path class="st6" d="M439.7,411.5v36.6"/>
<path class="st8" d="M443.7,415.1h-8l4-4L443.7,415.1z"/>
<path class="st8" d="M167.9,444.1h-8l4,4L167.9,444.1z"/>
<path class="st8" d="M275.9,444.1h-8l4,4L275.9,444.1z"/>
<path class="st8" d="M217.4,298.6v0.5h1v-0.5v-8.4c0-5.8-4.7-10.5-10.5-10.5h0l0,0.5c0-0.5,0-0.5,0-0.5h0h0h-0.1l-0.3,0l-1.1,0
	l-4.3,0c-3.7,0-9.1,0-15.6,0.1c-2.7,0-5.5,0-8.6,0v1c3,0,5.9,0,8.6,0c6.5,0,11.8,0,15.6-0.1l4.3,0l1.1,0l0.3,0h0.1h0h0c0,0,0,0,0,0
	c0,0,0,0,0,0v0c5.2,0,9.5,4.2,9.5,9.5V298.6z M89.9,281.1v-1c-15.7,0-27.7,0.1-31.3,0.1c-3.4,0-5.7-0.3-7.4-0.9
	c-1.6-0.6-2.6-1.6-3.2-2.9c-0.6-1.4-0.8-3.2-0.9-5.6c0-1.4,0-3,0-4.7c0-1.2,0-2.6,0-4v-22.5v-0.5h-1v0.5v22.5c0,1.4,0,2.7,0,4v0
	c0,1.8,0,3.4,0,4.8c0.1,2.4,0.3,4.4,1,5.9c0.7,1.6,1.9,2.7,3.7,3.4c1.8,0.7,4.3,1,7.7,1C62.2,281.2,74.2,281.2,89.9,281.1z"/>
<path class="st6" d="M217.9,290.7c0-5.5,4.5-10,10-10c0,0,21.1,0,30,0s12-6.7,12-18.6v-24.5"/>
<path class="st8" d="M440.4,299.1h-1v-4h1V299.1z M440.4,293.1h-1v-4h1V293.1z M440.4,287.1h-1v-4h1V287.1z M440.4,281.1h-1v-4h1
	V281.1z M440.4,275.1h-1v-4h1V275.1z M439.4,269.2l-0.1-0.5c-0.2-0.9-0.4-1.8-0.9-2.7l-0.2-0.4l0.9-0.4l0.2,0.4c0.5,0.9,0.8,1.9,1,3
	l0.1,0.5L439.4,269.2z M437.2,264l-0.3-0.4c-0.7-0.7-1.4-1.3-2.2-1.7l-0.4-0.2l0.5-0.9l0.4,0.2c0.9,0.5,1.8,1.2,2.5,1.9l0.3,0.4
	L437.2,264z M122,261.2l0-1l4,0l0,1L122,261.2z M128.1,261.2l0-1l4,0l0,1L128.1,261.2z M134.1,261.2l0-1l4,0l0,1L134.1,261.2z
	 M140.1,261.2l0-1l4,0l0,1L140.1,261.2z M120,261.2l-0.5,0c-1.1-0.1-2.1-0.2-3-0.3l-0.5-0.1l0.2-1l0.5,0.1c0.9,0.1,1.8,0.2,2.9,0.3
	l0.5,0L120,261.2z M146.1,261.2l0-1l4,0l0,1L146.1,261.2z M152.1,261.2l0-1l4,0l0,1L152.1,261.2z M158.1,261.2l0-1l4,0l0,1
	L158.1,261.2z M164.1,261.2l0-1l4,0l0,1L164.1,261.2z M170.1,261.2l0-1l4,0l0,1L170.1,261.2z M176.2,261.2l0-1l4,0l0,1L176.2,261.2z
	 M182.2,261.1l0-1l4,0l0,1L182.2,261.1z M188.2,261.1l0-1l4,0l0,1L188.2,261.1z M194.2,261.1l0-1l4,0l0,1L194.2,261.1z M200.2,261.1
	l0-1l4,0l0,1L200.2,261.1z M206.2,261.1l0-1l4,0l0,1L206.2,261.1z M212.2,261.1l0-1l4,0l0,1L212.2,261.1z M218.2,261.1l0-1l4,0l0,1
	L218.2,261.1z M224.2,261.1l0-1l4,0l0,1L224.2,261.1z M230.2,261.1l0-1l4,0l0,1L230.2,261.1z M236.2,261.1l0-1l4,0l0,1L236.2,261.1z
	 M432.4,261.1l-0.5-0.1c-0.6-0.1-1.3-0.2-2-0.2l-1.4,0l0-1l1.4,0c0.7,0,1.5,0.1,2.2,0.2l0.5,0.1L432.4,261.1z M242.2,261.1l0-1l4,0
	l0,1L242.2,261.1z M248.2,261l0-1l4,0l0,1L248.2,261z M254.2,261l0-1l4,0l0,1L254.2,261z M260.2,261l0-1l4,0l0,1L260.2,261z
	 M266.2,261l0-1l4,0l0,1L266.2,261z M272.2,261l0-1l4,0l0,1L272.2,261z M278.2,261l0-1l4,0l0,1L278.2,261z M284.3,261l0-1l4,0l0,1
	L284.3,261z M290.3,261l0-1l4,0l0,1L290.3,261z M296.3,261l0-1l4,0l0,1L296.3,261z M302.3,261l0-1l4,0l0,1L302.3,261z M308.3,260.9
	l0-1l4,0l0,1L308.3,260.9z M314.3,260.9l0-1l4,0l0,1L314.3,260.9z M320.3,260.9l0-1l4,0l0,1L320.3,260.9z M326.3,260.9l0-1l4,0l0,1
	L326.3,260.9z M332.3,260.9l0-1l4,0l0,1L332.3,260.9z M338.3,260.9l0-1l4,0l0,1L338.3,260.9z M344.3,260.9l0-1l4,0l0,1L344.3,260.9z
	 M350.3,260.9l0-1l4,0l0.1,1L350.3,260.9z M356.3,260.9l0-1l3.9,0l0.1,1L356.3,260.9z M362.3,260.9l0-1l3.9,0l0.1,1L362.3,260.9z
	 M368.3,260.8l0-1l3.9,0l0.1,1L368.3,260.8z M374.3,260.8l0-1l3.9,0l0.1,1L374.3,260.8z M380.3,260.8l0-1l4,0l0,1L380.3,260.8z
	 M386.3,260.8l0-1l4,0l0,1L386.3,260.8z M392.3,260.8l0-1l4,0l0,1L392.3,260.8z M398.4,260.8l0-1l4,0l0,1L398.4,260.8z M404.4,260.8
	l0-1l4,0l0,1L404.4,260.8z M410.4,260.8l0-1l4,0l0,1L410.4,260.8z M416.4,260.8l0-1l4,0l0,1L416.4,260.8z M422.4,260.8l0-1l4,0l0,1
	L422.4,260.8z M113.9,260.2l-0.5-0.2c-1.1-0.5-1.9-1.1-2.5-2l-0.3-0.4l0.8-0.6l0.3,0.4c0.5,0.7,1.2,1.2,2.1,1.7l0.5,0.2L113.9,260.2
	z M109.8,255.6l-0.1-0.5c-0.2-0.8-0.3-1.8-0.4-3.1l0-0.5l1-0.1l0,0.5c0.1,1.2,0.2,2.1,0.4,2.9l0.1,0.5L109.8,255.6z M110.2,249.6
	l-1,0l0-0.5c0-0.9,0-1.8,0-2.8l0-0.7l1,0l0,0.7c0,1,0,1.9,0,2.8L110.2,249.6z M110.3,243.6l-1,0l0-1.9h1L110.3,243.6z"/>
<path class="st8" d="M440.4,271.2h-1v-0.5c0-1.1,0.2-2.1,0.5-3.1l0.1-0.5l1,0.3l-0.1,0.5c-0.3,0.9-0.4,1.9-0.4,2.8V271.2z
	 M441.8,265.8l-0.8-0.6l0.3-0.4c0.6-0.9,1.3-1.6,2.1-2.3l0.4-0.3l0.6,0.8l-0.4,0.3c-0.7,0.6-1.4,1.3-1.9,2.1L441.8,265.8z
	 M446,262.1l-0.4-0.9l0.5-0.2c1-0.4,2-0.6,3.1-0.7l0.5,0l0.1,1l-0.5,0c-1,0.1-1.9,0.3-2.8,0.6L446,262.1z M538.9,261.2H536v-1h2.9
	c0.2,0,0.4,0,0.6,0l0.5,0l0,1l-0.5,0C539.3,261.2,539.1,261.2,538.9,261.2z M534,261.2h-4v-1h4V261.2z M527.9,261.2h-4v-1h4V261.2z
	 M521.9,261.2h-4v-1h4V261.2z M515.9,261.2h-4v-1h4V261.2z M509.9,261.2h-4v-1h4V261.2z M503.9,261.2h-4v-1h4V261.2z M497.9,261.2
	h-4v-1h4V261.2z M491.9,261.2h-4v-1h4V261.2z M485.9,261.2h-4v-1h4V261.2z M479.8,261.2h-4v-1h4V261.2z M473.8,261.2h-4v-1h4V261.2z
	 M467.8,261.2h-4v-1h4V261.2z M461.8,261.2h-4v-1h4V261.2z M455.8,261.2h-4v-1h4V261.2z M542.1,260.9l-0.3-1l0.5-0.1
	c0.9-0.3,1.8-0.6,2.6-1.1l0.4-0.3l0.5,0.8l-0.4,0.3c-0.9,0.6-1.8,1-2.9,1.3L542.1,260.9z M547.5,257.8l-0.8-0.6l0.3-0.4
	c0.6-0.7,1.1-1.5,1.5-2.5l0.2-0.5l0.9,0.4l-0.2,0.5c-0.5,1-1,1.9-1.6,2.7L547.5,257.8z M550.3,252.3l-1-0.3l0.1-0.5
	c0.2-0.9,0.4-1.9,0.6-2.9l0.1-0.5l1,0.1l-0.1,0.5c-0.2,1.1-0.4,2.1-0.6,3L550.3,252.3z M551.3,246.3l-1-0.1l0-0.5
	c0.1-0.9,0.1-1.9,0.1-3l0-0.5l1,0l0,0.5c0,1.1,0,2.1-0.1,3L551.3,246.3z"/>
<path class="st8" d="M346.6,261.2h-0.5c-1.1,0-2.1,0-3-0.1l-0.5,0l0.1-1l0.5,0c0.9,0.1,1.9,0.1,3,0.1h0.5V261.2z M340.5,260.8
	l-0.5-0.1c-1.1-0.2-2.1-0.6-2.9-1l-0.4-0.2l0.4-0.9l0.4,0.2c0.8,0.4,1.7,0.7,2.7,0.9l0.5,0.1L340.5,260.8z M334.9,258.2l-0.3-0.4
	c-0.7-0.7-1.3-1.6-1.7-2.7l-0.2-0.5l0.9-0.4l0.2,0.5c0.4,0.9,0.9,1.7,1.5,2.4l0.3,0.4L334.9,258.2z M332,252.7l-0.1-0.5
	c-0.2-0.9-0.3-1.9-0.4-3l0-0.5l1-0.1l0,0.5c0.1,1.1,0.2,2.1,0.3,2.9l0.1,0.5L332,252.7z M331.5,246.6l0-0.5c0-1,0-2,0-3l0-0.5l1,0
	l0,0.5c0,1,0,2,0,3l0,0.5L331.5,246.6z"/>
<path class="st7" d="M436.4,449.1c0,1.9,1.6,3.5,3.5,3.5s3.5-1.6,3.5-3.5s-1.6-3.5-3.5-3.5S436.4,447.2,436.4,449.1z"/>
<path class="st7" d="M43.4,238.1c0,1.9,1.6,3.5,3.5,3.5s3.5-1.6,3.5-3.5s-1.6-3.5-3.5-3.5S43.4,236.2,43.4,238.1z"/>
<path class="st7" d="M296.4,300.1c0,1.9-1.6,3.5-3.5,3.5s-3.5-1.6-3.5-3.5s1.6-3.5,3.5-3.5S296.4,298.2,296.4,300.1z"/>
<path class="st7" d="M586.4,238.1c0,1.9-1.6,3.5-3.5,3.5s-3.5-1.6-3.5-3.5s1.6-3.5,3.5-3.5S586.4,236.2,586.4,238.1z"/>
<path class="st7" d="M266.4,238.1c0,1.9,1.6,3.5,3.5,3.5s3.5-1.6,3.5-3.5s-1.6-3.5-3.5-3.5S266.4,236.2,266.4,238.1z"/>
<path class="st7" d="M214.4,300.1c0,1.9,1.6,3.5,3.5,3.5s3.5-1.6,3.5-3.5s-1.6-3.5-3.5-3.5S214.4,298.2,214.4,300.1z"/>
<path class="st7" d="M443.4,300.1c0-1.9-1.6-3.5-3.5-3.5s-3.5,1.6-3.5,3.5s1.6,3.5,3.5,3.5S443.4,302.1,443.4,300.1z"/>
<path class="st8" d="M335.9,242.1h-8l4-4L335.9,242.1z"/>
<path class="st8" d="M554.9,242.6h-8l4-4L554.9,242.6z"/>
<path class="st8" d="M113.8,242.1h-8l4-4L113.8,242.1z"/>
<path class="st1" d="M428.9,247.6h-1l2.9,8h1l2.9-8h-1l-2.4,6.7h-0.1L428.9,247.6z M436,255.6h1v-2.9h1.8c1.9,0,2.7-1.1,2.7-2.5
	s-0.8-2.5-2.7-2.5H436V255.6z M437,251.8v-3.4h1.7c1.3,0,1.8,0.7,1.8,1.7s-0.5,1.7-1.8,1.7H437z M449.4,247.6h-1v6.3h-0.1l-4.4-6.3
	H443v8h1v-6.3h0.1l4.4,6.3h0.9V247.6z"/>
<path class="st1" d="M98.4,284.6c2.4,0,3.8-1.5,3.8-4c0-2.5-1.4-4-3.7-4h-2.6v8H98.4z M96.9,283.8v-6.3h1.5c1.9,0,2.8,1.2,2.8,3.1
	c0,2-1,3.2-2.9,3.2H96.9z M103.7,284.6h0.9v-6h-0.9V284.6z M104.2,277.6c0.4,0,0.7-0.3,0.7-0.6s-0.3-0.6-0.7-0.6s-0.7,0.3-0.7,0.6
	S103.8,277.6,104.2,277.6z M106.3,284.6h0.9v-3.8c0-0.8,0.6-1.4,1.5-1.4c0.2,0,0.5,0,0.6,0.1v-0.9c-0.1,0-0.3,0-0.5,0
	c-0.7,0-1.3,0.4-1.6,1h-0.1v-0.9h-0.9V284.6z M112.7,284.7c1.2,0,2.1-0.6,2.4-1.5l-0.9-0.2c-0.2,0.6-0.8,0.9-1.5,0.9
	c-1.1,0-1.8-0.7-1.9-2h4.4v-0.4c0-2.2-1.3-3-2.6-3c-1.6,0-2.7,1.3-2.7,3.1S111,284.7,112.7,284.7z M110.9,281.1
	c0.1-0.9,0.7-1.8,1.8-1.8c1,0,1.6,0.8,1.6,1.8H110.9z M119.1,284.7c1.3,0,2.2-0.8,2.4-1.9h-0.9c-0.2,0.7-0.7,1-1.4,1
	c-1.1,0-1.8-0.9-1.8-2.3c0-1.4,0.7-2.2,1.8-2.2c0.8,0,1.3,0.5,1.4,1h0.9c-0.2-1.1-1.1-1.9-2.4-1.9c-1.6,0-2.7,1.3-2.7,3.1
	C116.3,283.4,117.4,284.7,119.1,284.7z M125.4,278.6h-1.3v-1.4h-0.9v1.4h-0.9v0.8h0.9v3.8c0,1,0.8,1.5,1.6,1.5
	c0.3,0,0.6-0.1,0.7-0.1l-0.2-0.8c-0.1,0-0.2,0-0.4,0c-0.4,0-0.8-0.1-0.8-0.9v-3.5h1.3V278.6z M136.4,279.1c-0.3-1.6-1.6-2.6-3.2-2.6
	c-2,0-3.5,1.6-3.5,4.1s1.5,4.1,3.5,4.1c1.6,0,2.9-1,3.2-2.6h-1c-0.2,1.1-1.2,1.7-2.2,1.7c-1.5,0-2.6-1.1-2.6-3.2s1.1-3.2,2.6-3.2
	c1.1,0,2,0.6,2.2,1.7H136.4z M140.3,284.7c1.6,0,2.7-1.2,2.7-3.1c0-1.9-1.1-3.1-2.7-3.1s-2.7,1.2-2.7,3.1
	C137.6,283.5,138.7,284.7,140.3,284.7z M140.3,283.9c-1.2,0-1.8-1.1-1.8-2.3s0.6-2.3,1.8-2.3c1.2,0,1.8,1.1,1.8,2.3
	S141.5,283.9,140.3,283.9z M145.3,281c0-1,0.6-1.6,1.5-1.6c0.9,0,1.4,0.6,1.4,1.5v3.8h0.9v-3.8c0-1.5-0.8-2.3-2-2.3
	c-0.9,0-1.5,0.4-1.8,1h-0.1v-0.9h-0.9v6h0.9V281z M151.8,281c0-1,0.6-1.6,1.5-1.6c0.9,0,1.4,0.6,1.4,1.5v3.8h0.9v-3.8
	c0-1.5-0.8-2.3-2-2.3c-0.9,0-1.5,0.4-1.8,1h-0.1v-0.9h-0.9v6h0.9V281z M159.8,284.7c1.2,0,2.1-0.6,2.4-1.5l-0.9-0.2
	c-0.2,0.6-0.8,0.9-1.5,0.9c-1.1,0-1.8-0.7-1.9-2h4.4v-0.4c0-2.2-1.3-3-2.6-3c-1.6,0-2.7,1.3-2.7,3.1S158.1,284.7,159.8,284.7z
	 M157.9,281.1c0.1-0.9,0.7-1.8,1.8-1.8c1,0,1.6,0.8,1.6,1.8H157.9z M166.1,284.7c1.3,0,2.2-0.8,2.4-1.9h-0.9c-0.2,0.7-0.7,1-1.4,1
	c-1.1,0-1.8-0.9-1.8-2.3c0-1.4,0.7-2.2,1.8-2.2c0.8,0,1.3,0.5,1.4,1h0.9c-0.2-1.1-1.1-1.9-2.4-1.9c-1.6,0-2.7,1.3-2.7,3.1
	C163.4,283.4,164.4,284.7,166.1,284.7z M172.5,278.6h-1.3v-1.4h-0.9v1.4h-0.9v0.8h0.9v3.8c0,1,0.8,1.5,1.6,1.5
	c0.3,0,0.6-0.1,0.7-0.1l-0.2-0.8c-0.1,0-0.2,0-0.4,0c-0.4,0-0.8-0.1-0.8-0.9v-3.5h1.3V278.6z"/>
<path class="st1" d="M572.8,258.6h-1l2.9,8h1l2.9-8h-1l-2.4,6.7h-0.1L572.8,258.6z M579.9,266.6h1v-2.9h1.8c1.9,0,2.7-1.1,2.7-2.5
	s-0.8-2.5-2.7-2.5h-2.7V266.6z M580.8,262.8v-3.4h1.7c1.3,0,1.8,0.7,1.8,1.7s-0.5,1.7-1.8,1.7H580.8z M593.2,258.6h-1v6.3h-0.1
	l-4.4-6.3h-0.9v8h1v-6.3h0.1l4.4,6.3h0.9V258.6z"/>
<path class="st8" d="M293.4,298.6v0.5h-1v-0.5v-2v-0.5h1v0.5V298.6z M293.4,292.7v0.5h-1v-0.5v-2c0-0.5,0-0.9,0.1-1.4l0.1-0.5l1,0.1
	l-0.1,0.5c-0.1,0.4-0.1,0.8-0.1,1.2V292.7z M294.2,287.1l-0.2,0.5l-0.9-0.4l0.2-0.5c0.4-0.9,0.8-1.6,1.4-2.4l0.3-0.4l0.8,0.6
	l-0.3,0.4C294.9,285.6,294.5,286.3,294.2,287.1z M297.2,283.2l-0.4,0.3l-0.6-0.8l0.4-0.3c0.7-0.6,1.5-1,2.4-1.4l0.5-0.2l0.4,0.9
	l-0.5,0.2C298.5,282.3,297.8,282.7,297.2,283.2z M569.8,280.7c0.6,0,1,0,1.4,0c0.5,0,0.9,0,1.3,0l0.5,0l0,1l-0.5,0
	c-0.4,0-0.9,0-1.4,0c-0.3,0-0.8,0-1.4,0h-0.5l0-1H569.8z M566.8,280.7l0.5,0l0,1l-0.5,0l-2.9,0l-0.5,0l0-1l0.5,0L566.8,280.7z
	 M560.8,280.7l0.5,0l0,1l-0.5,0l-2.9,0l-0.5,0l0-1l0.5,0L560.8,280.7z M554.9,280.7l0.5,0l0,1l-0.5,0l-2.9,0h-0.5l0-1h0.5
	L554.9,280.7z M548.9,280.7l0.5,0l0,1l-0.5,0l-2.9,0l-0.5,0l0-1l0.5,0L548.9,280.7z M542.9,280.7l0.5,0l0,1l-0.5,0l-3,0h-0.5l0-1
	h0.5L542.9,280.7z M537,280.7l0.5,0l0,1l-0.5,0l-3,0l-0.5,0l0-1l0.5,0L537,280.7z M531,280.7l0.5,0l0,1l-0.5,0l-2.9,0l-0.5,0l0-1
	l0.5,0L531,280.7z M525,280.7l0.5,0l0,1l-0.5,0l-3,0h-0.5l0-1h0.5L525,280.7z M519.1,280.6l0.5,0l0,1l-0.5,0l-3,0l-0.5,0l0-1l0.5,0
	L519.1,280.6z M513.1,280.6l0.5,0l0,1l-0.5,0l-2.9,0l-0.5,0l0-1l0.5,0L513.1,280.6z M507.2,280.6l0.5,0l0,1l-0.5,0l-3,0l-0.5,0l0-1
	l0.5,0L507.2,280.6z M501.2,280.6h0.5l0,1h-0.5l-3,0l-0.5,0l0-1l0.5,0L501.2,280.6z M495.2,280.6l0.5,0l0,1l-0.5,0l-3,0l-0.5,0l0-1
	l0.5,0L495.2,280.6z M489.3,280.6l0.5,0l0,1l-0.5,0l-3,0l-0.5,0l0-1l0.5,0L489.3,280.6z M575.3,281.5l-0.5,0.1l-0.1-1l0.5-0.1
	c1-0.1,1.8-0.3,2.6-0.5l0.5-0.1l0.3,1l-0.5,0.1C577.2,281.3,576.3,281.4,575.3,281.5z M483.3,280.6l0.5,0l0,1l-0.5,0l-3,0l-0.5,0
	l0-1l0.5,0L483.3,280.6z M477.3,280.6l0.5,0l0,1l-0.5,0l-3,0l-0.5,0l0-1l0.5,0L477.3,280.6z M471.4,280.6l0.5,0l0,1l-0.5,0l-3,0
	h-0.5l0-1h0.5L471.4,280.6z M465.4,280.6l0.5,0l0,1l-0.5,0l-3,0l-0.5,0l0-1l0.5,0L465.4,280.6z M459.4,280.5l0.5,0l0,1l-0.5,0l-3,0
	l-0.5,0l0-1l0.5,0L459.4,280.5z M453.5,280.5l0.5,0l0,1l-0.5,0l-3,0l-0.5,0l0-1l0.5,0L453.5,280.5z M447.5,280.5l0.5,0l0,1l-0.5,0
	l-3,0l-0.5,0l0-1l0.5,0L447.5,280.5z M441.5,280.5l0.5,0l0,1l-0.5,0l-3,0l-0.5,0l0-1l0.5,0L441.5,280.5z M435.6,280.5h0.5l0,1h-0.5
	l-3,0l-0.5,0l0-1l0.5,0L435.6,280.5z M429.6,280.5l0.5,0l0,1l-0.5,0l-3,0l-0.5,0l0-1l0.5,0L429.6,280.5z M423.6,280.5l0.5,0l0,1
	l-0.5,0l-3,0l-0.5,0l0-1l0.5,0L423.6,280.5z M417.7,280.5l0.5,0l0,1l-0.5,0l-3,0l-0.5,0l0-1l0.5,0L417.7,280.5z M411.7,280.5l0.5,0
	l0,1l-0.5,0l-3,0l-0.5,0l0-1l0.5,0L411.7,280.5z M405.8,280.4l0.5,0l0,1l-0.5,0l-3,0l-0.5,0l0-1l0.5,0L405.8,280.4z M399.8,280.4
	h0.5l0,1h-0.5l-3,0l-0.5,0l0-1l0.5,0L399.8,280.4z M393.8,280.4h0.5l0,1h-0.5l-3,0l-0.5,0l0-1l0.5,0L393.8,280.4z M387.9,280.4
	l0.5,0l0,1l-0.5,0l-3,0l-0.5,0l0-1l0.5,0L387.9,280.4z M381.9,280.4l0.5,0l0,1l-0.5,0l-3,0l-0.5,0l0-1l0.5,0L381.9,280.4z
	 M301.7,281.3l-0.5,0.1l-0.1-1l0.5-0.1c0.4-0.1,0.9-0.1,1.4-0.1l0,0l0,0h0h0h0h0h0.1h0.3l1,0l0.5,0l0,1l-0.5,0l-1,0H303H303h0h0h0h0
	l0,0l0,0C302.5,281.2,302.1,281.3,301.7,281.3z M375.9,280.4l0.5,0l0,1l-0.5,0l-2.9,0l-0.5,0l0-1l0.5,0L375.9,280.4z M370,280.4
	l0.5,0l0,1l-0.5,0l-3,0l-0.5,0l0-1l0.5,0L370,280.4z M364,280.4l0.5,0l0,1l-0.5,0l-3,0l-0.5,0l0-1l0.5,0L364,280.4z M358,280.4
	l0.5,0l0,1l-0.5,0l-3,0l-0.5,0l0-1l0.5,0L358,280.4z M352.1,280.3l0.5,0l0,1l-0.5,0l-3.1,0l-0.5,0l0-1l0.5,0L352.1,280.3z
	 M346.1,280.3l0.5,0l0,1l-0.5,0l-2.9,0l-0.5,0l0-1l0.5,0L346.1,280.3z M340.1,280.3h0.5l0,1h-0.5l-3,0l-0.5,0l0-1l0.5,0L340.1,280.3
	z M334.2,280.3h0.5l0,1h-0.5l-3.1,0l-0.5,0l0-1l0.5,0L334.2,280.3z M328.2,280.3l0.5,0l0,1l-0.5,0l-3,0l-0.5,0l0-1l0.5,0
	L328.2,280.3z M322.2,280.3l0.5,0l0,1l-0.5,0l-2.9,0l-0.5,0l0-1l0.5,0L322.2,280.3z M316.2,280.3l0.5,0l0,1l-0.5,0l-2.9,0l-0.5,0
	l0-1l0.5,0L316.2,280.3z M310.3,280.3l0.5,0l0,1l-0.5,0l-3,0l-0.5,0l0-1l0.5,0L310.3,280.3z M580.7,279.8l-0.4,0.3l-0.6-0.8l0.4-0.3
	c0.7-0.5,1.2-1.1,1.6-1.9l0.2-0.4l0.9,0.4l-0.2,0.4C582.1,278.5,581.5,279.2,580.7,279.8z M583.4,274.9l-0.1,0.5l-1-0.2l0.1-0.5
	c0.1-0.8,0.2-1.7,0.2-2.6l0-0.5l1,0l0,0.5C583.6,273.1,583.5,274,583.4,274.9z M583.6,252.1v0.5h-1v-0.5v-3v-0.5h1v0.5V252.1z
	 M583.6,246.1v0.5h-1v-0.5v-3v-0.5h1v0.5V246.1z M583.6,240.1v0.5h-1v-0.5v-1.5v-0.5h1v0.5V240.1z"/>
</svg>
