<?xml version="1.0" encoding="utf-8"?>
<!-- Generator: Adobe Illustrator 21.0.0, SVG Export Plug-In . SVG Version: 6.00 Build 0)  -->
<svg version="1.1" id="图层_1" xmlns="http://www.w3.org/2000/svg" xmlns:xlink="http://www.w3.org/1999/xlink" x="0px" y="0px"
	 viewBox="0 0 512 124" style="enable-background:new 0 0 512 124;" xml:space="preserve">
<style type="text/css">
	.st0{fill:#FFFFFF;stroke:#000000;stroke-width:2;stroke-miterlimit:10;}
</style>
<path class="st0" d="M3.1,101.8l14.6-17.5C27.8,92.7,38.4,98,51.3,98c10.1,0,16.2-4,16.2-10.6v-0.3c0-6.3-3.9-9.5-22.6-14.3
	C22.2,67,7.6,60.8,7.6,38.4v-0.3C7.6,17.7,24,4.2,46.9,4.2c16.4,0,30.3,5.1,41.7,14.3L75.8,37.1c-10-6.9-19.8-11.1-29.2-11.1
	s-14.4,4.3-14.4,9.8v0.3c0,7.4,4.8,9.8,24.2,14.8c22.8,5.9,35.6,14.1,35.6,33.7V85c0,22.3-17,34.8-41.3,34.8
	C33.2,119.9,16.3,113.5,3.1,101.8z"/>
<path class="st0" d="M141.4,5h22.8l48.2,113.2h-25.8L176.3,93h-47.5l-10.3,25.2H93.2L141.4,5z M167.4,71.2l-14.9-36.4l-14.9,36.4
	H167.4z"/>
<path class="st0" d="M206.1,62.3V62c0-31.9,24.1-58.1,58.6-58.1c21.2,0,33.9,7.1,44.3,17.3l-15.7,18.1c-8.7-7.9-17.5-12.7-28.7-12.7
	c-18.9,0-32.6,15.7-32.6,35V62c0,19.3,13.3,35.3,32.6,35.3c12.9,0,20.7-5.1,29.5-13.2l15.7,15.9c-11.6,12.4-24.4,20.1-46.1,20.1
	C230.7,120.1,206.1,94.6,206.1,62.3z"/>
<path class="st0" d="M350.6,28.6h-34.2V5.8h93.1v22.8h-34.2v89.6h-24.7V28.6z"/>
<polygon class="st0" points="447.9,27.8 447.9,27.8 508.1,27.8 508.1,5.8 423.3,5.8 423.3,27.8 "/>
<polygon class="st0" points="447.9,96.2 447.9,72.6 500.9,72.6 500.9,50.6 447.9,50.6 447.9,50.6 423.3,50.6 423.3,118.2 
	508.9,118.2 508.9,96.2 "/>
</svg>
