<svg id="图层_1" data-name="图层 1" xmlns="http://www.w3.org/2000/svg" viewBox="0 0 748.63 277.74"><defs><style>.cls-1{fill:#231815;}</style></defs><path class="cls-1" d="M135.92,182.51,150.53,165c10.11,8.34,20.71,13.64,33.55,13.64,10.12,0,16.22-4,16.22-10.59v-.32c0-6.27-3.85-9.48-22.64-14.29-22.64-5.78-37.25-12-37.25-34.36v-.32c0-20.39,16.38-33.88,39.34-33.88,16.38,0,30.34,5.14,41.74,14.29L208.65,117.8c-10-6.9-19.75-11.07-29.22-11.07S165,111.06,165,116.52v.32c0,7.39,4.82,9.79,24.24,14.77,22.8,5.94,35.64,14.13,35.64,33.72v.32c0,22.31-17,34.84-41.26,34.84A71.52,71.52,0,0,1,135.92,182.51Z"/><path class="cls-1" d="M274.23,85.69H297l48.17,113.19H319.34l-10.27-25.2H261.54l-10.27,25.2H226.06Zm26,66.15L285.3,115.4l-14.93,36.44Z"/><path class="cls-1" d="M338.91,143v-.32c0-31.95,24.09-58.12,58.6-58.12,21.2,0,33.88,7.07,44.32,17.34l-15.74,18.14c-8.67-7.86-17.5-12.68-28.74-12.68-18.94,0-32.59,15.73-32.59,35v.32c0,19.27,13.33,35.32,32.59,35.32,12.85,0,20.71-5.14,29.55-13.16l15.73,15.89c-11.56,12.36-24.4,20.07-46.08,20.07C363.48,200.81,338.91,175.28,338.91,143Z"/><path class="cls-1" d="M483.41,109.3h-34.2V86.5h93.12v22.8h-34.2v89.58H483.41Z"/><polygon class="cls-1" points="580.7 108.51 580.7 108.49 640.9 108.49 640.9 86.5 556.13 86.5 556.13 108.51 580.7 108.51"/><polygon class="cls-1" points="580.7 176.89 580.7 153.29 633.68 153.29 633.68 131.29 580.7 131.29 580.7 131.27 556.13 131.27 556.13 198.88 641.71 198.88 641.71 176.89 580.7 176.89"/></svg>