<svg width="401" height="241" viewBox="0 0 401 241" fill="none" xmlns="http://www.w3.org/2000/svg">
<path fill-rule="evenodd" clip-rule="evenodd" d="M154.742 116.769C154.742 180.992 154.813 235.013 154.899 236.817L155.056 240.096H156.1H157.143V239.113C157.143 238.34 157.243 238.104 157.612 238.008C158.052 237.893 158.058 237.845 157.706 237.25L157.331 236.615L157.836 237.18C158.363 237.77 158.319 238.175 157.729 238.175C157.485 238.175 157.383 238.46 157.383 239.136C157.383 240.633 158.512 240.579 158.648 239.076L158.74 238.055L158.782 239.076L158.823 240.096H279.472H400.12V120.048V0H277.431H154.742V116.769ZM39.436 74.851L0.119995 74.911V118.25V161.589L38.175 161.527C59.106 161.493 76.23 161.544 76.23 161.641C76.23 161.738 77.359 161.799 78.738 161.776C80.117 161.754 81.196 161.655 81.136 161.557C81.075 161.459 81.243 161.31 81.509 161.226C82.046 161.055 82.159 160.491 81.693 160.303C81.453 160.206 81.453 160.178 81.693 160.163C82.075 160.139 82.083 159.37 81.705 158.992C81.546 158.833 81.519 158.703 81.645 158.703C81.966 158.703 81.954 76.538 81.633 76.272C81.477 76.144 81.498 76.031 81.693 75.952C82.145 75.768 82.053 75.316 81.599 75.49C81.269 75.616 81.254 75.581 81.508 75.276C81.675 75.075 81.771 74.902 81.722 74.893C81.276 74.806 73.509 74.798 39.436 74.851ZM314.646 118.247V154.622H278.271H241.897V118.247V81.873H278.271H314.646V118.247Z" fill="#ffffff"/>
<path fill-rule="evenodd" clip-rule="evenodd" d="M19.767 74.85C30.639 74.884 48.358 74.884 59.143 74.85C69.927 74.815 61.032 74.787 39.376 74.787C17.719 74.787 8.895 74.815 19.767 74.85ZM80.988 74.923C81.322 75.057 81.475 75.257 81.371 75.425C81.261 75.603 81.303 75.64 81.487 75.526C81.87 75.289 81.375 74.664 80.823 74.685C80.566 74.695 80.622 74.776 80.988 74.923ZM81.87 118.487C81.87 138.691 81.898 146.921 81.933 136.776C81.967 126.63 81.967 110.1 81.933 100.041C81.898 89.983 81.87 98.283 81.87 118.487ZM37.935 161.585L0 161.707L38.115 161.766C63.405 161.805 76.23 161.744 76.23 161.585C76.23 161.453 76.149 161.371 76.05 161.403C75.951 161.436 58.799 161.517 37.935 161.585ZM154.828 237.935C154.828 239.19 154.869 239.703 154.918 239.076C154.968 238.448 154.968 237.422 154.918 236.795C154.869 236.167 154.828 236.681 154.828 237.935ZM157.706 237.25C158.058 237.845 158.052 237.893 157.612 238.008C157.228 238.108 157.15 238.32 157.185 239.173L157.227 240.216L157.319 239.196C157.378 238.531 157.526 238.175 157.743 238.175C158.32 238.175 158.358 237.765 157.836 237.18L157.331 236.615L157.706 237.25ZM158.649 239.136C158.649 239.73 158.696 239.973 158.753 239.676C158.81 239.379 158.81 238.893 158.753 238.595C158.696 238.298 158.649 238.541 158.649 239.136Z" fill="#ffffff"/>
<path fill-rule="evenodd" clip-rule="evenodd" d="M19.767 74.85C30.639 74.884 48.358 74.884 59.143 74.85C69.927 74.815 61.032 74.787 39.376 74.787C17.719 74.787 8.895 74.815 19.767 74.85ZM80.988 74.923C81.322 75.057 81.475 75.257 81.371 75.425C81.261 75.603 81.303 75.64 81.487 75.526C81.87 75.289 81.375 74.664 80.823 74.685C80.566 74.695 80.622 74.776 80.988 74.923ZM81.87 118.487C81.87 138.691 81.898 146.921 81.933 136.776C81.967 126.63 81.967 110.1 81.933 100.041C81.898 89.983 81.87 98.283 81.87 118.487ZM37.935 161.585L0 161.707L38.115 161.766C63.405 161.805 76.23 161.744 76.23 161.585C76.23 161.453 76.149 161.371 76.05 161.403C75.951 161.436 58.799 161.517 37.935 161.585ZM154.828 237.935C154.828 239.19 154.869 239.703 154.918 239.076C154.968 238.448 154.968 237.422 154.918 236.795C154.869 236.167 154.828 236.681 154.828 237.935ZM157.706 237.25C158.058 237.845 158.052 237.893 157.612 238.008C157.228 238.108 157.15 238.32 157.185 239.173L157.227 240.216L157.319 239.196C157.378 238.531 157.526 238.175 157.743 238.175C158.32 238.175 158.358 237.765 157.836 237.18L157.331 236.615L157.706 237.25ZM158.649 239.136C158.649 239.73 158.696 239.973 158.753 239.676C158.81 239.379 158.81 238.893 158.753 238.595C158.696 238.298 158.649 238.541 158.649 239.136Z" fill="#ffffff"/>
<path fill-rule="evenodd" clip-rule="evenodd" d="M19.767 74.85C30.639 74.884 48.358 74.884 59.143 74.85C69.927 74.815 61.032 74.787 39.376 74.787C17.719 74.787 8.895 74.815 19.767 74.85ZM80.988 74.923C81.322 75.057 81.475 75.257 81.371 75.425C81.261 75.603 81.303 75.64 81.487 75.526C81.87 75.289 81.375 74.664 80.823 74.685C80.566 74.695 80.622 74.776 80.988 74.923ZM81.87 118.487C81.87 138.691 81.898 146.921 81.933 136.776C81.967 126.63 81.967 110.1 81.933 100.041C81.898 89.983 81.87 98.283 81.87 118.487ZM37.935 161.585L0 161.707L38.115 161.766C63.405 161.805 76.23 161.744 76.23 161.585C76.23 161.453 76.149 161.371 76.05 161.403C75.951 161.436 58.799 161.517 37.935 161.585ZM154.828 237.935C154.828 239.19 154.869 239.703 154.918 239.076C154.968 238.448 154.968 237.422 154.918 236.795C154.869 236.167 154.828 236.681 154.828 237.935ZM157.706 237.25C158.058 237.845 158.052 237.893 157.612 238.008C157.228 238.108 157.15 238.32 157.185 239.173L157.227 240.216L157.319 239.196C157.378 238.531 157.526 238.175 157.743 238.175C158.32 238.175 158.358 237.765 157.836 237.18L157.331 236.615L157.706 237.25ZM158.649 239.136C158.649 239.73 158.696 239.973 158.753 239.676C158.81 239.379 158.81 238.893 158.753 238.595C158.696 238.298 158.649 238.541 158.649 239.136Z" fill="#ffffff"/>
<path fill-rule="evenodd" clip-rule="evenodd" d="M19.767 74.85C30.639 74.884 48.358 74.884 59.143 74.85C69.927 74.815 61.032 74.787 39.376 74.787C17.719 74.787 8.895 74.815 19.767 74.85ZM80.988 74.923C81.322 75.057 81.475 75.257 81.371 75.425C81.261 75.603 81.303 75.64 81.487 75.526C81.87 75.289 81.375 74.664 80.823 74.685C80.566 74.695 80.622 74.776 80.988 74.923ZM81.87 118.487C81.87 138.691 81.898 146.921 81.933 136.776C81.967 126.63 81.967 110.1 81.933 100.041C81.898 89.983 81.87 98.283 81.87 118.487ZM37.935 161.585L0 161.707L38.115 161.766C63.405 161.805 76.23 161.744 76.23 161.585C76.23 161.453 76.149 161.371 76.05 161.403C75.951 161.436 58.799 161.517 37.935 161.585ZM154.828 237.935C154.828 239.19 154.869 239.703 154.918 239.076C154.968 238.448 154.968 237.422 154.918 236.795C154.869 236.167 154.828 236.681 154.828 237.935ZM157.706 237.25C158.058 237.845 158.052 237.893 157.612 238.008C157.228 238.108 157.15 238.32 157.185 239.173L157.227 240.216L157.319 239.196C157.378 238.531 157.526 238.175 157.743 238.175C158.32 238.175 158.358 237.765 157.836 237.18L157.331 236.615L157.706 237.25ZM158.649 239.136C158.649 239.73 158.696 239.973 158.753 239.676C158.81 239.379 158.81 238.893 158.753 238.595C158.696 238.298 158.649 238.541 158.649 239.136Z" fill="#ffffff"/>
</svg>
