<svg xmlns="http://www.w3.org/2000/svg" width="91" height="89" viewBox="0 0 91 89" fill="none" data-inject-url="https://figment.io/wp-content/uploads/2021/09/Group1.svg"><path d="M2.28397 0.273021C2.10547 0.426021 2.87047 3.02702 3.30397 3.86852C3.50797 4.22552 4.04347 4.50602 4.88497 4.71002C5.59897 4.88852 6.23647 4.96502 6.31297 4.88852C6.38947 4.81202 6.21097 3.94502 5.90497 2.92502C5.42047 1.31852 5.26747 1.06352 4.55347 0.783021C3.43147 0.324021 2.43697 0.0945212 2.28397 0.273021Z" fill="white"/><path d="M6.16003 1.599C6.16003 2.007 7.18003 4.7865 7.46053 5.118C7.81753 5.577 10.036 6.291 10.291 6.036C10.5715 5.7555 9.55153 2.823 9.01603 2.364C8.78653 2.16 8.09803 1.854 7.53703 1.701C6.28753 1.344 6.16003 1.3185 6.16003 1.599Z" fill="white"/><path d="M0.116514 5.37301C0.422514 6.90301 1.36601 9.01951 1.77401 9.14701C2.00351 9.22351 2.64101 9.35101 3.17651 9.45301C4.32401 9.65701 4.37501 9.40201 3.58451 7.03051C2.99801 5.34751 2.79401 5.16901 0.932514 4.81201C-0.0364864 4.63351 -0.0364864 4.63351 0.116514 5.37301Z" fill="white"/><path d="M4.01801 5.70451C3.94151 5.80651 4.14551 6.69901 4.47701 7.66801C5.08901 9.55501 5.52251 9.96301 7.18001 10.116C7.99601 10.1925 8.07251 10.1415 7.97051 9.55501C7.94501 9.19801 7.66451 8.33101 7.38401 7.59151C6.92501 6.31651 6.82301 6.24001 5.59901 5.85751C4.04351 5.39851 4.19651 5.42401 4.01801 5.70451Z" fill="white"/><path d="M18.7825 6.92851C19.114 8.79001 19.7005 9.63151 21.205 10.3455C21.97 10.728 22.684 10.983 22.786 10.932C22.99 10.8045 22.0975 8.10151 21.664 7.59151C21.3835 7.23451 19.114 5.98501 18.757 5.98501C18.6805 5.98501 18.6805 6.41851 18.7825 6.92851Z" fill="white"/><path d="M7.94507 6.954C7.94507 7.719 8.73557 9.912 9.19457 10.3455C9.60257 10.779 11.7701 11.4165 11.9996 11.187C12.0761 11.1105 11.8466 10.2435 11.5151 9.2235C10.8776 7.413 10.8776 7.3875 9.60257 6.954C7.94507 6.4185 7.94507 6.4185 7.94507 6.954Z" fill="white"/><path d="M11.9485 7.94852C11.8975 8.07602 12.076 8.89202 12.3565 9.78452C12.841 11.238 12.994 11.442 13.912 11.8755C14.9065 12.3345 16.105 12.513 16.105 12.207C16.105 11.85 15.238 9.37652 14.983 9.07052C14.677 8.68802 12.8665 7.79552 12.3565 7.77002C12.2035 7.77002 11.9995 7.84652 11.9485 7.94852Z" fill="white"/><path d="M23.398 9.60601C23.6275 10.3455 23.959 11.187 24.1375 11.4675C24.4945 12.0285 27.223 13.5585 27.4525 13.329C27.529 13.2525 27.325 12.462 27.019 11.5695C26.4835 10.0905 26.305 9.86101 25.03 9.12151C23.092 7.94851 22.939 7.99951 23.398 9.60601Z" fill="white"/><path d="M16.2835 10.626C16.8445 12.5895 17.0485 12.8445 18.3235 13.4055C19.5475 13.9155 20.185 14.0175 20.185 13.686C20.185 13.0995 19.2925 10.881 18.859 10.422C18.4255 9.9375 16.87 9.3 16.156 9.3C15.9775 9.3 16.003 9.759 16.2835 10.626Z" fill="white"/><path d="M20.185 11.136C20.185 11.697 20.9245 13.941 21.2305 14.3235C21.562 14.706 23.6275 15.675 24.163 15.675C24.418 15.675 24.418 15.4455 24.112 14.451C23.449 12.411 23.194 12.0795 21.7405 11.442C20.1595 10.728 20.185 10.728 20.185 11.136Z" fill="white"/><path d="M27.5801 11.034C27.5801 11.442 28.4216 13.7625 28.7021 14.1195C29.0591 14.553 31.9151 16.5165 32.0426 16.389C32.2211 16.236 31.4306 13.839 31.0226 13.2015C30.6401 12.6405 28.1666 10.83 27.7841 10.83C27.6566 10.83 27.5801 10.932 27.5801 11.034Z" fill="white"/><path d="M13.5551 13.2015C13.5551 13.8645 14.3966 16.0575 14.8046 16.4655C15.2636 16.899 17.3546 17.5875 17.5841 17.358C17.8136 17.1285 16.8191 14.1705 16.3856 13.8135C15.9521 13.431 14.4731 12.87 13.9121 12.87C13.7081 12.87 13.5551 13.023 13.5551 13.2015Z" fill="white"/><path d="M24.775 13.6095C24.775 13.8645 25.0045 14.655 25.3105 15.369C25.7695 16.4655 26.05 16.746 27.325 17.4345C28.141 17.868 28.8805 18.123 28.957 17.9955C29.161 17.6895 28.3705 15.3945 27.886 14.8335C27.478 14.3745 25.387 13.125 25.0045 13.125C24.877 13.125 24.775 13.329 24.775 13.6095Z" fill="white"/><path d="M32.17 14.043C32.17 14.145 32.374 14.859 32.6035 15.624C32.9605 16.746 33.343 17.2815 34.5925 18.4035C35.434 19.1685 36.3265 19.908 36.5815 20.0355C36.9895 20.265 37.015 20.214 36.862 19.5765C36.4795 17.8935 35.7655 16.7715 34.312 15.522C32.6545 14.094 32.17 13.7625 32.17 14.043Z" fill="white"/><path d="M17.635 14.4765C17.635 15.267 18.4255 17.409 18.8335 17.766C19.318 18.174 21.4345 18.837 21.6385 18.6585C21.766 18.5055 21.052 15.9555 20.7205 15.4455C20.5165 15.114 18.3235 14.145 17.839 14.145C17.7115 14.145 17.635 14.298 17.635 14.4765Z" fill="white"/><path d="M11.26 17.2815C11.26 18.0465 12.3565 20.8005 12.739 21.0045C12.994 21.132 13.657 21.3105 14.269 21.4125C15.544 21.6165 15.5695 21.54 14.8045 19.2705C14.2435 17.5875 14.0395 17.4345 12.229 17.103C11.4895 16.9755 11.26 17.001 11.26 17.2815Z" fill="white"/><path d="M26.3815 18.582C26.662 20.3925 27.3505 21.3615 28.906 22.1775C29.6965 22.5855 30.4105 22.866 30.5125 22.7895C30.589 22.713 30.385 21.897 30.079 21.0045C29.518 19.4235 29.4415 19.347 27.8605 18.5055L26.2285 17.6385L26.3815 18.582Z" fill="white"/><path d="M15.0851 18.0465C15.0851 18.123 15.3146 18.939 15.5951 19.857C16.1561 21.6675 16.4621 21.948 18.1196 22.203C19.3436 22.407 19.3691 22.305 18.7826 20.316C18.5531 19.551 18.1451 18.837 17.8136 18.6075C17.2526 18.2505 15.0851 17.7915 15.0851 18.0465Z" fill="white"/><path d="M33.8275 19.2705C34.2355 21.183 34.7455 21.9735 36.5305 23.427C37.525 24.243 38.3665 24.855 38.4175 24.804C38.494 24.753 38.341 24.0645 38.086 23.2995C37.6525 21.9225 36.25 20.265 34.363 18.939L33.649 18.4035L33.8275 19.2705Z" fill="white"/><path d="M37.27 18.684C37.27 19.6275 38.4685 21.8715 39.769 23.3505C40.5595 24.2685 41.5285 25.416 41.911 25.9005L42.5995 26.7675L41.962 24.9825C41.5795 23.9115 40.789 22.4835 39.9475 21.4125C38.443 19.4235 37.27 18.2505 37.27 18.684Z" fill="white"/><path d="M19.1649 19.3215C19.1649 19.908 19.9809 22.152 20.3634 22.5855C20.6694 22.968 22.3014 23.58 22.9644 23.58C23.3724 23.58 23.3214 23.019 22.7094 21.438C22.2249 20.112 22.1229 20.01 20.7969 19.5255C19.1394 18.888 19.1649 18.888 19.1649 19.3215Z" fill="white"/><path d="M30.7421 21.081C31.0481 22.662 31.7621 23.682 33.1901 24.651C33.9551 25.161 34.7201 25.5945 34.8986 25.5945C35.2811 25.62 34.3886 22.917 33.7766 22.254C33.3176 21.744 31.0991 20.265 30.7676 20.265C30.6656 20.265 30.6401 20.622 30.7421 21.081Z" fill="white"/><path d="M23.2705 20.9535C23.2705 21.2085 23.4745 21.9735 23.7295 22.6875C24.112 23.835 24.2905 24.039 25.6165 24.6765C26.4325 25.059 27.1975 25.314 27.325 25.2375C27.4525 25.161 27.325 24.4215 26.9935 23.5035C26.509 22.1775 26.2795 21.846 25.4125 21.387C23.806 20.52 23.245 20.3925 23.2705 20.9535Z" fill="white"/><path d="M27.6056 22.7385C27.6056 22.866 27.8606 23.631 28.1666 24.4725C28.7021 25.9005 28.8296 26.0535 30.2576 26.8185C31.0991 27.252 31.8641 27.558 31.9661 27.507C32.1701 27.3795 31.2776 24.6765 30.8441 24.1665C30.5126 23.7585 28.2686 22.56 27.8351 22.56C27.7076 22.56 27.5801 22.6365 27.6056 22.7385Z" fill="white"/><path d="M38.9275 23.835C39.259 25.3905 39.4885 25.773 41.4775 28.068C43.951 30.9495 44.4865 31.944 42.2425 29.496C41.299 28.5015 40.432 27.66 40.33 27.66C39.7945 27.66 41.1715 30.6435 42.1915 31.74C44.0275 33.6525 45.175 35.055 45.175 35.31C45.175 35.463 44.41 34.7745 43.492 33.78C42.5485 32.7855 41.7325 32.046 41.6815 32.097C41.605 32.1735 41.758 32.811 41.9875 33.525C42.319 34.494 42.982 35.4375 44.4865 37.095C45.634 38.3445 46.603 39.339 46.654 39.288C46.705 39.2115 45.889 36.585 44.818 33.423C42.9565 27.813 42.8545 27.5835 41.401 25.7985C40.5595 24.804 39.616 23.733 39.31 23.4525L38.749 22.9425L38.9275 23.835Z" fill="white"/><path d="M35.2301 23.478C35.2301 23.5545 35.4086 24.243 35.6381 25.008C35.9951 26.232 36.2501 26.589 37.8566 27.915C38.9786 28.8585 39.7181 29.292 39.7691 29.088C39.8201 28.9095 39.6161 28.119 39.3101 27.354C38.9021 26.232 38.4941 25.722 37.1681 24.651C35.6126 23.376 35.2301 23.1465 35.2301 23.478Z" fill="white"/><path d="M32.272 25.7475C32.6035 27.5325 33.2155 28.3995 34.7965 29.3685C35.6125 29.853 36.352 30.21 36.4285 30.108C36.505 30.0315 36.3775 29.3175 36.1225 28.527C35.6635 27.099 34.822 26.232 32.833 25.1865L32.0935 24.804L32.272 25.7475Z" fill="white"/><path d="M43.7724 28.0935C44.7669 30.5415 47.5464 39.696 48.3879 43.3425C48.4389 43.623 48.1584 43.215 47.7504 42.45L46.9854 41.0475L47.0364 43.725C47.0619 45.3315 47.1894 46.377 47.3424 46.3515C47.4954 46.326 47.7504 46.581 47.9289 46.938C48.1074 47.2695 48.3624 47.499 48.4644 47.4225C48.5919 47.346 48.7704 47.5755 48.8469 47.9325C48.9489 48.2895 49.1784 48.57 49.3569 48.57C49.5609 48.57 49.7904 48.825 49.8924 49.131C49.9944 49.488 50.0964 49.59 50.1729 49.4115C50.2494 49.233 50.0709 48.315 49.7394 47.3715C49.4334 46.4025 49.1274 45.459 49.0509 45.255C48.8724 44.592 50.5044 47.091 51.2949 48.621C53.0544 52.0125 54.0234 56.0925 54.2784 61.269L54.4314 64.4055L56.5479 62.1615L58.6644 59.9175L60.5259 61.83C61.5459 62.8755 64.5549 66.012 67.2324 68.7915L72.1284 73.815L81.3339 73.764L90.5394 73.6875L88.4484 71.52C87.3264 70.3215 83.1699 66.012 79.2429 61.9575C75.2904 57.8775 71.1594 53.619 70.0629 52.4715L68.0484 50.355L69.9354 48.3915C70.9809 47.295 74.9844 43.1385 78.8604 39.135C87.0969 30.618 89.3919 28.1955 89.4939 27.8895C89.5449 27.762 85.7454 27.66 80.4159 27.66H71.2614L70.0119 28.986C69.3489 29.7255 66.5184 32.6835 63.7389 35.5395L58.7154 40.7415L54.3039 36.177C51.8814 33.6525 49.0254 30.72 48.0054 29.6235C46.1439 27.6855 46.0929 27.66 44.8434 27.66C43.7469 27.66 43.6194 27.711 43.7724 28.0935Z" fill="white"/><path d="M36.76 28.3485C36.76 28.6035 37.0405 29.394 37.3465 30.1335C37.78 31.179 38.2645 31.74 39.565 32.7345C40.4575 33.423 41.248 33.9585 41.299 33.9075C41.452 33.78 40.585 31.128 40.2535 30.6945C39.922 30.261 37.066 27.915 36.8875 27.915C36.811 27.915 36.76 28.119 36.76 28.3485Z" fill="white"/><path d="M45.94 49.2075L45.328 51.1455L45.889 51.681C46.195 51.987 46.5265 52.1655 46.603 52.0635C46.705 51.9615 46.9345 51.069 47.1385 50.049C47.4445 48.3405 47.4445 48.1875 47.011 47.754C46.552 47.295 46.5265 47.346 45.94 49.2075Z" fill="white"/><path d="M47.5976 49.7685C47.4956 50.304 47.3171 51.1965 47.2151 51.732C47.0621 52.4715 47.0876 52.8795 47.3936 53.313C48.2096 54.588 48.5666 53.772 48.4391 50.8905C48.3626 48.774 47.8781 48.1365 47.5976 49.7685Z" fill="white"/><path d="M48.8979 51.0435C48.5664 53.058 48.7194 54.843 49.2549 55.3275C49.7139 55.761 49.7394 55.7355 49.9179 55.098C50.1474 54.129 49.7904 50.6865 49.4079 50.355C49.1529 50.151 49.0254 50.304 48.8979 51.0435Z" fill="white"/><path d="M50.275 51.5025C50.2495 51.63 50.2495 52.854 50.275 54.18C50.3005 55.9905 50.4025 56.7045 50.7085 57.036C51.3715 57.7755 51.5755 57.5715 51.448 56.271C51.3715 55.608 51.244 54.435 51.1675 53.6445C51.04 52.395 50.3515 50.7375 50.275 51.5025Z" fill="white"/><path d="M44.0275 53.925L43.288 55.455L43.8235 56.169C44.104 56.5515 44.4865 56.8575 44.665 56.8575C44.8435 56.8575 45.2515 56.1435 45.583 55.2765L46.1695 53.721L45.6595 53.058C45.379 52.701 45.0475 52.395 44.9455 52.395C44.8435 52.395 44.4355 53.0835 44.0275 53.925Z" fill="white"/><path d="M45.9656 55.9395C45.6851 56.7555 45.4301 57.495 45.4301 57.597C45.4301 57.9285 46.4756 59.28 46.7051 59.28C46.9601 59.28 47.7251 56.781 47.7251 55.914C47.7251 55.353 47.0621 54.435 46.6541 54.435C46.5776 54.435 46.2716 55.098 45.9656 55.9395Z" fill="white"/><path d="M48.2861 56.73C48.1586 57.087 47.9036 57.954 47.7251 58.668C47.4191 59.892 47.4191 60.0195 47.9546 60.7845C48.2606 61.218 48.6176 61.575 48.7451 61.575C49.0001 61.575 49.5101 59.3055 49.5101 58.1835C49.5101 57.7245 49.2806 57.087 49.0001 56.73L48.5156 56.0925L48.2861 56.73Z" fill="white"/><path d="M42.1661 57.291C42.0131 57.6225 41.6561 58.2345 41.3501 58.6935L40.8146 59.5095L41.6816 60.453L42.5486 61.422L43.3646 60.0195C43.7981 59.2545 44.1551 58.515 44.1551 58.3875C44.1296 58.056 42.9566 56.73 42.6761 56.73C42.5486 56.73 42.3191 56.985 42.1661 57.291Z" fill="white"/><path d="M49.816 59.892C49.6375 60.7845 49.51 61.728 49.51 61.983C49.51 62.5185 50.6575 64.074 50.887 63.87C50.9635 63.7935 51.091 62.7735 51.193 61.626C51.346 59.9175 51.295 59.433 50.938 58.8975C50.7085 58.5405 50.428 58.26 50.3005 58.26C50.1985 58.26 49.969 58.9995 49.816 59.892Z" fill="white"/><path d="M44.053 60.3255C43.696 61.0395 43.39 61.8045 43.39 62.034C43.4155 62.4675 44.4865 63.87 44.7925 63.87C44.9965 63.87 46.195 61.269 46.195 60.81C46.1695 60.4785 45.0985 59.025 44.8435 59.025C44.7925 59.025 44.4355 59.6115 44.053 60.3255Z" fill="white"/><path d="M39.055 61.932C38.647 62.5695 38.29 63.1305 38.29 63.2325C38.29 63.564 39.6415 65.145 39.922 65.145C40.075 65.145 40.585 64.5585 41.044 63.8445L41.8855 62.544L41.2225 61.677C40.8655 61.1925 40.4065 60.81 40.2025 60.81C39.9985 60.81 39.4885 61.32 39.055 61.932Z" fill="white"/><path d="M46.2461 62.9265C45.9401 63.666 45.6851 64.431 45.6851 64.635C45.7106 65.0685 46.8071 66.42 47.1386 66.42C47.3426 66.42 48.0821 64.482 48.2861 63.4365C48.3881 63.0285 47.4191 61.575 47.0621 61.575C46.9091 61.575 46.5521 62.187 46.2461 62.9265Z" fill="white"/><path d="M41.6306 64.584C41.1971 65.2725 40.8401 65.91 40.8401 66.0375C40.8401 66.42 42.1406 67.95 42.4721 67.95C42.6761 67.95 43.1351 67.338 43.5176 66.5985L44.2316 65.2215L43.4921 64.3035C43.0841 63.768 42.6761 63.36 42.5996 63.36C42.4976 63.36 42.0641 63.921 41.6306 64.584Z" fill="white"/><path d="M48.898 64.1505C48.847 64.3545 48.6175 65.0175 48.388 65.655C47.8525 67.1595 47.878 67.3125 48.541 68.205C49.2805 69.225 49.6375 69.174 49.969 68.001C50.632 65.706 50.6065 65.3235 49.7905 64.533C49.2295 63.9975 48.9745 63.8955 48.898 64.1505Z" fill="white"/><path d="M36.1736 65.5785L35.2301 66.7515L35.8166 67.5165C36.8876 68.8935 37.1936 68.9445 38.0351 67.95C39.1826 66.573 39.2081 66.2415 38.2646 65.247C37.8056 64.7625 37.3721 64.38 37.2956 64.38C37.1936 64.38 36.7091 64.9155 36.1736 65.5785Z" fill="white"/><path d="M44.104 67.4145C43.696 68.103 43.39 68.817 43.39 69.021C43.39 69.429 44.6905 70.755 45.073 70.755C45.2005 70.755 45.634 70.1175 46.0165 69.3525L46.705 67.95L45.9145 67.0575C45.481 66.573 45.0475 66.165 44.9455 66.165C44.869 66.165 44.4865 66.726 44.104 67.4145Z" fill="white"/><path d="M38.8256 68.5875C37.9331 69.837 37.9586 70.1175 39.1826 71.265L39.8711 71.9025L40.6106 71.01C41.7326 69.6585 41.8091 69.072 40.9421 68.1795C40.5596 67.7715 40.1006 67.44 39.9476 67.44C39.7946 67.44 39.2846 67.95 38.8256 68.5875Z" fill="white"/><path d="M33.0879 68.9445C32.0169 70.041 32.0424 70.3215 33.3939 71.5965L34.1334 72.3105L35.2045 71.1375C36.3775 69.8625 36.3775 69.939 35.128 68.511C34.4395 67.746 34.2099 67.797 33.0879 68.9445Z" fill="white"/><path d="M46.6286 70.1175C46.2461 70.908 45.9401 71.673 45.9401 71.8515C45.9401 72.03 46.3481 72.5655 46.8326 73.05L47.6996 73.8915L48.2351 72.693C49.1021 70.6275 49.1021 70.449 48.1841 69.531L47.3171 68.715L46.6286 70.1175Z" fill="white"/><path d="M41.6561 71.367C41.1971 71.979 40.8401 72.642 40.8401 72.846C40.8656 73.203 42.2426 74.835 42.5486 74.835C42.8036 74.835 44.1551 72.7185 44.1551 72.3105C44.1551 71.9535 42.9056 70.245 42.6506 70.245C42.5486 70.245 42.0896 70.755 41.6561 71.367Z" fill="white"/><path d="M29.9261 71.928C29.3396 72.4125 28.8551 72.9735 28.8551 73.152C28.8551 73.305 29.3141 73.8915 29.8496 74.427L30.8441 75.396L31.8896 74.4525C32.4761 73.917 32.9351 73.3815 32.9351 73.203C32.9351 72.9735 31.2521 71.01 31.0481 71.01C31.0226 71.01 30.5126 71.418 29.9261 71.928Z" fill="white"/><path d="M35.8419 72.183L34.8984 73.3305L35.9694 74.4015L37.0404 75.4725L37.9074 74.4525C38.3919 73.8915 38.7744 73.254 38.7744 73.05C38.7744 72.6165 37.3974 71.01 37.0404 71.01C36.9129 71.01 36.3774 71.5455 35.8419 72.183Z" fill="white"/><path d="M38.698 75.2685L37.78 76.4415L38.3665 77.232C39.463 78.609 39.7435 78.66 40.738 77.5125C41.197 76.9515 41.605 76.314 41.605 76.0845C41.605 75.7275 40.1005 74.07 39.769 74.07C39.6925 74.07 39.208 74.6055 38.698 75.2685Z" fill="white"/><path d="M41.6561 78.252C41.1971 78.864 40.8401 79.5525 40.8401 79.731C40.8401 79.935 41.2481 80.496 41.7581 80.9805L42.6506 81.8475L43.3901 80.955C44.5121 79.6035 44.5631 79.2465 43.7216 78.201C43.3136 77.691 42.8546 77.2575 42.7271 77.2065C42.5741 77.1555 42.0896 77.64 41.6561 78.252Z" fill="white"/><path d="M29.1866 78.303L28.0901 79.221L29.0081 80.343C29.5181 80.955 30.0536 81.465 30.2321 81.465C30.3851 81.465 30.9971 81.0315 31.6091 80.496L32.7311 79.5525L31.7876 78.456C31.2776 77.8695 30.7166 77.385 30.5636 77.385C30.3851 77.385 29.7731 77.793 29.1866 78.303Z" fill="white"/><path d="M35.6636 78.609C35.1536 79.1445 34.7201 79.6545 34.7201 79.7565C34.7201 79.8585 35.1281 80.394 35.6381 80.955C36.6836 82.1025 37.0406 82.0515 38.1881 80.5725L38.8511 79.68L38.0351 78.66C37.6016 78.099 37.0916 77.64 36.9131 77.64C36.7601 77.64 36.1736 78.0735 35.6636 78.609Z" fill="white"/><path d="M38.7235 81.669C38.2135 82.2045 37.78 82.791 37.78 82.995C37.78 83.199 38.2135 83.811 38.7235 84.372L39.667 85.3665L40.636 84.321C41.1715 83.7345 41.605 83.1225 41.605 82.9185C41.605 82.74 41.1715 82.1535 40.636 81.6435L39.667 80.7L38.7235 81.669Z" fill="white"/><path d="M35.3066 85.0095L34.2101 85.9785L35.1281 87.177C35.6126 87.8145 36.1736 88.35 36.3266 88.35C36.7091 88.35 38.5451 86.5395 38.5451 86.157C38.5451 85.902 36.7091 84.015 36.5051 84.015C36.4286 84.0405 35.8931 84.474 35.3066 85.0095Z" fill="white"/></svg>