<?xml version="1.0" encoding="UTF-8"?> <svg xmlns="http://www.w3.org/2000/svg" width="190" height="42" viewBox="0 0 190 42" fill="none"><path fill-rule="evenodd" clip-rule="evenodd" d="M23.1 2.60001C23.4 2.70001 23.7 2.70001 24.1 2.80001C24.3 2.80001 24.5 3.00001 24.5 3.20001C24.6 3.60001 24.8 4.00001 24.9 4.50001C25 4.70001 24.9 4.90001 24.7 4.80001C24.4 4.70001 24.1 4.70001 23.8 4.60001C23.6 4.60001 23.5 4.40001 23.4 4.20001C23.3 3.80001 23.1 3.30001 23 2.90001C22.9 2.70001 23 2.50001 23.1 2.60001Z" fill="white"></path><path fill-rule="evenodd" clip-rule="evenodd" d="M24.2 0.500002C24.5 0.600002 24.9 0.700002 25.2 0.800002C25.4 0.800002 25.6 1.1 25.6 1.3C25.7 1.6 25.9 2 26 2.4C26.1 2.6 26 2.7 25.8 2.7C25.5 2.6 25.2 2.5 24.8 2.5C24.6 2.5 24.4 2.3 24.4 2C24.3 1.6 24.1 1.2 24 0.700002C23.9 0.600002 24 0.400002 24.2 0.500002Z" fill="white"></path><path fill-rule="evenodd" clip-rule="evenodd" d="M26.1 1C26.4 1.1 26.8 1.2 27.1 1.3C27.3 1.4 27.5 1.6 27.5 1.8C27.7 2.2 27.8 2.6 28 3C28.1 3.2 28 3.3 27.8 3.3C27.5 3.2 27.1 3.1 26.8 3C26.6 3 26.4 2.7 26.4 2.5C26.3 2.1 26.1 1.7 26 1.3C25.9 1.1 26 1 26.1 1Z" fill="white"></path><path fill-rule="evenodd" clip-rule="evenodd" d="M32.1 3.2C32.4 3.3 32.8 3.5 33.1 3.7C33.3 3.8 33.5 4 33.5 4.2C33.6 4.6 33.7 4.9 33.9 5.3C34 5.5 33.9 5.6 33.7 5.5C33.4 5.3 33 5.2 32.7 5.1C32.5 5 32.3 4.8 32.3 4.6C32.2 4.2 32.1 3.9 31.9 3.5C31.9 3.2 32 3.2 32.1 3.2Z" fill="white"></path><path fill-rule="evenodd" clip-rule="evenodd" d="M24.9999 3C25.2999 3.1 25.5999 3.1 25.9999 3.2C26.1999 3.2 26.3999 3.4 26.3999 3.7C26.4999 4.1 26.6999 4.5 26.7999 4.9C26.8999 5.1 26.7999 5.2 26.5999 5.2C26.2999 5.1 25.9999 5 25.6999 5C25.4999 5 25.3999 4.8 25.2999 4.6C25.1999 4.2 24.9999 3.8 24.8999 3.3C24.7999 3.1 24.8999 2.9 24.9999 3Z" fill="white"></path><path fill-rule="evenodd" clip-rule="evenodd" d="M26.9 3.5C27.2 3.6 27.6 3.7 27.9 3.8C28.1 3.8 28.2999 4 28.2999 4.2C28.3999 4.6 28.6 5 28.7 5.4C28.8 5.6 28.7 5.7 28.5 5.7C28.2 5.6 27.8 5.5 27.5 5.5C27.3 5.5 27.1 5.3 27.1 5.1C27 4.7 26.8 4.3 26.7 3.9C26.7 3.5 26.8 3.4 26.9 3.5Z" fill="white"></path><path fill-rule="evenodd" clip-rule="evenodd" d="M28.9 4C29.2 4.1 29.6 4.2 29.9 4.3C30.1 4.4 30.3 4.6 30.3 4.8C30.4 5.2 30.6 5.6 30.7 5.9C30.8 6.1 30.7 6.2 30.5 6.1C30.2 6 29.8 5.9 29.5 5.8C29.3 5.8 29.1 5.6 29.1 5.4C29 5 28.8 4.6 28.7 4.2C28.6 4.1 28.7 4 28.9 4Z" fill="white"></path><path fill-rule="evenodd" clip-rule="evenodd" d="M30.9 4.7C31.2 4.8 31.6 4.9 31.9 5.1C32.1 5.2 32.3 5.4 32.3 5.6C32.4 6 32.5 6.3 32.7 6.7C32.8 6.9 32.7 7 32.5 6.9C32.2 6.8 31.8 6.7 31.5 6.5C31.3 6.4 31.1 6.2 31.1 6C31 5.6 30.8 5.2 30.7 4.9C30.6 4.7 30.7 4.6 30.9 4.7Z" fill="white"></path><path fill-rule="evenodd" clip-rule="evenodd" d="M32.9 5.5C33.2 5.6 33.6 5.8 33.9 5.9C34.1 6 34.3 6.2 34.3 6.4C34.4 6.8 34.5 7.1 34.7 7.5C34.8 7.7 34.7 7.8 34.5 7.7C34.2 7.5 33.8 7.4 33.5 7.3C33.3 7.2 33.1 7 33.1 6.8C33 6.4 32.9 6.1 32.7 5.7C32.6 5.5 32.7 5.4 32.9 5.5Z" fill="white"></path><path fill-rule="evenodd" clip-rule="evenodd" d="M29.7 6.40001C30 6.50001 30.4 6.60001 30.7 6.70001C30.9 6.80001 31.1 7.00001 31.1 7.10001C31.2 7.50001 31.4 7.90001 31.5 8.20001C31.6 8.40001 31.5 8.50001 31.3 8.50001C31 8.40001 30.6 8.30001 30.3 8.20001C30.1 8.20001 29.9 8.00001 29.9 7.80001C29.8 7.40001 29.6 7.00001 29.5 6.60001C29.4 6.40001 29.5 6.30001 29.7 6.40001Z" fill="white"></path><path fill-rule="evenodd" clip-rule="evenodd" d="M31.6 7C31.9 7.1 32.3 7.2 32.6 7.4C32.8 7.5 33 7.7 33 7.9C33.1 8.3 33.3 8.6 33.4 9C33.5 9.2 33.4 9.3 33.2 9.2C32.9 9.1 32.5 9 32.2 8.9C32 8.8 31.8 8.6 31.8 8.5C31.7 8.1 31.5 7.7 31.4 7.4C31.4 7 31.5 6.9 31.6 7Z" fill="white"></path><path fill-rule="evenodd" clip-rule="evenodd" d="M28.6 8.3C28.9 8.4 29.2 8.4 29.6 8.5C29.8 8.5 30 8.7 30 8.9C30.1 9.3 30.3 9.7 30.4 10.1C30.5 10.3 30.4 10.4 30.2 10.4C29.9 10.3 29.6 10.3 29.3 10.2C29.1 10.2 29 10 28.9 9.8C28.8 9.4 28.6 9 28.5 8.6C28.3 8.4 28.4 8.3 28.6 8.3Z" fill="white"></path><path fill-rule="evenodd" clip-rule="evenodd" d="M30.5 8.7C30.8 8.8 31.2 8.9 31.5 9C31.7 9 31.9 9.2 31.9 9.4C32 9.8 32.2 10.2 32.3 10.5C32.4 10.7 32.3 10.8 32.1 10.8C31.8 10.7 31.4 10.6 31.1 10.6C30.9 10.6 30.7 10.4 30.7 10.2C30.6 9.8 30.4 9.4 30.3 9C30.2 8.8 30.3 8.7 30.5 8.7Z" fill="white"></path><path fill-rule="evenodd" clip-rule="evenodd" d="M32.4 9.3C32.7 9.4 33.1 9.5 33.4 9.6C33.6 9.7 33.7999 9.9 33.7999 10.1C33.8999 10.5 34.1 10.8 34.2 11.2C34.3 11.4 34.2 11.5 34 11.4C33.7 11.3 33.3 11.2 33 11.1C32.8 11 32.5999 10.9 32.5999 10.7C32.4999 10.3 32.3 9.9 32.2 9.6C32.2 9.3 32.2 9.2 32.4 9.3Z" fill="white"></path><path fill-rule="evenodd" clip-rule="evenodd" d="M34.4 10C34.7 10.1 35.1 10.3 35.4 10.4C35.6 10.5 35.8 10.7 35.8 10.9C35.9 11.3 36 11.6 36.2 12C36.3 12.2 36.2 12.3 36 12.2C35.7 12.1 35.3 11.9 35 11.8C34.8 11.7 34.6 11.5 34.6 11.3C34.5 10.9 34.4 10.6 34.2 10.2C34.1 10 34.2 9.9 34.4 10Z" fill="white"></path><path fill-rule="evenodd" clip-rule="evenodd" d="M34.4 4.3C34.8 4.5 35.1 4.7 35.5 4.9C35.7 5 35.9 5.3 36 5.4C36.1 5.8 36.2 6.1 36.4 6.5C36.5 6.7 36.4 6.7 36.2 6.6C35.7 6.4 35.3 6.2 35 6C34.8 5.9 34.6 5.7 34.6 5.5C34.5 5.1 34.4 4.8 34.2 4.4C34.1 4.3 34.2 4.2 34.4 4.3Z" fill="white"></path><path fill-rule="evenodd" clip-rule="evenodd" d="M35.0999 6.5C35.4999 6.7 35.7999 6.9 36.1999 7C36.3999 7.1 36.5999 7.4 36.6999 7.5C36.7999 7.9 36.8999 8.2 37.0999 8.6C37.1999 8.8 37.0999 8.8 36.8999 8.7C36.4999 8.5 36.1999 8.3 35.7999 8.2C35.5999 8.1 35.3999 7.9 35.3999 7.7C35.0999 7.4 34.9999 7 34.8999 6.7C34.7999 6.5 34.8999 6.4 35.0999 6.5Z" fill="white"></path><path fill-rule="evenodd" clip-rule="evenodd" d="M35.8 8.70001C36.2 8.90001 36.5 9.00001 36.9 9.20001C37.1 9.30001 37.3 9.50001 37.4 9.70001C37.5 10.1 37.6 10.4 37.8 10.8C37.9 11 37.8 11 37.6 10.9C37.2 10.7 36.9 10.5 36.5 10.4C36.3 10.3 36.1 10.1 36.1 9.90001C36 9.50001 35.9 9.20001 35.7 8.80001C35.6 8.70001 35.7 8.60001 35.8 8.70001Z" fill="white"></path><path fill-rule="evenodd" clip-rule="evenodd" d="M36.6 10.9C37 11.1 37.3 11.2 37.7 11.4C37.9 11.5 38.1 11.7 38.2 11.9C38.3 12.3 38.4 12.6 38.6 13C38.7 13.2 38.6 13.2 38.4 13.1C38 12.9 37.7 12.8 37.3 12.6C37.1 12.5 36.9 12.3 36.9 12.1C36.8 11.7 36.7 11.4 36.5 11C36.3 10.9 36.4 10.8 36.6 10.9Z" fill="white"></path><path fill-rule="evenodd" clip-rule="evenodd" d="M36.5 5.50001C36.9 5.70001 37.3 6.00001 37.6 6.20001C37.8 6.30001 38 6.60001 38.1 6.80001C38.2 7.20001 38.3 7.50001 38.5 7.90001C38.6 8.10001 38.5 8.10001 38.3 8.00001C37.9 7.70001 37.5 7.50001 37.2 7.30001C37 7.20001 36.8 6.90001 36.7 6.80001C36.6 6.40001 36.5 6.10001 36.3 5.70001C36.2 5.40001 36.3 5.40001 36.5 5.50001Z" fill="white"></path><path fill-rule="evenodd" clip-rule="evenodd" d="M38.8 7.00001C39.2 7.30001 39.6 7.70001 40 8.00001C40.2 8.20001 40.4 8.50001 40.5 8.60001C40.6 8.90001 40.7 9.30001 40.9 9.70001C41 9.90001 40.8 9.90001 40.6 9.70001C40.2 9.40001 39.8 9.00001 39.4 8.70001C39.2 8.50001 39 8.30001 38.9 8.10001C38.8 7.70001 38.7 7.40001 38.5 7.00001C38.5 6.90001 38.6 6.80001 38.8 7.00001Z" fill="white"></path><path fill-rule="evenodd" clip-rule="evenodd" d="M41.3001 9.2C41.8001 9.7 42.3001 10.3 42.9001 11.1C43.2001 11.5 45.7001 19 45.7001 19C45.7001 19 43.6001 13 43.4001 12.7C42.9001 12 42.3001 11.4 41.9001 10.9C41.7001 10.7 41.5001 10.4 41.4001 10.2C41.3001 9.9 41.2001 9.50001 41.1001 9.2C40.9001 8.9 41.1001 9 41.3001 9.2Z" fill="white"></path><path fill-rule="evenodd" clip-rule="evenodd" d="M39.5 9.10001C39.9 9.40001 40.3 9.70001 40.7 10.1C40.9 10.3 41.1 10.6 41.2 10.7C41.3 11.1 41.3999 11.4 41.5999 11.8C41.6999 12 41.4999 12 41.2999 11.8C40.8999 11.5 40.4999 11.1 40.0999 10.8C39.8999 10.7 39.6999 10.4 39.5999 10.2C39.4999 9.80001 39.4 9.50001 39.2 9.10001C39.2 9.00001 39.3 9.00001 39.5 9.10001Z" fill="white"></path><path fill-rule="evenodd" clip-rule="evenodd" d="M41.9999 11.3C42.4999 11.8 42.9999 12.4 43.4999 13.1C43.7999 13.4 45.6999 19 45.6999 19C45.6999 19 44.2999 14.9 43.9999 14.6C43.4999 14 42.9999 13.4 42.4999 13C42.2999 12.8 42.0999 12.5 41.9999 12.3C41.8999 11.9 41.7999 11.6 41.6999 11.3C41.5999 11 41.7999 11.1 41.9999 11.3Z" fill="white"></path><path fill-rule="evenodd" clip-rule="evenodd" d="M38 9.8C38.4 10 38.7 10.3 39.1 10.5C39.3 10.6 39.5 10.9 39.6 11.1C39.7 11.5 39.8 11.8 40 12.2C40.1 12.4 40 12.4 39.8 12.3C39.4 12.1 39 11.8 38.7 11.6C38.5 11.5 38.3 11.3 38.3 11.1C38.2 10.7 38.1 10.4 37.9 10C37.7 9.8 37.8 9.7 38 9.8Z" fill="white"></path><path fill-rule="evenodd" clip-rule="evenodd" d="M40.2 11.3C40.6 11.6 41 11.9 41.4 12.3C41.6 12.5 41.8 12.8 41.9 12.9C42 13.3 42.1 13.6 42.3 14C42.4 14.2 42.2 14.2 42 14C41.6 13.7 41.2 13.4 40.8 13.1C40.6 13 40.4 12.7 40.3 12.5C40.2 12.1 40.1 11.8 39.9 11.4C39.9 11.2 40 11.1 40.2 11.3Z" fill="white"></path><path fill-rule="evenodd" clip-rule="evenodd" d="M42.7 13.4C43.2 13.8 43.7 14.4 44.2 15C44.5 15.3 45.8 19 45.8 19C45.8 19 45 16.9 44.7 16.6C44.2 16 43.7 15.5 43.3 15.1C43.1 14.9 42.9 14.6 42.8 14.4C42.7 14.1 42.6 13.7 42.5 13.4C42.3 13.1 42.5 13.2 42.7 13.4Z" fill="white"></path><path fill-rule="evenodd" clip-rule="evenodd" d="M38.7 12C39.1 12.2 39.4 12.5 39.8 12.7C40 12.8 40.2 13.1 40.3 13.3C40.4 13.7 40.5 14 40.7 14.4C40.8 14.6 40.7 14.6 40.5 14.5C40.1 14.3 39.7 14 39.4 13.8C39.2 13.7 39 13.5 39 13.3C38.9 12.9 38.8 12.6 38.6 12.2C38.4 12 38.5 11.9 38.7 12Z" fill="white"></path><path fill-rule="evenodd" clip-rule="evenodd" d="M40.9999 13.5C41.3999 13.8 41.7999 14.1 42.1999 14.4C42.3999 14.6 42.5999 14.9 42.6999 15C42.7999 15.4 42.8999 15.7 43.0999 16.1C43.1999 16.3 42.9999 16.3 42.7999 16.1C42.3999 15.8 41.9999 15.5 41.5999 15.2C41.3999 15.1 41.1999 14.8 41.0999 14.6C40.9999 14.2 40.8999 13.9 40.6999 13.5C40.5999 13.4 40.7999 13.3 40.9999 13.5Z" fill="white"></path><path fill-rule="evenodd" clip-rule="evenodd" d="M43.4 15.4C43.9 15.8 44.3 16.3 44.8 16.9C45 17.2 45.7 18.9 45.7 18.9C45.7 18.9 45.5 18.7 45.3 18.4C44.8 17.9 44.4 17.4 43.9 17C43.7 16.8 43.5 16.5 43.4 16.4C43.3 16.1 43.2 15.7 43.1 15.4C43 15.2 43.2 15.2 43.4 15.4Z" fill="white"></path><path fill-rule="evenodd" clip-rule="evenodd" d="M40.7 41.5C41 41.2 41.3 41 41.6 40.7C41.7 40.6 41.7 40.4 41.6 40.3C41.3 40 41.1 39.7 40.8 39.5C40.7 39.4 40.6 39.4 40.4 39.5C40.1 39.8 39.8 40 39.5 40.2C39.4 40.3 39.4 40.4 39.5 40.5C39.8 40.8 40 41.1 40.3 41.4C40.5 41.6 40.6 41.6 40.7 41.5ZM38 35.4C38.3 35.1 38.6 34.9 38.9 34.6C39 34.5 39 34.3 38.9 34.2C38.7 33.9 38.4 33.7 38.2 33.4C38.1 33.3 38 33.3 37.9 33.4C37.6 33.6 37.3 33.9 37 34.1C36.9 34.2 36.9 34.3 37 34.4C37.3 34.7 37.5 35 37.8 35.2C37.8 35.5 37.9 35.5 38 35.4ZM39.6 33.9C39.9 33.6 40.1 33.3 40.4 33.1C40.5 33 40.5 32.8 40.4 32.7C40.2 32.4 39.9 32.2 39.7 31.9C39.6 31.8 39.5 31.8 39.4 31.9C39.1 32.2 38.9 32.4 38.6 32.7C38.5 32.8 38.5 32.9 38.6 33C38.8 33.3 39.1 33.5 39.3 33.8C39.4 34 39.5 34 39.6 33.9ZM41.1 32.3C41.4 32 41.6 31.7 41.8 31.4C41.9 31.3 41.9 31.1 41.8 31C41.6 30.8 41.4 30.5 41.1 30.3C41 30.2 40.9 30.2 40.8 30.3C40.5 30.6 40.3 30.9 40 31.2C39.9 31.3 39.9 31.5 40 31.6C40.2 31.9 40.5 32.1 40.7 32.4C40.9 32.5 41 32.4 41.1 32.3ZM42.5 30.6C42.7 30.3 42.9 30 43.2 29.6C43.3 29.5 43.3 29.3 43.2 29.2C43 29 42.8 28.8 42.6 28.5C42.5 28.4 42.4 28.4 42.3 28.6C42.1 28.9 41.8 29.2 41.6 29.5C41.5 29.6 41.5 29.8 41.6 29.9C41.8 30.1 42 30.4 42.3 30.6C42.2 30.8 42.4 30.8 42.5 30.6ZM43.7 28.8C43.9 28.5 44.1 28.1 44.3 27.7C44.4 27.6 44.4 27.4 44.3 27.3C44.1 27.1 43.9 26.9 43.8 26.7C43.7 26.6 43.6 26.7 43.5 26.8C43.3 27.1 43.1 27.5 42.8 27.8C42.7 27.9 42.7 28.1 42.8 28.2C43 28.4 43.2 28.6 43.4 28.9C43.5 29 43.6 28.9 43.7 28.8ZM44.8 26.8C45 26.4 45.1 26 45.3 25.6C45.4 25.5 45.3 25.3 45.3 25.2C45.1 25 45 24.9 44.8 24.7C44.7 24.6 44.7 24.7 44.6 24.8C44.4 25.2 44.2 25.5 44 25.9C43.9 26 43.9 26.2 44 26.3C44.2 26.5 44.4 26.7 44.5 26.9C44.6 27 44.7 26.9 44.8 26.8ZM45.6 24.5C45.7 24.1 45.8 23.6 45.9 23.1C45.9 22.9 45.9 22.7 45.9 22.7C45.8 22.6 45.7 22.5 45.6 22.4C45.6 22.4 45.5 22.5 45.5 22.6C45.4 23 45.2 23.4 45.1 23.8C45 23.9 45 24.1 45.1 24.2C45.2 24.4 45.4 24.5 45.5 24.7C45.5 24.7 45.6 24.7 45.6 24.5ZM41 35.4C41.3 35.1 41.5 34.8 41.8 34.5C41.9 34.4 41.9 34.2 41.8 34.1C41.6 33.8 41.3 33.6 41.1 33.3C41 33.2 40.9 33.2 40.8 33.3C40.5 33.6 40.3 33.9 40 34.1C39.9 34.2 39.9 34.4 40 34.5C40.2 34.8 40.5 35 40.7 35.3C40.8 35.5 40.9 35.5 41 35.4ZM42.4 33.8C42.6 33.5 42.9 33.2 43.1 32.9C43.2 32.8 43.2 32.6 43.1 32.5C42.9 32.3 42.6 32 42.4 31.8C42.3 31.7 42.2 31.7 42.1 31.8C41.9 32.1 41.6 32.4 41.4 32.7C41.3 32.8 41.3 33 41.4 33.1C41.6 33.4 41.9 33.6 42.1 33.9C42.2 33.9 42.3 33.9 42.4 33.8ZM43.7 32C43.9 31.7 44.1 31.3 44.3 31C44.4 30.9 44.4 30.7 44.3 30.6C44.1 30.4 43.9 30.2 43.7 29.9C43.6 29.8 43.5 29.9 43.4 30C43.2 30.3 43 30.7 42.7 31C42.6 31.1 42.6 31.3 42.7 31.4C42.9 31.6 43.1 31.9 43.4 32.1C43.5 32.1 43.6 32.1 43.7 32ZM44.8 30C45 29.6 45.2 29.3 45.3 28.9C45.4 28.8 45.4 28.6 45.3 28.5C45.1 28.3 44.9 28.1 44.8 27.9C44.7 27.8 44.6 27.9 44.6 28C44.4 28.4 44.2 28.7 44 29.1C43.9 29.2 43.9 29.4 44 29.5C44.2 29.7 44.4 29.9 44.6 30.2C44.6 30.2 44.7 30.1 44.8 30ZM45.7 27.8C45.8 27.4 46 27 46.1 26.5C46.1 26.3 46.1 26.2 46.1 26.1C45.9 25.9 45.8 25.8 45.6 25.6C45.5 25.5 45.5 25.6 45.4 25.8C45.3 26.2 45.1 26.6 44.9 27C44.8 27.1 44.8 27.3 44.9 27.4C45.1 27.6 45.3 27.8 45.4 28C45.6 28 45.7 28 45.7 27.8ZM46.4 25.3C46.5 24.8 46.5 24.3 46.5 23.8C46.5 23.6 46.5 23.4 46.4 23.4C46.3 23.3 46.2 23.2 46.1 23.1C46.1 23.1 46 23.2 46 23.4C45.9 23.9 45.8 24.4 45.7 24.8C45.7 25 45.7 25.1 45.7 25.2C45.8 25.4 46 25.5 46.1 25.7C46.3 25.6 46.3 25.5 46.4 25.3ZM40.9 38.5C41.2 38.2 41.5 38 41.7 37.7C41.8 37.6 41.8 37.4 41.7 37.3C41.5 37 41.2 36.8 41 36.5C40.9 36.4 40.8 36.4 40.7 36.5C40.4 36.8 40.1 37 39.9 37.3C39.8 37.4 39.8 37.5 39.9 37.6C40.2 37.9 40.4 38.2 40.7 38.4C40.6 38.5 40.8 38.6 40.9 38.5ZM42.4 36.9C42.6 36.6 42.9 36.3 43.1 36C43.2 35.9 43.2 35.7 43.1 35.6C42.9 35.3 42.6 35.1 42.4 34.8C42.3 34.7 42.2 34.7 42.1 34.8C41.8 35.1 41.6 35.4 41.3 35.7C41.2 35.8 41.2 36 41.3 36.1C41.5 36.4 41.8 36.6 42 36.9C42.1 37 42.3 37 42.4 36.9ZM43.7 35.2C43.9 34.9 44.2 34.6 44.4 34.2C44.5 34.1 44.5 33.9 44.4 33.8C44.2 33.6 44 33.3 43.7 33.1C43.6 33 43.5 33 43.4 33.2C43.2 33.5 42.9 33.8 42.7 34.2C42.6 34.3 42.6 34.5 42.7 34.6C42.9 34.9 43.2 35.1 43.4 35.4C43.5 35.3 43.6 35.3 43.7 35.2ZM44.9 33.3C45.1 32.9 45.3 32.6 45.5 32.2C45.6 32.1 45.6 31.9 45.5 31.8C45.3 31.6 45.1 31.4 44.9 31.1C44.8 31 44.7 31.1 44.6 31.2C44.4 31.6 44.2 31.9 44 32.2C43.9 32.3 43.9 32.5 44 32.6C44.2 32.8 44.4 33.1 44.7 33.3C44.7 33.4 44.9 33.4 44.9 33.3ZM45.9 31.2C46.1 30.8 46.2 30.4 46.3 30C46.3 29.8 46.3 29.7 46.3 29.6C46.1 29.4 45.9 29.2 45.8 29C45.7 28.9 45.6 29 45.6 29.1C45.4 29.5 45.3 29.9 45.1 30.3C45 30.4 45 30.6 45.1 30.7C45.3 30.9 45.5 31.1 45.7 31.3C45.8 31.4 45.9 31.3 45.9 31.2ZM46.7 28.8C46.8 28.3 46.9 27.9 47 27.4C47 27.2 47 27 46.9 27C46.8 26.8 46.6 26.7 46.4 26.5C46.3 26.4 46.3 26.5 46.2 26.7C46.1 27.2 46 27.6 45.8 28C45.8 28.2 45.8 28.3 45.8 28.4C46 28.6 46.2 28.8 46.3 29C46.6 29.1 46.7 29 46.7 28.8ZM47.1 26.1C47.1 25.6 47.1 25 47.1 24.4C47.1 24.2 47 24 47 23.9C46.9 23.8 46.8 23.7 46.7 23.6C46.7 23.6 46.6 23.7 46.6 23.9C46.6 24.5 46.5 25 46.5 25.5C46.5 25.7 46.5 25.9 46.6 25.9C46.7 26.1 46.9 26.2 47 26.4C47.1 26.4 47.1 26.3 47.1 26.1ZM42.3 40C42.6 39.7 42.8 39.4 43.1 39.1C43.2 39 43.2 38.8 43.1 38.7C42.9 38.4 42.6 38.2 42.4 37.9C42.3 37.8 42.2 37.8 42.1 37.9C41.8 38.2 41.6 38.5 41.3 38.7C41.2 38.8 41.2 39 41.3 39.1C41.6 39.4 41.8 39.7 42.1 39.9C42.1 40.1 42.2 40.1 42.3 40ZM43.8 38.4C44 38.1 44.3 37.8 44.5 37.5C44.6 37.4 44.6 37.2 44.5 37.1C44.3 36.8 44 36.6 43.8 36.3C43.7 36.2 43.6 36.2 43.5 36.3C43.3 36.6 43 36.9 42.8 37.2C42.7 37.3 42.7 37.5 42.8 37.6C43 37.9 43.3 38.1 43.5 38.4C43.5 38.5 43.7 38.5 43.8 38.4ZM46.2 34.6C46.4 34.2 46.5 33.8 46.7 33.4C46.8 33.3 46.7 33.1 46.7 33C46.5 32.8 46.3 32.6 46.1 32.3C46 32.2 45.9 32.3 45.8 32.4C45.6 32.8 45.4 33.1 45.3 33.5C45.2 33.6 45.2 33.8 45.3 33.9C45.5 34.1 45.7 34.4 46 34.6C46 34.8 46.1 34.7 46.2 34.6ZM47 32.4C47.1 32 47.3 31.6 47.4 31.1C47.4 30.9 47.4 30.8 47.4 30.7C47.2 30.5 47 30.3 46.9 30.1C46.8 30 46.7 30.1 46.7 30.3C46.6 30.7 46.4 31.1 46.3 31.5C46.2 31.6 46.3 31.8 46.3 31.9C46.5 32.1 46.7 32.3 46.9 32.6C46.9 32.6 47 32.5 47 32.4ZM47.7 29.9C47.8 29.4 47.8 28.9 47.9 28.4C47.9 28.2 47.9 28 47.8 27.9C47.6 27.7 47.5 27.6 47.3 27.4C47.2 27.3 47.2 27.4 47.2 27.6C47.1 28.1 47 28.6 46.9 29C46.9 29.2 46.9 29.4 47 29.4C47.2 29.6 47.4 29.8 47.5 30C47.6 30.2 47.6 30.1 47.7 29.9ZM47.9 27C47.9 26.4 47.8 25.8 47.7 25.1C47.7 24.8 47.6 24.6 47.6 24.6C47.5 24.5 47.4 24.4 47.3 24.3C47.3 24.3 47.3 24.4 47.3 24.6C47.4 25.2 47.4 25.8 47.4 26.4C47.4 26.6 47.4 26.8 47.5 26.9C47.6 27.1 47.8 27.2 47.9 27.4C47.9 27.3 47.9 27.2 47.9 27ZM47.3 23.1C47 22.3 46.7 21.3 46.1 20.1C45.9 19.6 45.7 19.3 45.7 19.3C45.7 19.3 45.7 19.5 45.7 19.7C45.7 20.3 45.7 20.8 45.6 21.3C45.6 21.5 45.6 21.6 45.6 21.7C45.7 21.8 45.8 21.9 45.9 22C45.9 22 46 21.9 46 21.7C46 21.1 45.9 20.5 45.8 19.8C45.7 19.5 45.7 19.3 45.7 19.3C45.7 19.3 45.8 19.5 45.8 19.8C46 20.5 46 21.2 46.1 21.8C46.1 22 46.1 22.2 46.2 22.2C46.3 22.3 46.4 22.4 46.5 22.5C46.5 22.5 46.5 22.4 46.5 22.1C46.4 21.4 46.3 20.7 46 19.8C45.9 19.5 45.8 19.2 45.8 19.2C45.8 19.2 45.9 19.5 46 19.8C46.3 20.7 46.5 21.5 46.6 22.1C46.6 22.3 46.7 22.5 46.7 22.6C46.8 22.7 46.9 22.8 47 22.9C47 22.9 47 22.8 47 22.5C46.8 21.7 46.6 20.9 46.2 19.9C46 19.5 45.9 19.2 45.9 19.2C45.9 19.2 46.1 19.5 46.2 19.9C46.6 20.9 46.9 21.8 47.1 22.6C47.2 22.9 47.2 23.1 47.3 23.1C47.4 23.2 47.5 23.3 47.6 23.4C47.4 23.6 47.4 23.4 47.3 23.1ZM37.8 38.3C38.1 38.1 38.4 37.8 38.7 37.6C38.8 37.5 38.8 37.4 38.7 37.3C38.4 37 38.2 36.7 37.9 36.5C37.8 36.4 37.6 36.4 37.5 36.5C37.2 36.7 36.9 37 36.6 37.2C36.5 37.3 36.5 37.4 36.6 37.5C36.9 37.8 37.1 38.1 37.4 38.4C37.5 38.3 37.7 38.4 37.8 38.3Z" fill="white"></path><path fill-rule="evenodd" clip-rule="evenodd" d="M55.9 23.8L66.5 13.3H57.5L51.4 19.3L45.3 13.3H44C44.1 13.6 44.3 14 44.5 14.4C45.1 16 45.8 18.3 46.5 21.1C48.5 23.4 49.4 26.5 49.2 30.4L51.3 28.3L57.8 34.8H66.8L56.7 24.6L55.9 23.8Z" fill="white"></path><path fill-rule="evenodd" clip-rule="evenodd" d="M190 34.7H181.2L176.4 29H166.2V34.7H159.6V23.8H178.2C179.2 23.8 180.1 23.6 180.8 23.2C181.5 22.8 181.9 22.2 181.9 21.4C181.9 20.6 181.6 19.9 180.9 19.5C180.3 19.1 179.4 18.9 178.2 18.9H159.6L163.9 13.3H177.6C178.8 13.3 180.1 13.4 181.4 13.6C182.7 13.8 183.9 14.2 184.9 14.8C186 15.4 186.8 16.2 187.5 17.1C188.2 18 188.5 19.3 188.5 20.9C188.5 21.7 188.4 22.5 188.1 23.3C187.8 24 187.5 24.7 187 25.3C186.5 25.9 185.9 26.4 185.2 26.8C184.5 27.2 183.7 27.5 182.9 27.7C183.3 28 183.7 28.3 184.1 28.8C184.5 29.2 185.1 29.8 185.9 30.6L190 34.7ZM132.5 34.7L136.5 29.2H141.9C142.5 29.2 143.2 29.2 143.9 29.2C144.6 29.2 145.2 29.2 145.7 29.3C145.4 28.9 145.1 28.4 144.7 27.8C144.3 27.2 143.9 26.7 143.6 26.2L139.8 20.5L129.8 34.7H122L135.7 15.4C136.1 14.8 136.7 14.2 137.4 13.7C138.1 13.2 138.9 13 140 13C141 13 141.8 13.2 142.5 13.7C143.2 14.2 143.7 14.7 144.2 15.4L157.5 34.7H132.5ZM121.3 29.3L117 34.8H98.1V13.4H104.7V29.3H121.3ZM95.9 29.3L91.7 34.8H71.1V13.4H95.8L91.5 19H77.7V21.6H94.6L90.8 26.5H77.7V29.4H95.9V29.3ZM10.7 34.7L14.7 29.2H20C20.6 29.2 21.3 29.2 22 29.2C22.7 29.2 23.3 29.2 23.8 29.3C23.5 28.9 23.2 28.4 22.8 27.8C22.4 27.2 22 26.7 21.7 26.2L17.9 20.5L7.9 34.7H0L13.7 15.4C14.1 14.8 14.7 14.2 15.4 13.7C16.1 13.2 16.9 13 18 13C19 13 19.8 13.2 20.5 13.7C21.2 14.2 21.7 14.7 22.2 15.4L35.5 34.7H10.7Z" fill="white"></path></svg> 