<?xml version="1.0" encoding="utf-8"?>
<!-- Generator: Adobe Illustrator 24.2.0, SVG Export Plug-In . SVG Version: 6.00 Build 0)  -->
<svg version="1.1" id="图层_1" xmlns="http://www.w3.org/2000/svg" xmlns:xlink="http://www.w3.org/1999/xlink" x="0px" y="0px"
	 viewBox="0 0 650.3 210" style="enable-background:new 0 0 650.3 210;" xml:space="preserve">
<style type="text/css">
	.st0{stroke:#000000;stroke-miterlimit:10;}
</style>
<g>
	<path class="st0" d="M282.8,76.1c2.4,0.5,4.8,0.9,7.1,1.7c9,2.9,14,9.5,16.7,18.5c-2.3,0-4.4,0.2-6.4-0.1c-0.6-0.1-1.3-1.2-1.7-1.9
		c-4.5-10.3-15.9-14.9-26-10.4c-4.9,2.2-8.4,5.8-10.6,10.6c-5.2,11.6-4.8,23,2,33.7c4,6.3,10.1,9.3,17.6,8.8
		c7.6-0.5,12.8-4.9,16.1-11.6c0.9-1.8,1.4-3.7,2.1-5.7c2.1,0,4.4,0,6.8,0c-1,5.8-3.3,10.9-7.2,15.2c-4.2,4.6-9.4,7.4-15.6,8.1
		c-0.4,0-0.8,0.2-1.1,0.4c-1.8,0-3.6,0-5.3,0c-0.4-0.1-0.7-0.3-1.1-0.4c-8.1-1-14.6-4.7-18.8-11.7c-6.4-10.6-7.3-22.2-3.9-33.9
		c2.8-9.9,8.9-17.1,19.1-20.1c1.5-0.5,3.1-0.7,4.7-1.1C278.9,76.1,280.9,76.1,282.8,76.1z"/>
	<path class="st0" d="M619.2,141.2c-12.8,0-25.7,0-38.7,0c0-21,0-42,0-63c2.2,0,4.3,0,6.6,0c0,18.9,0,37.7,0,56.9
		c10.8,0,21.4,0,32,0C619.2,137.1,619.2,139.2,619.2,141.2z"/>
	<path class="st0" d="M369.7,141.3c-2.3,0-4.2,0.1-6.2-0.1c-0.6,0-1.3-0.8-1.6-1.4c-2-5.4-4-10.7-5.8-16.1c-0.5-1.3-1-1.8-2.4-1.8
		c-7.8,0.1-15.6,0.1-23.4,0c-1.4,0-2,0.4-2.5,1.7c-2,5.9-4.2,11.7-6.3,17.5c-2.4,0-4.8,0-7.4,0c1.5-4.1,2.9-8.1,4.4-12
		c6-16.2,12-32.5,17.9-48.7c0.6-1.6,1.3-2.6,3.3-2.4c2.3,0.3,5.3-0.6,6.9,0.5c1.6,1.1,1.8,4.1,2.6,6.3c6.6,18,13.2,36.1,19.7,54.1
		C369.2,139.7,369.4,140.4,369.7,141.3z M342,84.6c-3.8,10.6-7.4,20.8-11.2,31.2c7.5,0,14.8,0,22.3,0
		C349.4,105.4,345.8,95.2,342,84.6z"/>
	<path class="st0" d="M520.8,141.2c-2.4,0-4.7,0-7.3,0c0.3-0.8,0.4-1.5,0.7-2.1c7.3-19.7,14.5-39.4,21.7-59.1c0.5-1.5,1.2-2,2.8-1.9
		c2,0.2,4,0.1,5.9,0c1,0,1.6,0.2,2,1.3c7.4,20.4,14.8,40.7,22.2,61.1c0.1,0.2,0,0.4,0.1,0.8c-2.1,0-4.2,0.1-6.3-0.1
		c-0.5,0-1.1-0.8-1.3-1.4c-2-5.2-3.9-10.5-5.7-15.8c-0.5-1.5-1.1-2.1-2.8-2.1c-7.6,0.1-15.3,0.1-22.9,0c-1.6,0-2.2,0.6-2.7,2
		C525,129.7,522.8,135.4,520.8,141.2z M552.3,115.8c-3.7-10.5-7.4-20.7-11.1-31.3c-3.8,10.7-7.4,20.9-11.2,31.3
		C537.5,115.8,544.7,115.8,552.3,115.8z"/>
	<path class="st0" d="M389,114.3c0,9.1,0,17.9,0,26.9c-2.3,0-4.4,0-6.7,0c0-20.9,0-41.9,0-63c0.7,0,1.3-0.1,2-0.1c7.5,0,15,0,22.5,0
		c9.8,0,17.6,7.1,18.5,16.6c0.9,9.5-5.8,17.7-15.6,19.4c-1.1,0.2-2.3,0.2-3.5,0.2C400.6,114.4,394.9,114.3,389,114.3z M389.1,84.5
		c0,8,0,15.9,0,23.7c0.4,0.1,0.6,0.1,0.9,0.1c5.7,0,11.3,0.1,17-0.1c6.2-0.2,11.3-5.6,11.4-11.7c0.2-6.3-4.4-11.6-10.8-11.9
		C401.5,84.2,395.4,84.5,389.1,84.5z"/>
	<path class="st0" d="M491.5,141.2c-2.4,0-4.5,0-6.9,0c0-18.9,0-37.8,0-56.9c-7.1,0-13.9,0-20.9,0c0-2.1,0-4,0-6
		c16.1,0,32.2,0,48.5,0c0,1.9,0,3.8,0,6c-6.9,0-13.7,0-20.8,0C491.5,103.3,491.5,122.1,491.5,141.2z"/>
	<path class="st0" d="M447.7,141.2c-2.2,0-4.2,0-6.4,0c0-21,0-41.9,0-62.9c2.1,0,4.2,0,6.4,0C447.7,99.2,447.7,120.1,447.7,141.2z"
		/>
	<g>
		<path d="M112.2,127.6c-0.2,0-0.6,0.2-0.7,0.4c-0.3,0.4-0.4,0.8-0.5,1.3c-0.8,3.4-2.1,6.7-3.7,9.8c-1.4,2.8-3.2,5.4-5.3,7.8
			c-2.7,2.9-5.9,4.9-9.7,6c-2.1,0.6-4.3,1.1-6.4,1.1c-8.4,0.1-16.9,0-25.3,0c-0.3,0-0.6-0.1-1.1-0.1c0-0.5,0-1,0-1.4
			c0-11.8,0-23.6,0-35.4c0-16.7,0-33.4,0-50.1c0-0.3,0-0.7,0-1c0-0.4,0.2-0.7,0.7-0.7c0.3,0,0.6,0,0.9,0c3.9,0,9.4,0,13.2,0l0-1.8
			c-13.3,0-29.3,0-42.6,0l0,1.8c4.9,0,9.6,0,14.6,0c0,14.9,0,29.6,0,44.4c0,14.7,0,29.4,0,44.3c-4.9,0-9.7,0-14.5,0
			c0,0.6,0,1.1,0,1.7c0.5,0,0.9,0,1.3,0c26.1,0,53.7,0,79.8,0h0l0-27.6C112.8,128,112.7,127.7,112.2,127.6z"/>
		<rect x="129.3" y="39.6" width="3" height="140.2"/>
		<path d="M205.7,99.9c0-0.1-0.1-0.8-0.1-0.8c-0.3-1.1-0.5-2.2-0.8-3.3c-1.4-5.1-3.7-9.7-6.8-14c-1.8-2.5-3.9-4.7-6.3-6.7
			c-2.2-1.8-4.6-3.4-7-4.8c-2.7-1.5-5.6-2.8-8.6-3.8c-2.6-0.9-5.2-1.7-7.8-2.1c-2.1-0.3-4.2-0.6-6.2-0.8c-1.4-0.1-2.8-0.2-4.2-0.2
			c-2.3-0.1-4.7-0.2-7-0.2c-1.4,0-2.9,0.1-4.3,0.2c-1.3,0.1-2.5,0.1-3.8,0.2c0.2,1.6,0.2,1.7,1.7,1.7c1.7,0,3.5-0.2,5.2-0.2
			c4,0,8.1,0,12.1,0.7c1.9,0.4,3.7,0.7,5.5,1.2c2.3,0.7,4.5,1.6,6.6,2.7c2.5,1.4,4.8,3,6.7,5c3,3,5.1,6.5,6.7,10.4
			c1.7,4.2,2.7,8.7,3.3,13.2c0,0.4,0.1,1.6,0.1,1.6c0.9,10.2,0.2,18.1,0.2,18.1s-0.1,0.7-0.1,0.9c-0.3,2.4-0.6,4.8-1.1,7.2
			c-0.6,3-1.5,5.9-2.8,8.7c-0.9,1.9-1.9,3.7-2.8,5.5c-1.2,2.3-2.8,4.3-4.6,6.1c-3.5,3.3-7.6,5.5-12.2,6.8c-3.1,0.8-6.3,1.1-9.4,1.3
			c-3,0.2-6.1,0.1-9.2,0.1c-1.7,0-3.4,0-5.2,0c-0.5,1.2-0.4,1.4,0.9,1.5c0.9,0.1,1.7,0.2,2.6,0.2c5.7,0.1,11.3,0.2,17-0.2
			c2.7-0.2,5.3-0.6,7.9-1.2c3.4-0.8,6.7-2.1,9.8-3.7c2.5-1.3,4.9-2.8,7.3-4.5c3.5-2.4,6.4-5.4,8.9-8.7c2.1-2.9,3.9-5.9,5.3-9.2
			c1.3-3.2,2.2-6.4,2.8-9.7c0.1-0.6,0.1-1,0.1-1C207.3,109,205.7,99.9,205.7,99.9z"/>
	</g>
</g>
</svg>
